<svg width="105" height="106" viewBox="0 0 105 106" fill="none" xmlns="http://www.w3.org/2000/svg">
<g id="Group 2031">
<circle id="Ellipse 19" cx="52.5" cy="53.4216" r="52.5" fill="#005CFF"/>
<path id="Vector" d="M52.5 32.9216C51.5817 32.9216 50.6723 33.1025 49.8239 33.4539C48.9755 33.8054 48.2046 34.3205 47.5552 34.9698C46.9058 35.6192 46.3907 36.3901 46.0393 37.2385C45.6879 38.087 45.507 38.9963 45.507 39.9146C45.507 40.833 45.6879 41.7423 46.0393 42.5907C46.3907 43.4392 46.9058 44.2101 47.5552 44.8594C48.2046 45.5088 48.9755 46.0239 49.8239 46.3753C50.6723 46.7268 51.5817 46.9076 52.5 46.9076C54.3547 46.9076 56.1334 46.1709 57.4448 44.8594C58.7562 43.548 59.493 41.7693 59.493 39.9146C59.493 38.06 58.7562 36.2813 57.4448 34.9698C56.1334 33.6584 54.3547 32.9216 52.5 32.9216ZM68.25 36.4146C66.8576 36.4146 65.5223 36.9678 64.5377 37.9523C63.5531 38.9369 63 40.2722 63 41.6646C63 43.057 63.5531 44.3924 64.5377 45.3769C65.5223 46.3615 66.8576 46.9146 68.25 46.9146C69.6424 46.9146 70.9777 46.3615 71.9623 45.3769C72.9469 44.3924 73.5 43.057 73.5 41.6646C73.5 40.2722 72.9469 38.9369 71.9623 37.9523C70.9777 36.9678 69.6424 36.4146 68.25 36.4146ZM36.75 36.4146C35.3576 36.4146 34.0223 36.9678 33.0377 37.9523C32.0531 38.9369 31.5 40.2722 31.5 41.6646C31.5 43.057 32.0531 44.3924 33.0377 45.3769C34.0223 46.3615 35.3576 46.9146 36.75 46.9146C38.1424 46.9146 39.4777 46.3615 40.4623 45.3769C41.4469 44.3924 42 43.057 42 41.6646C42 40.2722 41.4469 38.9369 40.4623 37.9523C39.4777 36.9678 38.1424 36.4146 36.75 36.4146ZM42 53.8901C42.0065 52.9661 42.3781 52.0822 43.0337 51.4311C43.6894 50.78 44.576 50.4146 45.5 50.4146H59.5C60.4283 50.4146 61.3185 50.7834 61.9749 51.4398C62.6312 52.0961 63 52.9864 63 53.9146V64.4146C62.9998 65.5162 62.8274 66.6109 62.489 67.6591C61.714 70.0346 60.1175 72.056 57.9863 73.3603C55.8551 74.6646 53.3286 75.1664 50.8607 74.7756C48.3928 74.3848 46.145 73.127 44.521 71.228C42.897 69.329 42.0032 66.9133 42 64.4146V53.8901ZM38.5 53.9146C38.5 52.6371 38.8395 51.4436 39.438 50.4146H31.5C30.5717 50.4146 29.6815 50.7834 29.0251 51.4398C28.3687 52.0961 28 52.9864 28 53.9146V62.6646C27.9995 64.0972 28.3508 65.508 29.023 66.7731C29.6951 68.0382 30.6676 69.1189 31.855 69.9203C33.0425 70.7217 34.4085 71.2193 35.8332 71.3694C37.2579 71.5195 38.6976 71.3175 40.026 70.7811C39.0186 68.8091 38.4955 66.6255 38.5 64.4111V53.9146ZM66.5 53.9146V64.4146C66.5 66.7071 65.9505 68.8701 64.974 70.7811C66.3024 71.3175 67.7421 71.5195 69.1668 71.3694C70.5915 71.2193 71.9575 70.7217 73.145 69.9203C74.3324 69.1189 75.3049 68.0382 75.977 66.7731C76.6492 65.508 77.0005 64.0972 77 62.6646V53.9146C77 52.9864 76.6312 52.0961 75.9749 51.4398C75.3185 50.7834 74.4283 50.4146 73.5 50.4146H65.562C66.157 51.4436 66.5 52.6371 66.5 53.9146Z" fill="white"/>
</g>
</svg>
