<svg width="73" height="71" viewBox="0 0 73 71" fill="none" xmlns="http://www.w3.org/2000/svg">
<g id="Group">
<path id="Vector" d="M0 45.5777C1.36708 44.9483 2.62126 44.1178 3.92493 43.3755C6.62197 41.8399 9.31282 40.2919 11.9851 38.7129C12.5202 38.3975 12.8743 38.2676 13.1063 38.9851C13.1388 39.0841 13.2563 39.1537 13.3352 39.2372C13.6909 40.2068 13.6909 40.2053 12.7042 40.7759C9.86027 42.4167 7.01322 44.0513 4.177 45.7076C3.49037 46.1081 2.74188 46.4143 2.1465 46.9633C2.14031 51.6167 2.13876 56.2684 2.12175 60.9217C2.12021 61.2604 2.25939 61.4259 2.52847 61.5821C6.55856 63.8956 10.5856 66.2153 14.6126 68.535C16.1451 67.8066 17.574 66.8957 19.0324 66.0359C21.3814 64.6905 23.7305 63.342 26.0827 61.9996C27.0461 61.4491 27.0477 61.4537 27.7065 62.1945C27.6864 62.6012 28.2385 62.9028 28.09 63.2043C27.889 63.611 27.3415 63.7332 26.9379 63.9667C23.0408 66.2246 19.1329 68.4654 15.242 70.7356C14.8198 70.9815 14.526 70.9815 14.1007 70.7341C9.57572 68.1004 5.03684 65.4915 0.499508 62.8765C0.33713 62.7837 0.167018 62.7048 0.0015465 62.6182C3.54304e-08 56.9334 0 51.2548 0 45.5777Z" fill="#020203"/>
<path id="Vector_2" d="M44.4145 60.9465C43.0799 61.1831 41.7267 61.1645 40.3968 61.0284C38.9524 60.88 37.9472 60.0047 37.3502 58.6886C37.2157 58.3917 37.1245 58.1907 36.7255 58.1876C36.3141 58.1845 36.2368 58.4118 36.1053 58.701C35.4558 60.1238 34.3609 61.0006 32.7866 61.0826C31.2695 61.163 29.7184 61.3718 28.2694 60.6511C27.8132 60.3155 27.2162 60.0356 27.0508 59.5005C26.6147 58.0948 25.5662 58.1366 24.445 58.2232C24.0924 58.2494 23.7367 58.2278 23.3826 58.2278C21.8562 58.2278 21.8809 58.2278 21.8732 56.6968C21.8701 56.1664 22.0773 56.0767 22.5382 56.0875C23.647 56.1122 24.7574 56.0859 25.8677 56.0952C26.1693 56.0968 26.4059 56.0798 26.5265 55.7287C26.8405 54.8209 27.4853 54.1745 28.2663 53.6503C29.6705 52.9652 31.1767 53.16 32.6474 53.2018C34.3161 53.2482 35.4713 54.1529 36.1347 55.6622C36.2723 55.9746 36.4069 56.0736 36.7378 56.0937C37.1136 56.1169 37.2033 55.9127 37.3209 55.6406C38.0183 54.026 39.2787 53.2049 41.0154 53.1461C42.1443 53.1074 43.2809 53.0549 44.4021 53.2714C45.3516 53.6765 46.2764 54.1931 46.6584 55.1766C46.9754 55.9916 47.461 56.1602 48.2049 56.0519C48.3673 56.0287 48.5327 56.0256 48.6951 56.0133C49.1157 56.0241 49.5379 56.0442 49.9586 56.0457C51.638 56.0488 51.6272 56.0457 51.5298 57.7468C51.5112 58.0871 51.4045 58.1876 51.0767 58.1845C50.2802 58.1768 49.4823 58.2 48.6858 58.2108C48.2652 58.203 47.8446 58.1984 47.4239 58.1876C47.1935 58.1814 47.0481 58.2371 46.9538 58.4922C46.5053 59.7124 45.6037 60.481 44.4145 60.9465ZM28.789 58.268C29.839 59.3691 33.0897 59.315 33.815 58.2665C33.4949 57.9618 32.8191 58.6299 32.6892 57.8767C32.6072 57.3958 32.6072 56.8777 32.6861 56.3952C32.8067 55.6545 33.5645 56.3968 33.8537 55.9622C32.7681 54.9369 29.4787 55.0111 28.8973 56.0364C29.1772 56.3674 29.9458 55.5849 29.9643 56.5684C29.9906 58.1551 30.0076 58.1551 28.789 58.268ZM39.5369 58.2525C39.9266 58.6654 40.2885 58.9237 40.7602 58.9314C41.6571 58.9469 42.5525 58.9345 43.4495 58.9314C43.7186 58.9299 43.9567 58.8232 44.1779 58.6855C44.314 58.6005 44.4887 58.5077 44.4269 58.3082C44.3727 58.1319 44.1825 58.1783 44.0634 58.1984C43.4711 58.3036 43.3938 57.9834 43.4418 57.5102C43.4681 57.2535 43.4681 56.9891 43.4402 56.7324C43.3876 56.2545 43.4727 55.9452 44.0604 56.0566C44.1825 56.0798 44.3696 56.1045 44.4269 55.9359C44.4949 55.7395 44.3325 55.6205 44.1918 55.5524C43.9614 55.4411 43.7108 55.305 43.4665 55.2988C42.5479 55.2756 41.6262 55.2648 40.7107 55.3204C40.2607 55.3483 39.8215 55.5354 39.622 55.9854C39.9699 56.3133 40.7556 55.6019 40.7447 56.6102C40.7324 58.1396 40.7633 58.1396 39.5369 58.2525Z" fill="#030304"/>
<path id="Vector_3" d="M49.7591 24.7189C50.6854 25.6561 51.2623 26.8252 51.8716 27.9634C52.6726 29.4604 52.5133 30.9234 51.5221 32.2889C51.3442 32.5332 51.2081 32.6956 51.3983 33.0219C51.5947 33.3591 51.819 33.3745 52.153 33.342C53.8742 33.1688 55.2104 33.8338 56.078 35.32C56.6687 36.3314 57.4033 37.2809 57.6399 38.4717C57.861 39.4769 57.5641 40.3986 57.1852 41.3063C56.6115 41.7347 56.5775 42.194 56.9981 42.7832C57.3801 43.3183 57.6646 43.923 57.9925 44.4952C58.8508 45.989 58.8446 45.9751 57.3089 46.7576C56.9842 46.9231 56.8697 46.8473 56.7151 46.5674C56.214 45.6581 55.6449 44.7843 55.1887 43.8534C54.8748 43.2147 54.4897 42.9657 53.817 43.2224C52.9046 43.193 52.0927 42.8327 51.2885 42.4476C50.3669 41.512 49.7792 40.3522 49.1699 39.2171C48.3719 37.734 48.4848 36.2711 49.4467 34.8854C49.6168 34.6411 49.8349 34.4725 49.6075 34.0983C49.3972 33.7519 49.1668 33.7658 48.8482 33.7936C47.2878 33.9343 45.9873 33.4054 45.1259 32.0925C44.3944 30.9775 43.6552 29.847 43.3026 28.5279C43.2624 27.7438 43.1943 26.8685 43.6969 26.2762C44.5954 25.2169 44.1408 24.3865 43.5253 23.4895C43.3258 23.1988 43.1665 22.8817 42.9887 22.5755C42.2154 21.2456 42.2263 21.2641 43.5732 20.4801C43.983 20.2419 44.181 20.3007 44.3975 20.6966C44.9279 21.6678 45.4847 22.625 46.0368 23.5854C46.1636 23.8065 46.2625 24.0602 46.6089 23.9983C47.7564 23.8003 48.7848 24.1421 49.7591 24.7189ZM53.302 40.9769C53.3577 40.9816 53.4149 40.9862 53.4706 40.9909C53.4474 40.9476 53.4258 40.9043 53.4026 40.861C53.2618 40.5656 53.1227 40.2702 52.9742 39.9563C53.234 39.8016 53.4938 39.6423 53.7583 39.4908C54.7171 38.9403 54.7171 38.9418 55.3449 39.8125C55.3619 39.8357 55.4207 39.8279 55.4594 39.8341C55.7996 38.3619 54.1217 35.5427 52.8984 35.5705C53.0268 35.8071 53.1474 36.0344 53.2742 36.2587C53.3438 36.3808 53.4567 36.5247 53.2897 36.6221C52.7639 36.9329 52.2535 37.3319 51.6814 37.4788C51.3257 37.5701 51.3148 36.9159 51.0365 36.6855C51.0117 36.6654 50.9545 36.6824 50.9143 36.6824C50.588 37.9722 52.0154 40.5362 53.302 40.9769ZM45.6006 27.249C45.1398 28.6439 46.8254 31.4878 48.0889 31.5961C48.2436 31.1754 47.1796 30.8986 47.9745 30.3929C49.3137 29.5408 49.3137 29.5408 50.0576 30.5089C50.5679 29.1991 48.8096 26.1819 47.5863 26.2097C47.4672 26.6304 48.5343 26.9397 47.6466 27.4531C46.3136 28.2232 46.3244 28.2418 45.6006 27.249Z" fill="#030304"/>
<path id="Vector_4" d="M15.061 38.4949C15.4415 37.134 16.1915 35.9509 16.9957 34.8266C17.84 33.6467 19.0896 33.192 20.5371 33.3328C20.8448 33.3621 21.0984 33.4271 21.3057 33.059C21.5021 32.7095 21.3737 32.524 21.1835 32.258C20.186 30.8569 20.0747 29.3692 20.9098 27.8691C21.5144 26.785 22.0124 25.619 22.9758 24.7684C23.8202 24.2024 24.7373 23.839 25.7657 23.9844C26.2961 24.0586 26.6147 23.921 26.8003 23.4261C26.8729 23.2312 26.9889 23.0519 27.0848 22.8647C27.3369 22.441 27.5936 22.0219 27.8395 21.5935C28.6808 20.1275 28.673 20.1368 30.0911 21.0167C30.4051 21.2116 30.453 21.3569 30.2612 21.6755C29.7401 22.54 29.3102 23.4648 28.7364 24.2906C28.3003 24.9184 28.3575 25.3762 28.8895 25.8479C29.3272 26.6922 29.4803 27.5923 29.4076 28.5356C29.1834 29.6491 28.5045 30.5429 27.9818 31.5141C27.0817 33.1828 25.7007 33.973 23.8017 33.7874C23.4754 33.7549 23.2991 33.823 23.1243 34.1137C22.9295 34.4369 23.0671 34.604 23.2496 34.8483C24.128 36.0344 24.3878 37.3675 23.7893 38.716C23.2202 39.998 22.5691 41.2646 21.5593 42.2868C20.6051 42.9734 19.5551 43.3245 18.3767 43.1327C18.038 43.077 17.9143 43.2379 17.7813 43.4776C17.3916 44.175 16.9926 44.8679 16.5951 45.5622C15.7647 47.0159 15.7709 47.0051 14.3481 46.1406C14.0373 45.9519 13.9708 45.8127 14.1718 45.488C14.6172 44.7689 14.9775 43.9941 15.4507 43.2951C15.9704 42.5234 16.2858 41.812 15.4786 41.0403C15.3502 40.9182 15.293 40.7218 15.2033 40.5594C15.0378 39.8774 14.9914 39.1892 15.061 38.4949ZM21.8067 36.5958C21.0381 37.5685 21.0551 37.5361 19.7422 36.8123C18.7896 36.2865 20.0035 35.9649 19.7716 35.5349C18.4849 35.6834 16.8039 38.6139 17.3266 39.8125C17.7905 39.7707 17.4782 38.6789 18.2993 39.115C18.7153 39.3361 19.1607 39.5295 19.5195 39.8264C20.0747 40.2857 19.1282 40.5486 19.3076 40.9878C20.6438 40.6723 22.1717 38.0387 21.8067 36.5958ZM27.125 27.317C26.6626 27.3897 26.9147 28.3454 26.2234 28.0841C25.7889 27.9201 25.3868 27.6495 24.9955 27.3897C24.2362 26.8855 25.3203 26.6149 25.1347 26.1834C23.8743 26.2948 22.215 29.148 22.6758 30.4641C23.4367 29.5687 23.4398 29.5656 24.7574 30.3945C25.5352 30.8847 24.4682 31.1925 24.6476 31.6208C25.9683 31.3966 27.589 28.6021 27.125 27.317Z" fill="#030304"/>
<path id="Vector_5" d="M22.73 22.8771C21.7062 22.8153 21.7062 22.8153 21.7062 21.7358C21.7062 17.5047 21.7201 13.2736 21.6892 9.04398C21.6846 8.48416 21.881 8.21972 22.3356 7.95991C26.8358 5.38195 31.3268 2.78853 35.81 0.178093C36.2291 -0.0662483 36.5384 -0.0538767 36.9451 0.182733C41.4499 2.8009 45.9594 5.40824 50.4798 8.00012C50.905 8.24446 51.0489 8.51509 51.0458 9.00068C51.0257 13.255 51.0349 17.5093 51.0349 21.7637C51.0349 22.8184 51.0349 22.8184 49.9725 22.8771C48.873 22.8261 48.8761 22.8261 48.873 21.7111C48.8637 18.4975 48.8513 15.284 48.8405 12.072C48.8343 11.2693 48.8281 10.4652 48.8219 9.66257C48.7616 9.38421 48.4941 9.34864 48.3023 9.23575C47.2909 8.63881 46.2749 8.05115 45.2542 7.46659C42.6253 5.96188 39.9947 4.4618 37.3642 2.95864C36.7796 2.41119 36.2476 2.35706 35.496 2.81482C33.0387 4.31489 30.5087 5.69588 28.0282 7.15884C26.6332 7.98156 25.1672 8.6852 23.8604 9.65638C23.8527 13.6617 23.8434 17.6655 23.8372 21.6709C23.8388 22.8122 23.8403 22.8122 22.73 22.8771Z" fill="#040405"/>
<path id="Vector_6" d="M59.3394 39.3903C59.3797 39.3656 59.4214 39.3454 59.4585 39.3161C59.7446 39.0887 59.74 38.515 60.1436 38.5274C60.4544 38.5366 60.7591 38.8444 61.0653 39.0207C64.7629 41.1517 68.4559 43.2905 72.1612 45.4076C72.5354 45.621 72.6839 45.8437 72.6824 46.2844C72.6669 51.5548 72.67 56.8267 72.6839 62.0971C72.6854 62.496 72.5741 62.7203 72.2138 62.9275C67.6548 65.5457 63.1051 68.1809 58.56 70.8238C58.175 71.048 57.8904 71.0666 57.4852 70.8315C53.452 68.4793 49.4127 66.1411 45.3532 63.8368C44.7887 63.5167 44.6697 63.2569 45.081 62.7667C45.1382 62.6986 45.1553 62.595 45.1924 62.5084C45.8048 61.613 45.8048 61.613 46.7914 62.1821C49.6338 63.8229 52.47 65.4776 55.3233 67.1014C56.2202 67.6118 57.063 68.2272 58.0466 68.5814C59.5668 67.8112 61.0205 66.9251 62.4819 66.0498C65.0413 64.5807 67.5976 63.1084 70.1601 61.6455C70.4338 61.4893 70.5544 61.3084 70.5529 60.9774C70.5359 57.1731 70.5343 53.3673 70.5281 49.5629C70.4694 48.6645 70.723 47.7489 70.3982 46.8628C66.8568 44.8215 63.3154 42.7802 59.774 40.7404C59.5544 40.6136 59.3549 40.4295 59.0719 40.4527C58.8832 40.0259 59.4168 39.7862 59.3394 39.3903Z" fill="#020203"/>
<path id="Vector_7" d="M28.2648 53.6487C27.4822 54.1729 26.8389 54.8194 26.525 55.7271C26.4028 56.0782 26.1677 56.0952 25.8662 56.0937C24.7558 56.0859 23.647 56.1122 22.5366 56.0859C22.0758 56.0751 21.8701 56.1648 21.8717 56.6952C21.8794 58.2262 21.8547 58.2262 23.381 58.2262C23.7352 58.2262 24.0908 58.2494 24.4434 58.2216C25.5646 58.1365 26.6131 58.0948 27.0492 59.499C27.2147 60.0341 27.8116 60.3124 28.2678 60.6495C28.2632 60.9527 28.2416 61.2573 28.2601 61.5589C28.2849 61.9671 28.1055 62.1666 27.7065 62.1867C27.0492 61.4475 27.0461 61.4429 26.0827 61.9919C23.7321 63.3358 21.383 64.6827 19.0324 66.0282C18.9829 65.9261 18.8916 65.824 18.8916 65.7204C18.8839 61.9687 18.8854 58.2154 18.8808 54.4637C18.8808 54.1915 19.0092 54.0415 19.238 53.9116C21.8763 52.4084 24.5099 50.896 27.1436 49.3866C27.1637 49.8042 27.1807 50.2217 27.2054 50.6377C27.2673 51.6723 27.2688 51.6723 28.2787 51.7512C28.274 52.3852 28.2694 53.0162 28.2648 53.6487Z" fill="#005CFF"/>
<path id="Vector_8" d="M48.8405 12.0689C48.8513 15.2824 48.8637 18.496 48.873 21.708C48.8761 22.823 48.873 22.823 49.9725 22.874C49.9694 23.338 49.9725 23.8019 49.9617 24.2658C49.957 24.439 50.022 24.654 49.7606 24.7174C48.7864 24.1406 47.758 23.7988 46.6089 24.0014C46.2625 24.0632 46.162 23.8081 46.0368 23.5885C45.4862 22.6281 44.9279 21.6724 44.3975 20.6997C44.181 20.3038 43.983 20.245 43.5732 20.4832C42.2263 21.2672 42.2154 21.2487 42.9887 22.5786C43.1665 22.8833 43.3258 23.2019 43.5253 23.4926C44.1392 24.388 44.5954 25.22 43.6969 26.2793C43.1943 26.8716 43.2608 27.7454 43.3026 28.531C42.7644 28.7135 42.3716 29.1991 41.7762 29.264C41.5211 29.2656 41.4994 29.0274 41.4345 28.8805C41.2705 28.514 41.0432 28.5434 40.7633 28.7073C40.553 28.5557 40.6009 28.3299 40.6009 28.1227C40.5994 24.5287 40.6102 20.9332 40.587 17.3392C40.5839 16.8954 40.7989 16.6928 41.1128 16.5119C43.6861 15.0288 46.2641 13.5488 48.8405 12.0689Z" fill="#005CFF"/>
<path id="Vector_9" d="M22.7299 22.8771C23.8403 22.8122 23.8388 22.8122 23.8403 21.6678C23.848 17.6624 23.8558 13.6586 23.8635 9.65329C24.4357 9.96104 25.0063 10.2703 25.5785 10.5781C25.5291 10.6832 25.5028 10.807 25.4285 10.8905C24.9754 11.4039 25.2259 11.6637 25.7347 11.9096C26.1724 12.1215 26.5729 12.4106 26.9889 12.6658C26.9858 15.8856 26.9827 19.1053 26.9827 22.325C26.9827 22.5091 26.9441 22.7039 27.0833 22.8648C26.9874 23.0519 26.8729 23.2313 26.7987 23.4261C26.6131 23.921 26.293 24.0586 25.7641 23.9844C24.7357 23.8406 23.8187 24.2024 22.9743 24.7685C22.5506 24.5829 22.7671 24.2071 22.7377 23.9164C22.7052 23.573 22.7315 23.2235 22.7299 22.8771Z" fill="#005CFF"/>
<path id="Vector_10" d="M15.061 38.4949C14.9914 39.1908 15.0378 39.8774 15.1987 40.5579C11.9511 42.4384 8.70196 44.3189 5.35541 46.2566C7.22664 47.3453 8.99889 48.366 10.7619 49.4006C12.3841 50.3517 14.0636 51.2038 15.6162 52.2724C15.0657 52.8569 14.5414 52.8415 13.8362 52.4177C11.0712 50.7615 8.26277 49.1794 5.47294 47.5665C4.4832 46.9943 4.4863 46.9912 3.87699 47.8881C3.30016 47.5788 2.72487 47.268 2.14804 46.9587C2.74343 46.4097 3.49192 46.1051 4.17855 45.703C7.01322 44.0483 9.86181 42.4136 12.7058 40.7713C13.6924 40.2022 13.6924 40.2037 13.3367 39.2326C13.8579 38.8661 14.3342 38.3882 15.061 38.4949Z" fill="#005CFF"/>
<path id="Vector_11" d="M58.0451 68.5783C57.0615 68.2242 56.2187 67.6087 55.3217 67.0983C52.4685 65.4745 49.6323 63.8214 46.7899 62.179C45.8032 61.6099 45.8032 61.6099 45.1908 62.5053C44.3697 62.2641 44.3294 61.6362 44.4145 60.9449C45.6037 60.481 46.5053 59.7109 46.9538 58.4907C47.0481 58.2355 47.1935 58.1799 47.4239 58.186C47.8446 58.1969 48.2652 58.2015 48.6858 58.2092C48.6858 59.2222 48.7276 60.2367 48.6688 61.2465C48.6333 61.8604 48.8761 62.1867 49.3818 62.4651C50.6174 63.1456 51.8159 63.8956 53.0562 64.5668C54.3552 65.2704 55.5645 66.1333 56.9301 66.7163C57.2115 67.0767 57.6523 67.2004 58.0141 67.4416C58.0234 67.8221 58.0342 68.1994 58.0451 68.5783Z" fill="#005CFF"/>
<path id="Vector_12" d="M59.3394 39.3903C59.4168 39.7862 58.8832 40.0274 59.0688 40.4512C58.3574 40.5532 57.9028 41.2213 57.1837 41.3079C57.5626 40.4001 57.8595 39.4785 57.6383 38.4733C58.3188 38.5691 58.8941 38.8599 59.3394 39.3903Z" fill="#005CFF"/>
<path id="Vector_13" d="M27.1436 49.3882C24.5084 50.8975 21.8763 52.41 19.238 53.9132C19.0107 54.0431 18.8808 54.1931 18.8808 54.4652C18.8854 58.217 18.8839 61.9702 18.8916 65.722C18.8916 65.824 18.9829 65.9276 19.0324 66.0297C17.574 66.8895 16.1451 67.8004 14.6125 68.5288C14.6141 68.1205 14.6156 67.7123 14.6172 67.3025C14.6218 67.0581 14.628 66.8138 14.6327 66.5679C15.7477 66.5493 15.7477 66.5493 15.7477 65.4266C15.7477 62.0738 15.76 58.7211 15.7337 55.3699C15.7306 54.8689 15.91 54.6091 16.3214 54.3755C19.1901 52.7394 22.0464 51.0847 24.9074 49.4361C25.86 48.8871 25.86 48.8871 25.5198 47.8989C26.0131 47.5324 26.5312 47.2092 27.1095 46.9943C27.1219 47.7938 27.1327 48.5918 27.1436 49.3882Z" fill="#005CFF"/>
<path id="Vector_14" d="M14.6172 67.304C14.6156 67.7123 14.6141 68.1205 14.6126 68.5303C10.5856 66.2122 6.5601 63.8909 2.52847 61.5774C2.25938 61.4228 2.1202 61.2573 2.12175 60.9171C2.13876 56.2638 2.14185 51.612 2.14649 46.9587C2.72332 47.268 3.29861 47.5788 3.87544 47.8881C3.83832 47.9732 3.81822 48.0706 3.76255 48.1402C3.38521 48.615 3.41305 48.9413 4.02545 49.2119C4.5497 49.4439 5.02292 49.7903 5.51779 50.0856C5.26262 50.4042 5.41263 50.7692 5.39407 51.1156C4.93322 51.2501 4.46 51.1697 3.99142 51.1945C3.78884 51.2053 3.5414 51.1481 3.54914 51.4836C3.56151 52.0698 3.40995 52.7347 3.64038 53.2157C3.80585 53.5621 4.50794 53.2884 4.96724 53.341C5.10643 53.3564 5.24561 53.375 5.38479 53.392C5.38943 53.8188 5.39407 54.2472 5.39871 54.674C4.91776 54.841 4.4198 54.7204 3.93111 54.7544C3.7378 54.7683 3.54295 54.7513 3.54914 55.0328C3.56305 55.6189 3.40995 56.2823 3.64038 56.7648C3.80585 57.1112 4.50794 56.8375 4.96724 56.8901C5.10643 56.9056 5.24561 56.9241 5.38479 56.9411C5.38479 57.3865 5.38479 57.8319 5.38324 58.2757C4.91312 58.2866 4.44299 58.3082 3.97287 58.302C3.69605 58.2989 3.56615 58.3592 3.53831 58.684C3.43779 59.8361 3.47027 60.8877 4.8559 61.2867C5.04766 61.3424 5.20695 61.5125 5.3817 61.63C5.31365 62.0336 5.62759 62.1388 5.89048 62.2904C7.00858 62.9337 8.11121 63.6049 9.24322 64.2219C10.6613 64.9951 12.0037 65.9029 13.4713 66.588C13.8038 66.9096 14.2228 67.0859 14.6172 67.304Z" fill="#005CFF"/>
<path id="Vector_15" d="M56.9285 66.7179C55.5645 66.1349 54.3536 65.2719 53.0546 64.5683C51.8143 63.8971 50.6158 63.1471 49.3802 62.4667C48.8745 62.1883 48.6317 61.862 48.6673 61.248C48.7245 60.2382 48.6828 59.2237 48.6843 58.2108C49.4807 58.2 50.2787 58.1768 51.0751 58.1845C51.403 58.1876 51.5097 58.0855 51.5283 57.7468C51.6241 56.0457 51.6365 56.0488 49.957 56.0457C49.5349 56.0442 49.1142 56.0241 48.6936 56.0133C48.6936 54.04 48.6951 52.0667 48.6951 50.0934C51.2514 51.5532 53.8016 53.0239 56.3718 54.4606C56.8048 54.7018 56.944 54.9694 56.9424 55.4534C56.9239 59.2067 56.9347 62.96 56.9362 66.7133C56.9362 66.7102 56.9285 66.7179 56.9285 66.7179Z" fill="#005CFF"/>
<path id="Vector_16" d="M48.6951 50.0903C48.6951 52.0636 48.6936 54.0369 48.6936 56.0101C48.5297 56.0225 48.3642 56.0241 48.2018 56.0488C47.458 56.1571 46.9724 55.987 46.6553 55.1735C46.2718 54.19 45.3486 53.6734 44.399 53.2683C44.4006 52.6899 44.4021 52.1115 44.4037 51.5316C45.4584 51.4543 45.4383 51.4527 45.463 50.3315C45.4878 49.2165 45.3486 48.0969 45.545 46.9865C46.1017 47.3236 46.6569 47.6608 47.2121 47.9964C47.1579 48.1015 47.1208 48.2191 47.0466 48.3072C46.6708 48.7572 46.8332 49.017 47.311 49.2552C47.7935 49.498 48.2358 49.8104 48.6951 50.0903Z" fill="#005CFF"/>
<path id="Vector_17" d="M57.1852 41.3063C57.9043 41.2213 58.3574 40.5517 59.0704 40.4496C59.3534 40.4264 59.5529 40.6104 59.7725 40.7372C63.3139 42.777 66.8553 44.8184 70.3967 46.8597C69.9451 47.3855 69.3605 47.6871 68.6971 47.8525C68.2223 47.0546 68.2223 47.0546 67.429 47.5123C65.2887 48.7495 63.153 49.9944 61.005 51.2176C60.3122 51.612 59.6627 52.0883 58.9049 52.3651C58.826 52.1795 58.6621 52.0806 58.4997 51.9862C56.4986 50.8388 54.4959 49.6959 52.4963 48.5469C51.2468 47.8278 50.0019 47.0979 48.6797 46.3293C49.6153 45.7942 50.4674 45.3442 51.2808 44.8323C52.1283 44.2988 53.0995 43.9601 53.8155 43.224C54.4882 42.9672 54.8748 43.2162 55.1872 43.8549C55.6434 44.7843 56.2109 45.6596 56.7135 46.569C56.8682 46.8473 56.9826 46.9231 57.3074 46.7592C58.843 45.9767 58.8492 45.9906 57.9909 44.4967C57.6615 43.9245 57.3785 43.3198 56.9966 42.7848C56.5775 42.1956 56.6115 41.7347 57.1852 41.3063Z" fill="#005CFF"/>
<path id="Vector_18" d="M53.817 43.2255C53.0995 43.9616 52.1283 44.3003 51.2824 44.8338C50.4689 45.3457 49.6168 45.7957 48.6812 46.3308C50.0034 47.0994 51.2468 47.8293 52.4979 48.5484C54.4975 49.699 56.5017 50.8403 58.5013 51.9878C58.6636 52.0806 58.8276 52.1795 58.9064 52.3667C58.4023 52.8863 57.9229 52.9404 57.2502 52.5399C54.4387 50.862 51.587 49.249 48.7508 47.6113C47.8013 47.0638 47.8028 47.0623 47.2136 48.001C46.6569 47.6639 46.1017 47.3267 45.545 46.9911C46.6785 46.1839 47.9265 45.5684 49.1204 44.8617C50.1983 44.2245 50.2076 44.24 49.6539 43.1961C50.2756 43.1172 50.6669 42.5342 51.287 42.4523C52.0927 42.8342 52.9046 43.1961 53.817 43.2255Z" fill="#005CFF"/>
<path id="Vector_19" d="M53.4026 40.861C53.4258 40.9043 53.4474 40.9476 53.4706 40.9909C53.4149 40.9862 53.3577 40.9816 53.302 40.977C53.3345 40.9383 53.3685 40.8996 53.4026 40.861Z" fill="#F8F8F8"/>
<path id="Vector_20" d="M21.5562 42.2853C22 42.7105 22.5227 42.9951 23.115 43.1575C23.0516 43.2796 23.0068 43.4204 22.9202 43.5224C22.4856 44.0343 22.682 44.3049 23.2171 44.591C24.3723 45.2096 25.4935 45.8901 26.6255 46.5535C26.8142 46.6648 27.0925 46.6911 27.1111 46.9958C26.5327 47.2107 26.0147 47.534 25.5213 47.9005C25.4409 47.817 25.3234 47.7474 25.2863 47.6484C25.0574 47.0391 24.7527 47.0097 24.2084 47.3561C23.115 48.052 21.9722 48.6706 20.8448 49.3124C19.105 50.3037 17.3606 51.2857 15.6178 52.2723C14.0651 51.2037 12.3841 50.3516 10.7634 49.4005C9.00044 48.366 7.22819 47.3437 5.35696 46.2566C8.70506 44.3189 11.9526 42.4383 15.2002 40.5578C15.2899 40.7202 15.3471 40.9166 15.4755 41.0388C16.2827 41.8089 15.9688 42.5219 15.4477 43.2935C14.976 43.9941 14.6141 44.7673 14.1687 45.4864C13.9677 45.8112 14.0342 45.9504 14.345 46.139C15.7678 47.0051 15.7616 47.0143 16.592 45.5607C16.9879 44.8663 17.3869 44.1735 17.7782 43.476C17.9127 43.2363 18.0349 43.0755 18.3736 43.1312C19.552 43.3214 20.602 42.9719 21.5562 42.2853Z" fill="#005CFF"/>
<path id="Vector_21" d="M27.0848 22.8632C26.9456 22.7039 26.9843 22.5091 26.9843 22.3235C26.9858 19.1037 26.9874 15.884 26.9905 12.6643C29.5654 14.1349 32.1356 15.6165 34.7228 17.067C35.1744 17.3207 35.3275 17.6068 35.3244 18.1217C35.3012 21.5905 35.3213 25.0592 35.3012 28.5279C35.2981 29.046 35.3816 29.3491 35.9801 29.2393C36.093 29.2192 36.2136 29.2501 36.3311 29.2578C36.3265 29.4975 36.3234 29.7388 36.3188 29.9785C34.9718 29.213 33.631 28.4367 32.2763 27.6851C31.152 27.0619 30.1097 26.2855 28.8865 25.8448C28.3545 25.3716 28.2973 24.9154 28.7334 24.2875C29.3071 23.4617 29.737 22.5369 30.2582 21.6724C30.4499 21.3538 30.402 21.2085 30.0881 21.0136C28.6699 20.1337 28.6777 20.1244 27.8364 21.5905C27.5952 22.0204 27.3369 22.441 27.0848 22.8632Z" fill="#005CFF"/>
<path id="Vector_22" d="M28.888 25.8463C30.1112 26.2871 31.1536 27.0634 32.2778 27.6866C33.6325 28.4367 34.9733 29.2145 36.3203 29.98C36.3218 30.3914 36.3234 30.8028 36.3265 31.2141C35.0754 30.5043 33.8212 29.796 32.5717 29.0831C31.5819 28.5186 31.5835 28.5155 30.9649 29.4109C30.4453 29.1187 29.9257 28.8264 29.406 28.5341C29.4787 27.5907 29.3256 26.6907 28.888 25.8463Z" fill="#005CFF"/>
<path id="Vector_23" d="M37.3673 2.95554C39.9978 4.45716 42.6283 5.95878 45.2573 7.46349C46.2764 8.04651 47.294 8.63571 48.3054 9.23265C48.4972 9.34554 48.7647 9.38111 48.825 9.65947C48.2575 9.90536 47.7178 10.1992 47.2337 10.5873C46.8347 10.4435 46.9213 9.72751 46.4651 9.79247C46.0739 9.84814 45.7213 10.1775 45.3517 10.3879C45.1475 10.5054 44.9465 10.6291 44.7408 10.7466C42.2819 12.1477 39.823 13.5488 37.3642 14.9484C33.9558 12.9627 30.5489 10.9771 27.0632 8.945C28.1843 8.29549 29.2004 7.70628 30.2164 7.11553C32.5995 5.7299 34.9826 4.34272 37.3673 2.95554ZM43.2918 8.23208C43.2516 7.84237 42.9546 7.77433 42.7474 7.6537C40.7726 6.50004 38.7854 5.36648 36.8059 4.219C36.5198 4.05353 36.3033 4.01332 35.9754 4.20663C34.7677 4.91955 34.7522 4.90099 35.4636 6.08559C35.5888 6.29436 35.6445 6.71809 35.929 6.6253C36.6512 6.38715 37.0904 6.87738 37.6023 7.16193C39.0235 7.95372 40.4277 8.77644 41.8427 9.5806C41.9974 9.66875 42.2293 9.88525 42.3422 9.7337C42.7041 9.24502 42.9995 8.70685 43.2918 8.23208ZM34.4769 7.29492C34.4537 6.98872 33.5738 5.7067 33.3913 5.71289C33.0851 5.72371 31.7922 6.67788 31.8201 6.87119C31.8572 7.13564 32.748 8.47488 32.8763 8.45941C33.2475 8.41457 34.4924 7.50988 34.4769 7.29492ZM30.3231 7.54081C30.0834 7.52689 28.7117 8.3991 28.7086 8.56766C28.704 8.79345 29.6504 10.2162 29.8019 10.2116C30.0556 10.2038 31.3685 9.30224 31.3793 9.12903C31.3964 8.81355 30.5597 7.55473 30.3231 7.54081Z" fill="#005CFF"/>
<path id="Vector_24" d="M47.2322 10.5874C47.7162 10.1992 48.2559 9.90537 48.8235 9.65948C48.8297 10.4621 48.8358 11.2663 48.842 12.0689C46.2656 13.5488 43.6877 15.0288 41.1113 16.5119C40.7973 16.6928 40.5824 16.8969 40.5855 17.3392C40.6087 20.9332 40.5978 24.5288 40.5994 28.1227C40.5994 28.33 40.553 28.5558 40.7618 28.7073C39.2957 29.5656 37.8637 30.4826 36.3249 31.2141C36.3234 30.8028 36.3218 30.3914 36.3188 29.98C36.3234 29.7403 36.3265 29.4991 36.3311 29.2594C37.4554 29.2223 37.4554 29.2223 37.4554 28.0516C37.4554 24.7236 37.4631 21.3956 37.4461 18.0676C37.4446 17.6207 37.5482 17.3547 37.9673 17.115C40.8375 15.4835 43.6846 13.8133 46.544 12.1632C47.5492 11.5848 47.5554 11.5957 47.2322 10.5874Z" fill="#005CFF"/>
<path id="Vector_25" d="M37.3672 2.95555C34.9841 4.34273 32.5995 5.72991 30.2164 7.11555C29.2004 7.7063 28.1828 8.2955 27.0631 8.94502C30.5489 10.9771 33.9573 12.9627 37.3642 14.9484C36.7858 15.5051 36.2522 15.5484 35.5084 15.1C32.748 13.4344 29.9365 11.8555 27.1436 10.244C26.1863 9.69196 26.1863 9.69196 25.5801 10.5781C25.0079 10.2703 24.4372 9.96105 23.8651 9.6533C25.1703 8.68212 26.6379 7.97848 28.0328 7.15576C30.5133 5.6928 33.0433 4.31026 35.5007 2.81173C36.2507 2.35398 36.7811 2.40811 37.3672 2.95555Z" fill="#005CFF"/>
<path id="Vector_26" d="M70.5266 49.5599C70.5328 53.3642 70.5343 57.17 70.5513 60.9743C70.5529 61.3053 70.4307 61.4862 70.1585 61.6424C67.596 63.1053 65.0382 64.5776 62.4803 66.0467C62.1324 65.5936 62.3875 65.0725 62.3133 64.5884C64.4242 63.3512 66.5352 62.1141 68.6445 60.8753C69.0404 60.6434 69.3482 59.2206 69.0775 58.8649C69.0404 58.8155 68.9647 58.7675 68.9059 58.7675C68.3399 58.7613 67.7723 58.7397 67.2094 58.7737C66.8212 58.7984 67.1104 59.2376 66.8986 59.3923C66.8228 59.448 66.7486 59.5083 66.6681 59.5547C65.216 60.3805 63.7623 61.2047 62.3102 62.029C62.3102 59.6676 62.335 57.3046 62.2947 54.9446C62.2839 54.3292 62.5205 54.0168 63.02 53.7353C64.7428 52.7641 66.4315 51.7295 68.1636 50.7738C68.9353 50.3455 69.6374 49.7655 70.5266 49.5599ZM68.0553 51.6476C66.8646 51.6631 66.9898 51.5115 66.9836 52.4595C66.9744 53.7848 66.9805 53.791 67.9022 53.7833C69.26 53.7724 69.11 53.9394 69.1178 52.9729C69.127 51.6476 69.1193 51.6476 68.0553 51.6476ZM67.9935 57.3355C69.1348 57.3231 69.1162 57.3231 69.1286 55.8926C69.1394 54.5611 68.1481 55.2756 67.6594 55.2338C66.3511 55.1209 67.1352 56.1772 67.0176 56.6829C66.7826 57.6742 67.6285 57.2288 67.9935 57.3355Z" fill="#005CFF"/>
<path id="Vector_27" d="M70.5266 49.5598C69.6374 49.7655 68.9353 50.347 68.1605 50.7738C66.4284 51.7295 64.7397 52.7626 63.0169 53.7353C62.5174 54.0168 62.2824 54.3291 62.2917 54.9446C62.3319 57.3061 62.3071 59.6675 62.3071 62.029C61.9901 62.2269 61.67 62.4187 61.3607 62.6275C61.2586 62.6955 61.0174 62.7496 61.1117 62.895C61.489 63.4749 61.605 64.2435 62.3102 64.5899C62.386 65.074 62.1308 65.5951 62.4772 66.0483C61.0158 66.922 59.5621 67.8081 58.042 68.5798C58.0311 68.2009 58.0203 67.8236 58.0095 67.4447C58.0064 67.1973 58.127 66.9297 57.8997 66.7163C57.9817 66.6777 58.0713 66.5942 58.144 66.6081C58.9683 66.7519 59.0843 66.3467 59.075 65.6199C59.0363 62.2223 59.0626 58.8247 59.0487 55.4271C59.0472 55.0065 59.1539 54.7513 59.5467 54.5286C62.4339 52.8832 65.3026 51.2053 68.1806 49.5428C69.2925 48.901 69.2956 48.9057 68.6956 47.8572C69.359 47.6917 69.942 47.3901 70.3951 46.8643C70.7214 47.7458 70.4678 48.6598 70.5266 49.5598Z" fill="#005CFF"/>
<path id="Vector_28" d="M27.1096 46.9958C27.091 46.6911 26.8126 46.6649 26.624 46.5535C25.4935 45.8901 24.3708 45.2096 23.2156 44.591C22.6789 44.305 22.4841 44.0343 22.9186 43.5224C23.0052 43.4188 23.0501 43.2796 23.1135 43.1575C23.6238 42.3533 23.6238 42.3533 24.4976 42.8559C25.9064 43.6663 27.3029 44.4998 28.7318 45.2746C29.2189 45.539 29.3705 45.8468 29.355 46.3865C29.3148 47.8031 29.3411 49.2212 29.3411 50.6377C29.3411 51.6971 29.3411 51.6971 28.2771 51.7527C27.2673 51.6739 27.2658 51.6739 27.2039 50.6393C27.1792 50.2217 27.1621 49.8057 27.142 49.3882C27.1328 48.5918 27.1219 47.7938 27.1096 46.9958Z" fill="#060606"/>
<path id="Vector_29" d="M36.3265 31.2141C37.8637 30.4826 39.2957 29.5656 40.7633 28.7073C41.0447 28.5434 41.2705 28.5155 41.4345 28.8805C41.4994 29.0259 41.5226 29.264 41.7762 29.264C41.7716 29.3104 41.7608 29.3584 41.7639 29.4047C41.784 29.7728 42.3391 30.0357 42.0933 30.3852C41.8969 30.6651 41.4731 30.7888 41.1468 30.9775C39.721 31.8033 38.2859 32.6137 36.8739 33.4611C36.4966 33.6869 36.2198 33.6684 35.8533 33.4503C34.296 32.524 32.7387 31.5961 31.1427 30.7378C30.5674 30.4285 30.4561 30.161 30.8566 29.6661C30.9123 29.5965 30.9293 29.496 30.9649 29.4109C31.5835 28.5155 31.5819 28.5186 32.5717 29.0831C33.8212 29.796 35.0738 30.5043 36.3265 31.2141Z" fill="#030304"/>
<path id="Vector_30" d="M25.5801 10.5781C26.1863 9.69039 26.1863 9.69039 27.1436 10.244C29.9365 11.8554 32.748 13.4344 35.5084 15.0999C36.2522 15.5484 36.7858 15.5051 37.3641 14.9484C39.823 13.5473 42.2819 12.1477 44.7408 10.7466C44.9465 10.6291 45.146 10.5054 45.3517 10.3878C45.7197 10.1775 46.0738 9.84658 46.4651 9.79245C46.9213 9.7275 46.8347 10.4451 47.2337 10.5873C47.5569 11.5956 47.5507 11.5848 46.5486 12.1616C43.6892 13.8117 40.8406 15.4819 37.9719 17.1134C37.5528 17.3516 37.4492 17.6191 37.4508 18.066C37.4678 21.394 37.46 24.722 37.46 28.05C37.46 29.2207 37.46 29.2207 36.3358 29.2578C36.2182 29.2501 36.0961 29.2192 35.9847 29.2393C35.3862 29.3475 35.3027 29.046 35.3058 28.5279C35.3259 25.0592 35.3043 21.5904 35.329 18.1217C35.3321 17.6067 35.179 17.3207 34.7274 17.067C32.1402 15.618 29.57 14.1349 26.9951 12.6642C26.5791 12.4091 26.1786 12.1199 25.7409 11.908C25.2321 11.6621 24.9816 11.4023 25.4347 10.8889C25.5028 10.8085 25.5306 10.6832 25.5801 10.5781Z" fill="#020203"/>
<path id="Vector_31" d="M15.6162 52.2724C17.3591 51.2857 19.1035 50.3022 20.8433 49.3124C21.9706 48.6706 23.1135 48.0521 24.2068 47.3561C24.7512 47.0097 25.0558 47.0391 25.2847 47.6484C25.3218 47.7474 25.4394 47.817 25.5198 47.9005C25.86 48.8902 25.8585 48.8887 24.9074 49.4377C22.0464 51.0862 19.1901 52.7409 16.3214 54.3771C15.91 54.6122 15.7307 54.872 15.7337 55.3715C15.7585 58.7242 15.7477 62.0754 15.7477 65.4281C15.7477 66.5509 15.7477 66.5509 14.6327 66.5694C14.3141 66.5679 13.9955 66.5679 13.6769 66.5663C13.6537 66.2864 13.612 66.0065 13.612 65.7266C13.6074 62.2594 13.6074 58.7923 13.612 55.3251C13.612 54.9895 13.6151 54.7158 13.2424 54.507C10.6582 53.0502 8.09111 51.5641 5.51779 50.0887C5.02292 49.7934 4.5497 49.447 4.02545 49.215C3.41305 48.9444 3.38521 48.6181 3.76255 48.1433C3.81822 48.0737 3.83833 47.9763 3.87544 47.8912C4.48475 46.9943 4.48321 46.9974 5.4714 47.5695C8.26122 49.1825 11.0696 50.7646 13.8347 52.4208C14.5414 52.8415 15.0657 52.8569 15.6162 52.2724Z" fill="#020203"/>
<path id="Vector_32" d="M57.9028 66.7148C58.1301 66.9297 58.0095 67.1957 58.0126 67.4432C57.6522 67.2019 57.21 67.0782 56.9285 66.7179L56.9362 66.7102C57.2579 66.7117 57.5811 66.7132 57.9028 66.7148Z" fill="#005CFF"/>
<path id="Vector_33" d="M13.677 66.5663C13.9955 66.5679 14.3141 66.5679 14.6327 66.5694C14.628 66.8138 14.6218 67.0581 14.6172 67.304C14.2229 67.0859 13.8038 66.9097 13.4744 66.5895C13.5424 66.5818 13.6089 66.5741 13.677 66.5663Z" fill="#005CFF"/>
<path id="Vector_34" d="M13.6769 66.5663C13.6089 66.5741 13.5424 66.5818 13.4744 66.588C12.0068 65.9044 10.6644 64.9951 9.24632 64.2219C8.11431 63.6049 7.01168 62.9337 5.89358 62.2904C5.63068 62.1388 5.31675 62.0336 5.3848 61.63C6.92662 62.496 8.47309 63.3543 10.0087 64.2296C11.3634 65.0029 11.3402 65.0013 12.1212 63.6435C12.3609 63.226 12.2743 63.0667 11.883 62.8471C10.0706 61.8311 8.27978 60.781 6.4766 59.7495C6.02503 59.4913 5.51779 59.2948 5.67399 58.6082C5.72038 58.4072 5.56264 58.3206 5.38789 58.2757C5.38789 57.8303 5.38789 57.385 5.38944 56.9411C5.55645 56.8947 5.68481 56.8205 5.68326 56.6148C5.67862 56.0813 5.67708 55.5462 5.68481 55.0127C5.6879 54.807 5.56728 54.7281 5.40335 54.674C5.39871 54.2472 5.39407 53.8188 5.38944 53.392C5.558 53.3456 5.68481 53.2698 5.68326 53.0641C5.67862 52.5275 5.67708 51.9909 5.68481 51.4543C5.6879 51.247 5.56419 51.1697 5.39871 51.1171C5.41727 50.7707 5.26726 50.4042 5.52243 50.0872C8.09575 51.5625 10.6629 53.0487 13.247 54.5054C13.6182 54.7142 13.6166 54.9879 13.6166 55.3235C13.612 58.7907 13.612 62.2579 13.6166 65.7251C13.612 66.0065 13.6538 66.2864 13.6769 66.5663Z" fill="#005CFF"/>
<path id="Vector_35" d="M5.38634 58.2773C5.56109 58.3206 5.71883 58.4072 5.67243 58.6098C5.51624 59.2979 6.02348 59.4928 6.47505 59.751C8.27823 60.7825 10.0706 61.8341 11.8815 62.8486C12.2727 63.0682 12.3594 63.2275 12.1196 63.645C11.3387 65.0028 11.3619 65.0044 10.0072 64.2312C8.47154 63.3559 6.92507 62.4976 5.38324 61.6316C5.20849 61.514 5.05075 61.3424 4.85745 61.2882C3.47181 60.8892 3.43779 59.8376 3.53986 58.6855C3.56769 58.3608 3.6976 58.3005 3.97441 58.3036C4.44454 58.3097 4.91621 58.2881 5.38634 58.2773Z" fill="#FDFDFD"/>
<path id="Vector_36" d="M5.39561 51.1187C5.56108 51.1713 5.6848 51.2501 5.68171 51.4558C5.67552 51.9924 5.67552 52.529 5.68016 53.0657C5.68171 53.2729 5.5549 53.3487 5.38633 53.3935C5.24715 53.3765 5.10797 53.3595 4.96879 53.3425C4.50949 53.2899 3.80739 53.5636 3.64192 53.2172C3.41149 52.7363 3.56459 52.0713 3.55068 51.4852C3.54294 51.1496 3.79038 51.2068 3.99297 51.196C4.46 51.1713 4.93322 51.2532 5.39561 51.1187Z" fill="#F8F8F8"/>
<path id="Vector_37" d="M5.40025 54.6755C5.56418 54.7297 5.6848 54.8085 5.68171 55.0142C5.67397 55.5477 5.67552 56.0828 5.68016 56.6164C5.68171 56.822 5.55335 56.8963 5.38633 56.9427C5.24715 56.9256 5.10797 56.9086 4.96879 56.8916C4.50949 56.839 3.80739 57.1128 3.64192 56.7664C3.41149 56.2854 3.56459 55.6204 3.55068 55.0343C3.54449 54.7529 3.73935 54.7683 3.93265 54.756C4.42134 54.7219 4.9193 54.8426 5.40025 54.6755Z" fill="#F8F8F8"/>
<path id="Vector_38" d="M49.6555 43.1946C50.2091 44.2369 50.1998 44.223 49.1219 44.8601C47.9281 45.5653 46.6801 46.1824 45.5465 46.9896C45.3486 48.1 45.4893 49.2196 45.4645 50.3346C45.4398 51.4558 45.4599 51.4558 44.4052 51.5347C43.3273 51.4404 43.3273 51.4404 43.3258 50.3532C43.3242 49.0109 43.3428 47.667 43.3134 46.3262C43.3041 45.8947 43.4356 45.6519 43.8145 45.4401C45.3115 44.6034 46.7899 43.7343 48.276 42.8776C49.1374 42.3765 49.1374 42.3765 49.6555 43.1946Z" fill="#060606"/>
<path id="Vector_39" d="M57.9028 66.7148C57.5811 66.7132 57.2579 66.7117 56.9362 66.7117C56.9347 62.9584 56.9239 59.2051 56.9424 55.4519C56.9455 54.9678 56.8048 54.7003 56.3718 54.459C53.8016 53.0224 51.2514 51.5517 48.6951 50.0918C48.2358 49.8119 47.7935 49.4995 47.3141 49.2598C46.8378 49.0217 46.6754 48.7619 47.0497 48.3118C47.1239 48.2237 47.161 48.1046 47.2152 48.001C47.8028 47.0623 47.8028 47.0638 48.7523 47.6113C51.5886 49.249 54.4402 50.862 57.2517 52.5399C57.9244 52.942 58.4038 52.8863 58.908 52.3667C59.6658 52.0899 60.3153 51.6135 61.0081 51.2192C63.1561 49.9959 65.2918 48.751 67.4321 47.5139C68.2239 47.0561 68.2239 47.0546 68.7002 47.8541C69.3002 48.9026 69.2971 48.898 68.1852 49.5397C65.3073 51.2022 62.4386 52.8801 59.5513 54.5255C59.1585 54.7498 59.0518 55.0034 59.0534 55.424C59.0673 58.8216 59.041 62.2192 59.0796 65.6168C59.0874 66.3452 58.9729 66.7504 58.1487 66.605C58.0744 66.5926 57.9848 66.6761 57.9028 66.7148Z" fill="#020203"/>
<path id="Vector_40" d="M43.2918 8.23208C42.9979 8.70685 42.7041 9.24502 42.3407 9.73215C42.2278 9.88371 41.9958 9.6672 41.8412 9.57905C40.4262 8.77644 39.022 7.95217 37.6008 7.16038C37.0889 6.87583 36.6512 6.3856 35.9275 6.62376C35.643 6.71655 35.5873 6.29436 35.462 6.08404C34.7506 4.89945 34.7661 4.91801 35.9739 4.20509C36.3002 4.01178 36.5182 4.05199 36.8043 4.21746C38.7838 5.36494 40.7695 6.49849 42.7459 7.65216C42.9546 7.77433 43.2531 7.84237 43.2918 8.23208Z" fill="#FDFDFD"/>
<path id="Vector_41" d="M34.4769 7.29492C34.4939 7.50988 33.249 8.41456 32.8763 8.45941C32.748 8.47487 31.8572 7.13563 31.8201 6.87119C31.7922 6.67633 33.0851 5.72371 33.3913 5.71289C33.5722 5.7067 34.4537 6.98872 34.4769 7.29492Z" fill="#FDFDFD"/>
<path id="Vector_42" d="M30.3231 7.54081C30.5597 7.55473 31.3963 8.81356 31.3778 9.12904C31.367 9.30379 30.0556 10.2054 29.8004 10.2116C29.6488 10.2162 28.7009 8.79191 28.707 8.56767C28.7117 8.40065 30.0834 7.52844 30.3231 7.54081Z" fill="#FDFDFD"/>
<path id="Vector_43" d="M62.3118 64.5884C61.605 64.2436 61.4906 63.4734 61.1133 62.8935C61.0189 62.7481 61.2602 62.6955 61.3622 62.626C61.6715 62.4172 61.9932 62.2254 62.3087 62.0275C63.7623 61.2032 65.2145 60.3789 66.6666 59.5531C66.7486 59.5067 66.8213 59.4464 66.897 59.3907C67.1089 59.2361 66.8182 58.7954 67.2079 58.7722C67.7708 58.7381 68.3383 58.7598 68.9043 58.766C68.9631 58.766 69.0389 58.8139 69.076 58.8634C69.3466 59.2191 69.0373 60.6418 68.643 60.8738C66.5336 62.1141 64.4227 63.3512 62.3118 64.5884Z" fill="#FDFDFD"/>
<path id="Vector_44" d="M68.0553 51.6476C69.1193 51.6476 69.127 51.6476 69.1162 52.9714C69.1085 53.9379 69.2585 53.7709 67.9007 53.7817C66.979 53.7894 66.9743 53.7833 66.9821 52.4579C66.9898 51.5115 66.8646 51.6631 68.0553 51.6476Z" fill="#F8F8F8"/>
<path id="Vector_45" d="M67.9935 57.3355C67.6285 57.2288 66.7826 57.6741 67.0161 56.6829C67.1352 56.1787 66.3511 55.1209 67.6579 55.2338C68.1466 55.2756 69.1394 54.5611 69.127 55.8926C69.1147 57.3215 69.1332 57.3216 67.9935 57.3355Z" fill="#F8F8F8"/>
</g>
</svg>
