<svg width="37" height="37" viewBox="0 0 37 37" fill="none" xmlns="http://www.w3.org/2000/svg">
<path id="Vector" d="M34.965 25.4478C32.4367 25.4478 29.9906 25.0367 27.7089 24.2967C26.9894 24.05 26.1878 24.235 25.6328 24.79L22.4056 28.8394C16.5883 26.0644 11.1411 20.8228 8.24278 14.8L12.2511 11.3878C12.8061 10.8122 12.9706 10.0106 12.7444 9.29111C11.9839 7.00944 11.5933 4.56333 11.5933 2.035C11.5933 0.925 10.6683 0 9.55833 0H2.44611C1.33611 0 0 0.493333 0 2.035C0 21.1311 15.8894 37 34.965 37C36.4244 37 37 35.705 37 34.5744V27.4828C37 26.3728 36.075 25.4478 34.965 25.4478Z" fill="white"/>
</svg>
