<svg width="39" height="40" viewBox="0 0 39 40" fill="none" xmlns="http://www.w3.org/2000/svg">
<path id="Vector" d="M19.0476 15.2381H22.8571V9.52381H28.5714V5.71429H22.8571V0H19.0476V5.71429H13.3333V9.52381H19.0476V15.2381ZM11.4286 32.381C9.33333 32.381 7.6381 34.0952 7.6381 36.1905C7.6381 38.2857 9.33333 40 11.4286 40C13.5238 40 15.2381 38.2857 15.2381 36.1905C15.2381 34.0952 13.5238 32.381 11.4286 32.381ZM30.4762 32.381C28.381 32.381 26.6857 34.0952 26.6857 36.1905C26.6857 38.2857 28.381 40 30.4762 40C32.5714 40 34.2857 38.2857 34.2857 36.1905C34.2857 34.0952 32.5714 32.381 30.4762 32.381ZM11.7524 26.1905L11.8095 25.9619L13.5238 22.8571H27.7143C29.1429 22.8571 30.4 22.0762 31.0476 20.8952L38.4 7.54286L35.0857 5.71429H35.0667L32.9714 9.52381L27.7143 19.0476H14.3429L14.0952 18.5333L9.82857 9.52381L8.01905 5.71429L6.22857 1.90476H0V5.71429H3.80952L10.6667 20.1714L8.09524 24.8381C7.79048 25.3714 7.61905 26 7.61905 26.6667C7.61905 28.7619 9.33333 30.4762 11.4286 30.4762H34.2857V26.6667H12.2286C11.981 26.6667 11.7524 26.4571 11.7524 26.1905Z" fill="black"/>
</svg>
