<svg width="64" height="64" viewBox="0 0 64 64" fill="none" xmlns="http://www.w3.org/2000/svg">
<g id="Group">
<path id="Vector" d="M34.0744 63.7337C32.5421 63.7337 31.0097 63.7337 29.476 63.7337C29.4261 63.6131 29.3179 63.6228 29.2167 63.6145C23.8751 63.1804 18.9758 61.4678 14.469 58.5738C4.02836 51.8662 -1.64609 39.0931 0.421504 26.8623C1.62656 19.7304 4.76193 13.5678 10.1313 8.71707C19.2018 0.522947 29.8088 -2.0619 41.4212 1.6767C53.8282 5.67045 61.0572 14.5357 63.3231 27.4003C63.4423 28.0784 63.3758 28.7843 63.6503 29.436C63.6503 31.0516 63.6503 32.6671 63.6503 34.2826C63.4728 34.3644 63.538 34.5308 63.5255 34.6626C63.3203 36.9978 62.9306 39.3067 62.1471 41.5144C57.7845 53.8173 49.1882 61.1475 36.3042 63.4065C35.5637 63.5368 34.7969 63.4827 34.0744 63.7337ZM5.29166 31.903C5.33326 46.5634 17.1939 58.4129 31.8168 58.4018C46.4647 58.3893 58.3323 46.5204 58.3184 31.8947C58.3045 17.287 46.3538 5.33209 31.8043 5.37369C17.1689 5.41668 5.25006 17.3425 5.29166 31.903Z" fill="#030303"/>
<path id="Vector_2" d="M2.92176 31.9072C2.87738 16.0445 15.8598 3.05371 31.8029 3.00795C47.6518 2.96357 60.6703 15.9849 60.6855 31.8975C60.7008 47.8295 47.7738 60.7592 31.8168 60.7717C15.8876 60.7856 2.96613 47.8766 2.92176 31.9072ZM41.2063 30.2126C41.7513 29.8285 42.1825 29.5137 42.5611 29.1365C45.0974 26.6099 45.1626 21.8299 41.6223 19.729C39.8168 18.6571 37.8754 18.0913 35.8203 17.8639C35.267 17.8029 35.1047 17.6184 35.1158 17.0762C35.1477 15.4524 35.1158 13.8285 35.1338 12.2047C35.138 11.7942 35.0077 11.6472 34.5916 11.6597C33.7582 11.6846 32.9206 11.7027 32.0886 11.6541C31.5117 11.6209 31.3661 11.8261 31.3772 12.3794C31.4105 13.9797 31.3772 15.5827 31.3966 17.183C31.4022 17.5935 31.2802 17.7488 30.8614 17.7196C30.3899 17.6878 29.9115 17.6794 29.4414 17.721C28.9546 17.764 28.8395 17.5824 28.8465 17.1164C28.8742 15.4926 28.8451 13.8687 28.8659 12.2449C28.8714 11.8205 28.7771 11.6389 28.3112 11.6555C27.4334 11.6888 26.5514 11.6902 25.6737 11.6555C25.1717 11.6361 25.0788 11.8483 25.0843 12.292C25.1051 13.8937 25.0704 15.4954 25.1051 17.0956C25.1162 17.6198 24.9442 17.728 24.4547 17.7224C22.3344 17.6961 20.2141 17.7238 18.0938 17.7016C17.6529 17.6975 17.5017 17.8195 17.5156 18.2674C17.5447 19.2131 17.5364 20.1617 17.5184 21.1088C17.5114 21.486 17.6404 21.6274 18.0259 21.6191C18.8593 21.6011 19.6955 21.6011 20.5289 21.6302C21.8865 21.6773 22.2249 22.0434 22.2263 23.4121C22.2277 27.2686 22.2277 31.1264 22.2277 34.9829C22.2277 36.5388 22.2346 38.0961 22.2249 39.652C22.2152 41.0512 21.7326 41.5282 20.3556 41.5324C19.7011 41.5352 19.0465 41.5518 18.3934 41.5254C18.0065 41.5102 17.8872 41.6461 17.8969 42.0274C17.9191 42.9746 17.9372 43.9231 17.8914 44.8688C17.865 45.4027 18.0647 45.5012 18.5487 45.4956C20.5553 45.4707 22.5632 45.5012 24.5712 45.4748C25.069 45.4679 25.2285 45.5927 25.2188 46.1099C25.1855 47.7782 25.2202 49.4478 25.1966 51.1174C25.1897 51.5611 25.3214 51.704 25.7666 51.6887C26.6679 51.6582 27.5707 51.6582 28.4721 51.6887C28.8978 51.704 29.0087 51.557 29.0004 51.1493C28.9768 49.886 28.9782 48.6227 28.9976 47.3608C29.0073 46.7603 28.7341 45.9796 29.1183 45.6052C29.4996 45.2335 30.2789 45.5442 30.8794 45.4818C31.3828 45.4291 31.5436 45.6052 31.5353 46.1183C31.5048 47.7643 31.545 49.4117 31.5117 51.0578C31.502 51.5792 31.674 51.7137 32.169 51.6915C33.0247 51.654 33.8844 51.6554 34.74 51.6915C35.2004 51.7109 35.3169 51.5431 35.3127 51.1132C35.2947 49.4894 35.328 47.8655 35.2933 46.2417C35.2808 45.669 35.4084 45.4512 36.0324 45.4734C37.5925 45.5275 39.1345 45.3486 40.6461 44.9257C45.1002 43.6804 47.6213 38.7243 45.9613 34.3894C45.1432 32.2414 43.5637 30.8907 41.2063 30.2126Z" fill="white"/>
<path id="Vector_3" d="M41.2063 30.2126C43.5651 30.8921 45.1432 32.2428 45.9641 34.3866C47.6226 38.7215 45.1016 43.6762 40.6488 44.9229C39.1373 45.3459 37.5953 45.5247 36.0352 45.4707C35.4112 45.4485 35.2836 45.6676 35.2961 46.2389C35.3308 47.8628 35.2975 49.4866 35.3155 51.1104C35.3197 51.5403 35.2032 51.7081 34.7428 51.6887C33.8872 51.6527 33.0274 51.6513 32.1718 51.6887C31.6768 51.7109 31.5048 51.5764 31.5145 51.055C31.5464 49.4089 31.5076 47.7615 31.5381 46.1155C31.5478 45.6024 31.3855 45.4263 30.8822 45.479C30.2831 45.5414 29.5038 45.2321 29.121 45.6024C28.7369 45.9754 29.0101 46.7561 29.0004 47.358C28.981 48.6213 28.9796 49.8846 29.0032 51.1465C29.0101 51.5542 28.9005 51.7012 28.4748 51.6859C27.5735 51.6554 26.6707 51.6554 25.7693 51.6859C25.3242 51.7012 25.1938 51.5584 25.1994 51.1146C25.223 49.4464 25.1883 47.7768 25.2216 46.1072C25.2313 45.5899 25.0718 45.4651 24.574 45.472C22.5674 45.4998 20.5594 45.4693 18.5515 45.4929C18.0675 45.4984 17.8678 45.3999 17.8942 44.8661C17.9399 43.9203 17.9219 42.9718 17.8997 42.0247C17.89 41.6433 18.0093 41.5074 18.3962 41.5227C19.0493 41.549 19.7038 41.531 20.3584 41.5296C21.7354 41.5241 22.2179 41.0484 22.2277 39.6492C22.2387 38.0933 22.2304 36.536 22.2304 34.9801C22.2304 31.1237 22.2318 27.2658 22.229 23.4094C22.2277 22.0393 21.8893 21.6746 20.5317 21.6274C19.6983 21.5983 18.8621 21.5983 18.0287 21.6163C17.6432 21.6246 17.5142 21.4832 17.5211 21.106C17.5392 20.1589 17.5475 19.2104 17.5184 18.2646C17.5045 17.8167 17.6556 17.6947 18.0966 17.6988C20.2169 17.721 22.3372 17.6933 24.4575 17.7196C24.9484 17.7252 25.119 17.617 25.1079 17.0929C25.0718 15.4926 25.1079 13.8895 25.0871 12.2893C25.0815 11.8455 25.1744 11.632 25.6764 11.6528C26.5542 11.6874 27.4362 11.686 28.314 11.6528C28.7785 11.6347 28.8742 11.8178 28.8687 12.2421C28.8479 13.866 28.877 15.4898 28.8492 17.1137C28.8409 17.5796 28.9574 17.7612 29.4441 17.7183C29.9142 17.6767 30.3927 17.685 30.8641 17.7169C31.2829 17.746 31.405 17.5893 31.3994 17.1802C31.38 15.5786 31.4133 13.9769 31.38 12.3766C31.3689 11.8233 31.5145 11.6181 32.0914 11.6514C32.9234 11.6985 33.7596 11.6805 34.5944 11.6569C35.009 11.6444 35.1408 11.7928 35.1366 12.2019C35.1186 13.8257 35.1505 15.4496 35.1186 17.0734C35.1075 17.6156 35.2697 17.8001 35.823 17.8611C37.8768 18.0885 39.8196 18.6543 41.6251 19.7262C45.164 21.8285 45.1002 26.6085 42.5639 29.1337C42.1812 29.5137 41.7499 29.8285 41.2063 30.2126ZM28.8603 37.1087C28.8603 37.8063 28.8465 38.5052 28.8645 39.2027C28.8797 39.8281 28.5969 40.6463 28.974 41.0276C29.3831 41.4422 30.2124 41.158 30.8558 41.1552C32.4284 41.1496 34.012 41.2814 35.561 40.8792C37.2749 40.4341 38.5008 39.4842 38.9265 37.6718C39.3412 35.9037 38.7879 34.6792 37.1765 33.8832C36.5039 33.5504 35.7898 33.3549 35.0493 33.2606C33.1189 33.0152 31.1789 33.1927 29.2445 33.133C28.877 33.1219 28.8562 33.3161 28.8576 33.5948C28.8659 34.7666 28.8603 35.937 28.8603 37.1087ZM28.8603 25.5796C28.8603 26.6168 28.8756 27.6555 28.8534 28.6928C28.8451 29.0824 28.9227 29.2544 29.3665 29.2447C30.7865 29.2169 32.2093 29.2544 33.6293 29.228C35.3252 29.1975 36.8437 27.7623 37.0988 25.9956C37.3623 24.1637 36.5386 22.9101 34.6929 22.3055C32.8915 21.7148 31.0305 21.9283 29.189 21.8826C28.7813 21.8729 28.8631 22.1682 28.8631 22.3998C28.8576 23.4593 28.8603 24.5187 28.8603 25.5796Z" fill="#005CFF"/>
<path id="Vector_4" d="M28.8603 37.1087C28.8603 35.937 28.8645 34.7666 28.8576 33.5948C28.8562 33.3147 28.877 33.1219 29.2445 33.133C31.1789 33.1927 33.1189 33.0152 35.0493 33.2606C35.7898 33.3549 36.5025 33.5504 37.1765 33.8832C38.7892 34.6792 39.3412 35.9037 38.9265 37.6718C38.5022 39.4842 37.2763 40.4341 35.561 40.8792C34.012 41.2814 32.4284 41.1496 30.8558 41.1552C30.2124 41.158 29.3845 41.4409 28.974 41.0276C28.5969 40.6463 28.8797 39.8281 28.8645 39.2027C28.8465 38.5052 28.8603 37.8077 28.8603 37.1087Z" fill="white"/>
<path id="Vector_5" d="M28.8603 25.5796C28.8603 24.5201 28.8576 23.4593 28.8631 22.3998C28.8645 22.1682 28.7827 21.8715 29.189 21.8826C31.0305 21.9283 32.8901 21.7148 34.6929 22.3055C36.5372 22.9101 37.3623 24.1637 37.0988 25.9956C36.8437 27.7623 35.3266 29.1975 33.6293 29.228C32.2093 29.2544 30.7865 29.2155 29.3665 29.2447C28.9227 29.253 28.8451 29.0824 28.8534 28.6928C28.8756 27.6541 28.8603 26.6168 28.8603 25.5796Z" fill="white"/>
</g>
</svg>
