<svg width="76" height="71" viewBox="0 0 76 71" fill="none" xmlns="http://www.w3.org/2000/svg">
<g id="digital_marketing">
<path id="Vector" d="M75.0272 8.20029C74.6833 8.72079 74.1769 9.0334 73.6423 9.32882C71.1915 10.6793 68.7515 12.0501 66.3006 13.4006C65.3831 13.9055 64.5015 13.6898 64.0951 12.8989C63.7403 12.2064 63.9279 11.3968 64.6406 10.9919C67.3713 9.44449 70.1129 7.91581 72.8702 6.41527C73.7439 5.94009 74.4708 6.28709 75.0257 7.32184C75.0272 7.61414 75.0272 7.90643 75.0272 8.20029Z" fill="#030303"/>
<path id="Vector_2" d="M4.72423e-06 45.1371C0.151622 41.8438 1.82098 38.813 5.20971 36.8247C9.09706 34.5442 13.0094 32.3075 16.9202 30.0676C17.3766 29.8066 17.7377 29.4815 18.0597 29.0719C24.3479 21.0409 30.6486 13.0177 36.9384 4.98819C38.8969 2.48884 42.5998 2.74362 44.2598 5.54464C45.9604 8.416 47.6173 11.3139 49.2601 14.2197C49.5289 14.6933 49.8134 14.8496 50.3448 14.8058C51.9016 14.6776 53.4647 14.6151 55.0215 14.501C55.8203 14.4432 56.3658 14.7464 56.7581 15.4451C57.6303 16.9957 58.5197 18.5353 59.4309 20.0624C59.8577 20.7799 59.8201 21.416 59.3512 22.0991C58.4431 23.4261 57.5896 24.7923 56.6799 26.1193C56.4502 26.4554 56.458 26.6742 56.6596 27.0196C58.2102 29.669 59.7701 32.3122 61.2566 34.9975C62.804 37.7938 61.2379 40.9606 58.1039 41.528C56.2095 41.8719 54.3228 42.2533 52.4331 42.6222C45.0914 44.0555 37.7496 45.4919 30.4048 46.919C29.8687 47.0238 29.5623 47.1035 30.0015 47.7365C30.5408 48.5149 30.9737 49.3684 31.4364 50.1968C31.985 51.18 31.7944 51.9115 30.8315 52.482C29.7842 53.1025 28.737 53.7277 27.6647 54.3045C27.2536 54.5265 27.2474 54.689 27.4709 55.0689C28.8667 57.4416 30.2688 59.8112 31.6005 62.2199C33.545 65.7368 31.6709 69.9336 27.7929 70.848C25.3108 71.4326 22.7645 70.3025 21.3906 67.9501C19.2289 64.2472 17.0984 60.5271 14.9523 56.8164C14.6725 56.3334 14.4834 55.6785 14.0614 55.4299C13.6174 55.1689 13.0235 55.6441 12.4889 55.7722C6.19444 57.2618 -0.00624754 52.2913 4.72423e-06 45.1371ZM53.6507 39.3788C47.9924 29.5784 42.3701 19.8405 36.7368 10.0838C36.6367 10.1791 36.5773 10.2229 36.5336 10.2792C31.2301 17.0363 25.9297 23.7966 20.6137 30.5428C20.3386 30.8929 20.4121 31.1086 20.5997 31.4337C23.0099 35.5852 25.4108 39.7414 27.7992 43.9054C28.0117 44.2759 28.1915 44.3853 28.6463 44.2946C34.8126 43.0676 40.9868 41.8735 47.1562 40.6668C49.3007 40.2479 51.4421 39.8165 53.6507 39.3788ZM10.2522 53.0556C11.4745 53.0806 12.6327 52.8087 13.6878 52.2053C17.4329 50.0639 21.1624 47.8991 24.9059 45.7561C25.2263 45.5732 25.3076 45.4294 25.1091 45.0871C22.8208 41.1451 20.545 37.1983 18.2738 33.2469C18.0956 32.9374 17.9581 32.8374 17.6064 33.0421C13.8582 35.2257 10.074 37.3484 6.35231 39.5773C3.55129 41.256 2.32585 44.6323 3.22149 47.7818C4.10931 50.8986 6.96816 53.0447 10.2522 53.0556ZM57.0473 38.7036C58.8198 38.5988 59.37 37.5672 58.4837 36.0291C52.9552 26.446 47.4235 16.8628 41.8933 7.27965C41.7964 7.11083 41.7011 6.93733 41.5823 6.78572C41.0962 6.16205 40.2552 6.01981 39.6206 6.4434C38.8266 6.97328 38.6703 7.561 39.122 8.34409C43.0438 15.1403 46.967 21.9381 50.8903 28.7343C52.7176 31.9011 54.5464 35.0663 56.3783 38.2299C56.5283 38.491 56.619 38.8614 57.0473 38.7036ZM26.5534 68.0236C28.823 68.0079 30.1719 65.643 29.0199 63.622C26.6925 59.5361 24.3213 55.4753 21.9814 51.3957C21.797 51.0752 21.6672 51.0002 21.3202 51.2081C19.9182 52.0443 18.5052 52.8634 17.0749 53.648C16.6467 53.8825 16.7639 54.0888 16.939 54.3921C19.2961 58.4607 21.6407 62.5388 24.0056 66.6027C24.562 67.5593 25.4327 68.0345 26.5534 68.0236ZM54.7574 23.7137C55.3498 22.8197 55.8765 22.0053 56.4267 21.2066C56.5721 20.9971 56.4971 20.8518 56.397 20.6798C55.8343 19.7107 55.2732 18.7416 54.7136 17.771C54.6261 17.6193 54.5479 17.463 54.3385 17.4771C53.3475 17.5412 52.3565 17.6084 51.278 17.6803C52.455 19.7185 53.5726 21.6567 54.7574 23.7137ZM28.2087 50.4953C28.1884 50.4516 28.1727 50.4062 28.1493 50.3656C27.7382 49.6497 27.3287 48.9323 26.9145 48.2179C26.7769 47.9804 26.6175 48.1413 26.4909 48.2242C25.7859 48.6869 24.9841 48.9901 24.3416 49.5528C24.7277 50.2499 25.1154 50.9486 25.503 51.6457C25.5265 51.6879 25.5577 51.727 25.5765 51.7708C25.6765 52.0162 25.8156 52.0084 26.0251 51.8818C26.6706 51.4941 27.3287 51.1268 27.9789 50.7485C28.0805 50.6907 28.204 50.6454 28.2087 50.4953Z" fill="#020303"/>
<path id="Vector_3" d="M58.9855 0.000406818C60.0827 -0.0214761 60.8361 0.8429 60.6048 1.76198C60.1234 3.67361 59.6044 5.57743 59.0683 7.47343C58.8292 8.31749 58.1102 8.7192 57.3349 8.53319C56.5127 8.33468 56.0485 7.63912 56.2689 6.74504C56.7409 4.83028 57.2552 2.92647 57.7882 1.02891C57.9679 0.380232 58.4759 0.051988 58.9855 0.000406818Z" fill="#040404"/>
<path id="Vector_4" d="M66.1037 20.0326C66.249 20.0654 66.5335 20.1248 66.8149 20.1983C68.4858 20.6407 70.1583 21.0752 71.8229 21.5363C72.803 21.8067 73.2547 22.5413 73.0109 23.387C72.7639 24.2388 72.0246 24.6093 71.0352 24.3483C69.2236 23.8715 67.4088 23.3963 65.6066 22.8868C64.7923 22.657 64.364 21.9552 64.5031 21.2284C64.6375 20.5219 65.2299 20.0342 66.1037 20.0326Z" fill="#040404"/>
<path id="Vector_5" d="M53.6507 39.3788C51.4421 39.8165 49.3007 40.2479 47.1562 40.6668C40.9852 41.8735 34.8126 43.0677 28.6463 44.2947C28.1915 44.3853 28.0117 44.2775 27.7992 43.9055C25.4108 39.7415 23.0099 35.5853 20.5997 31.4338C20.4105 31.1086 20.3371 30.8929 20.6137 30.5428C25.9313 23.7966 31.2301 17.0364 36.5336 10.2792C36.5773 10.2229 36.6383 10.1776 36.7368 10.0838C42.3716 19.8405 47.9924 29.5784 53.6507 39.3788Z" fill="#005CFF"/>
<path id="Vector_6" d="M10.2522 53.0556C6.96816 53.0447 4.10931 50.8986 3.22305 47.7818C2.32741 44.6307 3.55285 41.256 6.35387 39.5773C10.074 37.3484 13.8582 35.2257 17.608 33.0421C17.9596 32.8374 18.0972 32.9374 18.2754 33.2469C20.545 37.1983 22.8223 41.1466 25.1107 45.0871C25.3092 45.4294 25.2279 45.5732 24.9075 45.7561C21.1639 47.8991 17.4345 50.0639 13.6893 52.2053C12.6311 52.8087 11.4729 53.0807 10.2522 53.0556ZM10.2115 50.1311C10.9931 50.1655 11.7136 49.9639 12.3857 49.5903C13.2157 49.1277 14.0426 48.6603 14.857 48.1711C15.6932 47.6693 15.9464 46.8659 15.5353 46.1234C15.1133 45.3607 14.2505 45.1606 13.3814 45.6436C12.6577 46.0453 11.9481 46.4736 11.2275 46.8815C10.249 47.4349 9.66288 47.3145 8.95013 46.4267C8.36866 45.7014 7.58713 45.5451 6.89469 46.0187C6.20538 46.4876 6.0647 47.3676 6.58833 48.1507C7.44645 49.4356 8.66877 50.0858 10.2115 50.1311ZM20.7997 43.8726C20.7904 43.052 20.1167 42.4205 19.282 42.4471C18.4833 42.4737 17.8674 43.1145 17.8784 43.9117C17.8877 44.6932 18.5395 45.3435 19.3211 45.356C20.1245 45.3685 20.8107 44.6823 20.7997 43.8726Z" fill="#0043A5"/>
<path id="Vector_7" d="M57.0473 38.7035C56.619 38.8614 56.5283 38.491 56.3767 38.2284C54.5448 35.0647 52.716 31.8995 50.8888 28.7327C46.9655 21.9365 43.0437 15.1387 39.1204 8.34252C38.6687 7.55942 38.825 6.9717 39.6191 6.44183C40.2537 6.01823 41.0946 6.16204 41.5807 6.78414C41.6995 6.93732 41.7948 7.11082 41.8918 7.27807C47.4235 16.8612 52.9536 26.4444 58.4822 36.0276C59.37 37.5672 58.8198 38.5988 57.0473 38.7035Z" fill="#0043A5"/>
<path id="Vector_8" d="M26.5534 68.0235C25.4327 68.036 24.5621 67.5592 24.004 66.6011C21.6391 62.5371 19.2945 58.4591 16.9374 54.3904C16.7608 54.0872 16.6451 53.8808 17.0734 53.6464C18.5052 52.8617 19.9182 52.0442 21.3187 51.2064C21.6657 50.9985 21.797 51.0736 21.9799 51.394C24.3213 55.472 26.691 59.5345 29.0184 63.6203C30.1719 65.6429 28.823 68.0078 26.5534 68.0235Z" fill="#005CFF"/>
<path id="Vector_9" d="M54.7574 23.7138C53.571 21.6568 52.4534 19.7186 51.278 17.6803C52.3581 17.6084 53.3475 17.5412 54.3385 17.4771C54.5464 17.4631 54.6261 17.6209 54.7136 17.771C55.2732 18.7417 55.8343 19.7108 56.397 20.6799C56.4971 20.8518 56.5721 20.9956 56.4267 21.2066C55.8765 22.0053 55.3498 22.8197 54.7574 23.7138Z" fill="#005CFF"/>
<path id="Vector_10" d="M28.2071 50.4937C28.204 50.6453 28.0805 50.6891 27.9789 50.7485C27.3271 51.1268 26.6706 51.4941 26.0251 51.8817C25.8156 52.0083 25.6765 52.0162 25.5765 51.7708C25.5577 51.727 25.5265 51.6879 25.503 51.6457C25.1154 50.9486 24.7293 50.2515 24.3416 49.5528C24.9841 48.9901 25.7859 48.6868 26.4909 48.2242C26.6175 48.1413 26.7753 47.9788 26.9145 48.2179C27.3287 48.9322 27.7382 49.6497 28.1493 50.3656C28.1712 50.4062 28.1884 50.4515 28.2071 50.4937Z" fill="#0043A5"/>
<path id="Vector_11" d="M10.2115 50.1312C8.66877 50.0858 7.44802 49.4356 6.58677 48.1492C6.06314 47.3661 6.20538 46.4861 6.89313 46.0172C7.58713 45.5451 8.3671 45.6999 8.94856 46.4251C9.66132 47.3129 10.249 47.4349 11.226 46.88C11.9465 46.472 12.6562 46.0437 13.3799 45.642C14.2489 45.159 15.1102 45.3591 15.5338 46.1219C15.9448 46.8643 15.6932 47.6678 14.8554 48.1695C14.041 48.6588 13.2142 49.1277 12.3842 49.5888C11.7136 49.9639 10.9915 50.1655 10.2115 50.1312Z" fill="#010202"/>
<path id="Vector_12" d="M20.7998 43.8726C20.8091 44.6807 20.1245 45.3684 19.3211 45.3559C18.538 45.3434 17.8878 44.6932 17.8784 43.9117C17.8674 43.1161 18.4833 42.4736 19.282 42.4471C20.1167 42.4205 20.7904 43.0535 20.7998 43.8726Z" fill="#010405"/>
</g>
</svg>
