<svg width="71" height="71" viewBox="0 0 71 71" fill="none" xmlns="http://www.w3.org/2000/svg">
<g id="Frame" clip-path="url(#clip0_1_420)">
<g id="Group">
<path id="Vector" d="M0 70.1441C0 59.4227 0 48.7055 0 37.9841C0.488475 37.2159 1.2191 37.0615 2.07915 37.0698C4.71357 37.1032 7.348 37.0782 9.97825 37.0823C11.3643 37.0865 12.7546 37.0531 14.1324 37.1324C15.5853 37.2159 16.5831 38.3181 16.6415 39.7669C16.6666 40.3681 16.7042 40.9734 16.6374 41.5663C16.5622 42.2176 16.8294 42.3053 17.4056 42.3011C20.6412 42.2719 23.8726 42.2886 27.1083 42.2886C29.559 42.2844 31.659 43.1319 33.3875 44.8854C34.0513 45.5576 34.736 46.2131 35.4082 46.8769C35.475 46.9437 35.5418 47.0105 35.6086 47.0773C36.8861 48.3757 38.1762 49.6616 39.4329 50.9809C39.7543 51.3191 39.9798 51.3149 40.3639 51.0936C42.9273 49.5906 45.5033 48.1127 48.0751 46.6222C48.2004 46.5512 48.3715 46.5262 48.4383 46.3007C45.3822 46.3007 42.3637 46.3007 39.3452 46.3007C37.0907 46.3007 36.0386 45.2528 36.0386 43.0108C36.0386 30.5902 36.0386 18.1696 36.0386 5.74897C36.0386 5.4943 36.0261 5.2438 36.0177 4.98912C36.0261 4.48395 36.072 3.9746 36.0344 3.4736C35.905 1.74932 36.6022 0.571975 38.2597 0C48.4258 0 58.5919 0 68.758 0C70.4239 0.57615 71 1.76602 70.9958 3.49447C70.9583 16.6332 70.9499 29.7719 71 42.9106C71.0084 45.0148 69.7851 46.3717 67.5556 46.3258C63.2846 46.2339 59.0136 46.3049 54.7384 46.2924C54.3543 46.2924 54.0286 46.3801 53.6988 46.5721C50.2503 48.5719 46.7976 50.5592 43.3448 52.5507C43.182 52.6467 43.0234 52.7511 42.7102 52.9515C44.5138 52.9515 46.1254 52.9431 47.7328 52.9515C51.628 52.9724 53.8783 56.4418 52.3211 60.0114C51.2815 61.8192 49.7075 62.6625 47.6367 62.6542C44.4011 62.6417 41.1697 62.6375 37.934 62.6542C36.1722 62.6625 34.5648 62.1991 33.0994 61.2347C31.8051 60.3872 30.5067 59.548 29.2166 58.7005C29.0455 58.5877 28.8743 58.4625 28.7282 58.3205C28.2146 57.8195 28.1395 57.1223 28.5194 56.5629C28.8785 56.0326 29.5423 55.8322 30.1727 56.0827C30.4065 56.1746 30.6278 56.3082 30.8365 56.446C32.1141 57.2726 33.3958 58.0951 34.665 58.9384C35.5752 59.5396 36.5605 59.8778 37.6543 59.8778C41.0486 59.8778 44.447 59.882 47.8413 59.8736C49.1523 59.8695 50.0541 59.0219 50.0666 57.8237C50.0791 56.5921 49.1731 55.732 47.8246 55.7237C46.2757 55.7153 44.7268 55.6861 43.182 55.732C41.2156 55.7863 39.604 55.1058 38.2305 53.6946C36.0094 51.4067 33.7298 49.1773 31.492 46.9061C30.2562 45.6494 28.7699 45.0566 27.0206 45.0608C23.785 45.0649 20.5535 45.0775 17.3179 45.0482C16.7543 45.0441 16.6415 45.2152 16.6457 45.7454C16.6624 51.1729 16.6624 56.6046 16.6457 62.0321C16.6457 62.4538 16.7668 62.6959 17.13 62.9089C18.8 63.8942 20.4533 64.9045 22.1066 65.9065C24.5699 67.4012 27.2335 68.1902 30.1184 68.1944C36.9571 68.2069 43.7957 68.2069 50.6344 68.1944C53.5652 68.1902 56.3207 67.468 58.7547 65.8314C61.8442 63.7564 64.6248 61.2764 67.4805 58.8967C68.6662 57.9114 68.3781 56.1078 67.0463 55.302C66.0693 54.7092 65.0256 54.7885 64.0152 55.5442C61.5937 57.3561 59.1848 59.1848 56.7591 60.9925C55.6026 61.8568 54.5046 61.41 54.3042 60.0198C54.3543 59.4687 54.6716 59.0929 55.0933 58.7798C57.5482 56.9344 59.9864 55.0724 62.458 53.2521C63.8733 52.2083 65.4598 51.8576 67.1715 52.3712C69.1755 52.9724 70.4573 54.3042 70.8581 56.3666C71.2505 58.3915 70.5157 60.0406 68.9501 61.3265C66.6664 63.2011 64.3743 65.0673 62.0655 66.9127C58.7214 69.5805 54.9012 70.9583 50.6219 70.9666C43.8083 70.9875 36.9947 70.975 30.1769 70.9708C27.8932 70.9708 25.6846 70.5491 23.5553 69.7141C21.3301 68.8415 19.3929 67.4471 17.3388 66.2656C17.1384 66.1487 16.9714 65.894 16.6582 66.0234C16.6582 66.6288 16.6582 67.23 16.6582 67.827C16.6499 69.902 15.5769 70.9708 13.4936 70.9708C9.77367 70.975 6.05375 70.9541 2.338 70.9833C1.42367 70.9958 0.597025 70.929 0 70.1441ZM68.2028 23.2213C68.2028 16.6374 68.1944 10.0534 68.2195 3.46942C68.2195 2.89327 68.09 2.75967 67.5097 2.75967C58.1744 2.78055 48.8433 2.78055 39.508 2.75967C38.9319 2.75967 38.7983 2.89327 38.7983 3.46942C38.815 16.5914 38.815 29.7135 38.7983 42.8355C38.7983 43.4116 38.9277 43.5452 39.508 43.5452C48.8433 43.5244 58.1744 43.5244 67.5097 43.5452C68.0859 43.5452 68.2195 43.4116 68.2195 42.8355C68.1944 36.2974 68.2028 29.7594 68.2028 23.2213ZM2.7722 53.9911C2.7722 58.5209 2.77637 63.0466 2.76385 67.5765C2.76385 68.0191 2.81395 68.2195 3.34 68.2153C6.66747 68.1902 9.99495 68.1944 13.3182 68.2111C13.7775 68.2153 13.8902 68.0817 13.8902 67.6308C13.8777 58.5752 13.8777 49.5196 13.8902 40.4641C13.8902 39.9756 13.7524 39.8462 13.2723 39.8504C9.99077 39.8712 6.7134 39.8754 3.43185 39.8462C2.86405 39.842 2.75967 40.0215 2.75967 40.5434C2.78055 45.0274 2.7722 49.5113 2.7722 53.9911Z" fill="#020101"/>
<path id="Vector_2" d="M2.7722 53.9911C2.7722 49.5113 2.78055 45.0274 2.75967 40.5476C2.7555 40.0257 2.86405 39.842 3.43185 39.8504C6.7134 39.8796 9.99077 39.8754 13.2723 39.8545C13.7524 39.8504 13.8944 39.984 13.8902 40.4683C13.8777 49.5238 13.8777 58.5794 13.8902 67.635C13.8902 68.0817 13.7775 68.2153 13.3182 68.2153C9.99077 68.1944 6.6633 68.1902 3.34 68.2195C2.80977 68.2236 2.75967 68.0232 2.76385 67.5807C2.78055 63.0467 2.7722 58.521 2.7722 53.9911ZM9.71522 55.1768C9.71522 54.371 9.71522 53.5611 9.71522 52.7553C9.71522 52.7094 9.71522 52.6634 9.71522 52.6175C9.68182 51.6948 9.15577 51.1229 8.34164 51.1229C7.53587 51.1187 6.9639 51.6865 6.95137 52.6092C6.92632 54.3376 6.92215 56.0702 6.95137 57.7987C6.96807 58.688 7.58597 59.2933 8.36252 59.2766C9.14742 59.2599 9.69434 58.6504 9.71104 57.7402C9.72357 56.8844 9.71522 56.0285 9.71522 55.1768ZM8.36669 64.0445C9.09732 64.0278 9.71522 63.389 9.70687 62.6542C9.69852 61.9194 9.06809 61.289 8.33747 61.289C7.60267 61.2848 6.92215 61.9904 6.95137 62.721C6.9806 63.4391 7.64442 64.0612 8.36669 64.0445Z" fill="#005CFF"/>
<path id="Vector_3" d="M35.4123 46.8768C35.6545 46.7683 35.5877 46.9687 35.6127 47.0772C35.5459 47.0104 35.4791 46.9436 35.4123 46.8768Z" fill="#FEFEFE"/>
<path id="Vector_4" d="M32.4523 6.93052C32.7946 7.99932 32.6193 8.48779 31.6423 9.05142C27.7763 11.2892 23.9144 13.5312 20.0358 15.7398C19.5473 16.0195 19.539 16.2074 19.802 16.6624C23.6681 23.3383 27.5216 30.0183 31.3751 36.6982C31.9429 37.6835 31.9053 38.0969 31.1789 38.9235C30.1059 39.3201 29.5799 39.1364 28.9995 38.1344C25.0709 31.3334 21.1422 24.5323 17.2177 17.7229C16.2533 16.0445 16.6582 14.5165 18.3282 13.5479C22.2945 11.2475 26.2649 8.95539 30.2353 6.6675C31.1956 6.11222 31.6882 6.17902 32.4523 6.93052Z" fill="#030303"/>
<path id="Vector_5" d="M43.253 15.8233C43.2363 10.187 47.8455 5.56113 53.4901 5.54861C59.1305 5.53608 63.7564 10.1453 63.7647 15.7857C63.7731 21.4261 59.1681 26.052 53.5276 26.0645C47.8914 26.0729 43.2697 21.4679 43.253 15.8233ZM49.3359 14.9507C49.3359 14.8839 49.3276 14.696 49.3359 14.5123C49.4946 11.2642 52.9891 9.41466 55.7487 11.1181C57.5983 12.2578 58.2955 14.9632 57.2768 17.1593C57.1014 17.5392 57.1265 17.6979 57.5022 17.8983C58.2203 18.2782 58.8591 18.7875 59.3643 19.4263C59.6941 19.8396 59.8361 19.8354 60.0824 19.3511C61.41 16.7167 61.3766 14.1074 59.715 11.6775C57.9698 9.12658 55.4815 7.94506 52.367 8.42936C47.2067 9.23096 44.4053 14.9966 46.9812 19.4263C47.1733 19.7561 47.2735 19.8981 47.5741 19.514C48.121 18.8209 48.8141 18.2782 49.5906 17.8482C49.8495 17.7062 49.9747 17.5893 49.791 17.2678C49.3986 16.5957 49.29 15.8442 49.3359 14.9507ZM53.394 23.284C54.7927 23.2923 56.2414 22.8623 57.3519 22.2068C57.7277 21.9856 57.7694 21.8394 57.5022 21.4887C55.5483 18.9504 51.4401 18.9545 49.5029 21.4971C49.2232 21.8645 49.3151 21.9981 49.6699 22.211C50.8515 22.9166 52.1207 23.2422 53.394 23.284ZM54.9221 15.0509C55.0306 13.6231 53.9744 13.0093 52.9974 13.3559C52.271 13.6147 52.0747 14.2535 52.0873 14.9841C52.104 15.911 52.367 16.4287 53.0016 16.6833C53.774 16.9965 55.0223 16.5414 54.9221 15.0509Z" fill="#020202"/>
<path id="Vector_6" d="M54.0704 32.16C51.532 32.16 48.9936 32.16 46.4552 32.16C46.1546 32.16 45.854 32.1683 45.5659 32.0556C44.9856 31.8343 44.6641 31.396 44.6558 30.7948C44.6474 30.1643 44.9772 29.7093 45.5868 29.4796C45.8749 29.3711 46.1755 29.3836 46.4761 29.3836C51.5278 29.3836 56.5796 29.3836 61.6355 29.3878C61.886 29.3878 62.1448 29.3878 62.3912 29.4421C63.0383 29.5882 63.4892 30.1518 63.4808 30.7781C63.4767 31.4085 63.0216 31.9638 62.3703 32.1015C62.124 32.1516 61.8651 32.1516 61.6146 32.1516C59.1013 32.16 56.5837 32.16 54.0704 32.16Z" fill="#010101"/>
<path id="Vector_7" d="M51.1521 38.2597C49.4904 38.2597 47.8288 38.2764 46.1671 38.2556C45.0357 38.2389 44.3552 37.2953 44.7643 36.3518C45.0107 35.784 45.4741 35.5001 46.0711 35.4959C49.4612 35.4834 52.8555 35.4792 56.2456 35.4959C57.114 35.5001 57.6734 36.0762 57.6818 36.8611C57.6901 37.6711 57.1181 38.243 56.2038 38.2556C54.5213 38.2764 52.8346 38.2597 51.1521 38.2597Z" fill="#010101"/>
<path id="Vector_8" d="M63.4808 36.8486C63.4975 37.5583 62.8629 38.2221 62.1448 38.2514C61.41 38.2806 60.717 37.6001 60.7253 36.8653C60.7337 36.1513 61.385 35.5042 62.0947 35.4959C62.8087 35.4917 63.4641 36.1346 63.4808 36.8486Z" fill="#030303"/>
<path id="Vector_9" d="M9.71522 55.1767C9.71522 56.0284 9.72774 56.8843 9.71104 57.736C9.69434 58.6462 9.14742 59.2557 8.36252 59.2724C7.58597 59.2891 6.9639 58.6837 6.95137 57.7945C6.92215 56.066 6.92632 54.3334 6.95137 52.605C6.9639 51.6865 7.53587 51.1187 8.34165 51.1187C9.15994 51.1228 9.68182 51.6906 9.71522 52.6133C9.71522 52.6592 9.71522 52.7051 9.71522 52.7511C9.71522 53.561 9.71522 54.371 9.71522 55.1767Z" fill="#030101"/>
<path id="Vector_10" d="M8.36669 64.0444C7.64442 64.0611 6.98059 63.4391 6.95137 62.721C6.91797 61.9903 7.60267 61.2889 8.33747 61.2889C9.06392 61.2889 9.69852 61.9235 9.70687 62.6542C9.71522 63.3848 9.09732 64.0236 8.36669 64.0444Z" fill="#070303"/>
<path id="Vector_11" d="M53.394 23.2839C52.1207 23.2422 50.8515 22.9124 49.6741 22.211C49.3151 21.998 49.2274 21.8644 49.5071 21.497C51.4443 18.9545 55.5525 18.9461 57.5064 21.4887C57.7736 21.8394 57.7319 21.9855 57.3561 22.2068C56.2456 22.8623 54.7968 23.2923 53.394 23.2839Z" fill="#005CFF"/>
</g>
</g>
<defs>
<clipPath id="clip0_1_420">
<rect width="71" height="70.9875" fill="white"/>
</clipPath>
</defs>
</svg>
