<svg width="71" height="71" viewBox="0 0 71 71" fill="none" xmlns="http://www.w3.org/2000/svg">
<g id="Group">
<path id="Vector" d="M70.9966 44.2401C70.5085 45.0092 69.7807 45.1734 68.9214 45.1616C66.5652 45.1305 64.2075 45.1542 61.8513 45.1497C60.452 45.1468 59.9846 44.6794 59.9817 43.2816C59.9772 40.8322 59.9758 38.3828 59.9817 35.9334C59.9846 34.586 60.4668 34.1215 61.832 34.1186C62.4326 34.1171 63.036 34.0905 63.6336 34.1274C64.0374 34.1526 64.0788 33.9884 64.0448 33.6512C62.8763 22.2813 57.1655 14.1241 46.8029 9.25781C45.1063 8.46058 43.3107 7.95916 41.4929 7.52579C41.1305 7.44 40.9959 7.51247 41.0196 7.91035C41.0506 8.43987 41.0492 8.97383 41.0211 9.50335C40.9708 10.4692 40.4694 11.0194 39.5065 11.0298C36.85 11.0608 34.1921 11.0594 31.5341 11.0313C30.5298 11.0209 30.0254 10.4751 29.9825 9.46933C29.9603 8.93833 29.9589 8.40585 29.984 7.87485C30.0018 7.51543 29.876 7.44148 29.5462 7.51691C27.2462 8.03755 25.0187 8.77415 22.9124 9.8391C16.5256 13.0724 11.9286 17.9949 9.11386 24.5724C7.86846 27.4804 7.20286 30.5332 6.95141 33.6837C6.91887 34.089 7.0727 34.1334 7.40254 34.123C8.07257 34.1038 8.74261 34.1082 9.41264 34.1201C10.4406 34.1363 10.9997 34.62 11.0101 35.6213C11.0382 38.3015 11.0367 40.9816 11.0101 43.6617C11.0012 44.5995 10.482 45.1261 9.53393 45.1364C6.85379 45.1675 4.17366 45.1689 1.49352 45.1349C0.520275 45.1231 0.0159004 44.5596 0.00998394 43.5878C-0.00332798 40.9535 -0.00332798 38.3192 0.00998394 35.6849C0.0159004 34.6821 0.56021 34.1452 1.55417 34.1215C2.24639 34.1038 2.94157 34.0934 3.63379 34.1274C4.04202 34.1482 4.17514 34.0476 4.20176 33.6127C4.39109 30.4622 5.02118 27.3961 6.15714 24.4482C8.86094 17.4299 13.4624 12.0163 19.9734 8.24019C20.7189 7.80681 21.4969 7.42816 22.2838 7.01106C22.0886 6.85871 21.9022 6.92527 21.7336 6.92379C18.3834 6.91935 15.0318 6.93414 11.6816 6.90604C11.121 6.9016 10.9775 7.07022 11.013 7.59678C11.0559 8.24019 11.0456 8.891 11.016 9.53736C10.9716 10.484 10.4953 11.015 9.55168 11.0268C6.87154 11.0608 4.19141 11.0608 1.51127 11.0283C0.508442 11.0165 0.0159004 10.447 0.0114631 9.42643C0.00110936 6.81582 -0.000369708 4.20372 0.0129422 1.5931C0.0173795 0.556254 0.564647 0.0178603 1.61037 0.013423C4.22099 0.00159017 6.83309 0.00159017 9.4437 0.013423C10.4584 0.0178603 10.9775 0.526672 11.0189 1.53986C11.047 2.23208 11.0397 2.92578 11.0204 3.61948C11.0101 3.98038 11.0781 4.15491 11.5056 4.15343C17.5137 4.14012 23.5218 4.1416 29.5299 4.15195C29.9086 4.15195 29.9988 4.02327 29.9884 3.6742C29.9663 2.98198 29.9633 2.2868 29.987 1.59458C30.0225 0.553295 30.5609 0.0163812 31.5933 0.0119439C34.2039 0.000111029 36.816 0.000111029 39.4266 0.0119439C40.4546 0.0163812 40.9915 0.557733 41.0255 1.60198C41.0477 2.2942 41.0477 2.98938 41.0225 3.6816C41.0107 4.04102 41.1202 4.15343 41.4885 4.15195C47.4966 4.1416 53.5047 4.1416 59.5128 4.15047C59.8722 4.15047 60.0039 4.04546 59.9906 3.68012C59.9684 3.01008 59.9728 2.34005 59.9876 1.67002C60.0127 0.523713 60.5156 0.0134229 61.6427 0.0104647C64.2075 0.0030692 66.7722 0.0222976 69.337 0.000111041C70.1165 -0.00728447 70.6224 0.355096 71.001 0.979277C71.001 4.02919 71.001 7.08058 71.001 10.1305C70.6283 10.6097 70.2274 11.0357 69.5515 11.0357C66.8506 11.0342 64.1498 11.0579 61.449 11.0239C60.5097 11.012 60.0349 10.4766 59.992 9.52997C59.9625 8.86141 59.9536 8.1899 59.995 7.52283C60.0246 7.0436 59.8841 6.90456 59.393 6.90752C55.9763 6.92971 52.5595 6.91935 49.1428 6.91935C49.0156 6.91935 48.8899 6.93119 48.5822 6.9445C48.8263 7.08057 48.9136 7.1353 49.0053 7.17968C53.5831 9.37171 57.4169 12.4778 60.4742 16.5291C64.0847 21.3169 66.1954 26.6905 66.7146 32.6735C66.8403 34.1127 66.8181 34.1141 68.2306 34.1141C68.485 34.1141 68.7409 34.1363 68.9924 34.1097C69.868 34.0195 70.5617 34.2857 71.001 35.0844C70.9966 38.1388 70.9966 41.1887 70.9966 44.2401ZM34.8014 2.80301C34.2941 2.79561 33.7868 2.81336 33.2824 2.77343C32.8638 2.74089 32.7248 2.86365 32.7396 3.30295C32.7736 4.3398 32.7514 5.37813 32.7514 6.41498C32.7514 8.41916 32.7514 8.41916 34.7985 8.22688C35.8131 8.24167 36.8263 8.25055 37.841 8.27717C38.1901 8.28604 38.2611 8.11447 38.2581 7.80829C38.2477 6.28482 38.2433 4.75986 38.2611 3.23639C38.2655 2.8607 38.1279 2.76603 37.7789 2.77491C36.7864 2.80005 35.7939 2.79561 34.8014 2.80301ZM64.7059 42.3246C65.7591 42.4533 66.8166 42.3424 67.8712 42.3838C68.2114 42.3971 68.2277 42.2004 68.2277 41.9445C68.2232 40.4048 68.2188 38.8635 68.2306 37.3238C68.2336 37.0073 68.1567 36.8741 67.8121 36.8845C66.7782 36.9111 65.7443 36.9082 64.7104 36.9156C64.2489 36.9067 63.7859 36.923 63.3259 36.883C62.894 36.846 62.7254 36.9599 62.7432 37.4362C62.7831 38.4982 62.755 39.5617 62.755 40.6251C62.755 42.5598 62.755 42.5598 64.7059 42.3246ZM64.7045 8.21505C65.7576 8.34521 66.8151 8.2328 67.8697 8.27421C68.2099 8.28752 68.2277 8.09228 68.2262 7.8364C68.2218 6.29665 68.2173 4.75543 68.2292 3.21568C68.2321 2.89915 68.1552 2.76603 67.8106 2.77491C66.7767 2.80153 65.7428 2.79857 64.7089 2.80597C64.2474 2.79709 63.7845 2.81189 63.3245 2.77343C62.8926 2.73793 62.7239 2.84886 62.7417 3.32661C62.7801 4.4108 62.7535 5.49794 62.7535 6.5836C62.755 8.4517 62.755 8.4517 64.7045 8.21505ZM4.66324 8.21505C5.71784 8.34521 6.77688 8.2328 7.83296 8.27569C8.18942 8.29048 8.24563 8.09968 8.24415 7.80238C8.23675 6.28334 8.23084 4.76282 8.24711 3.24378C8.25154 2.8814 8.13174 2.76751 7.77379 2.77639C6.73842 2.80301 5.70305 2.80005 4.66768 2.80893C4.18549 2.80005 3.70035 2.81484 3.22112 2.77639C2.84099 2.74533 2.76555 2.89619 2.77147 3.2423C2.7907 4.36938 2.77886 5.49646 2.77886 6.62353C2.77886 8.44579 2.77886 8.44579 4.66324 8.21505ZM4.52421 42.3246C5.62466 42.4518 6.72955 42.3453 7.83148 42.3853C8.18794 42.3986 8.24415 42.2093 8.24267 41.912C8.23528 40.3929 8.22936 38.8724 8.24563 37.3534C8.25007 36.991 8.13174 36.8771 7.77232 36.886C6.69109 36.9126 5.60987 36.9096 4.52716 36.9185C4.09083 36.9096 3.65153 36.9244 3.21816 36.886C2.83803 36.852 2.76259 37.0043 2.76851 37.3504C2.78774 38.5233 2.77591 39.6963 2.77591 40.8707C2.77886 42.5391 2.77886 42.5391 4.52421 42.3246Z" fill="#030303"/>
<path id="Vector_2" d="M34.093 25.5265C34.093 24.216 34.093 22.907 34.093 21.4027C33.559 22.3656 33.1093 23.1732 32.6627 23.9808C32.1391 24.9274 31.6228 25.88 31.0904 26.8222C30.5845 27.7185 29.8257 28.0113 29.0936 27.612C28.3585 27.2112 28.1765 26.3976 28.6617 25.5102C30.4854 22.1763 32.3225 18.8498 34.1521 15.5188C34.4465 14.9819 34.8384 14.5811 35.4922 14.5781C36.1785 14.5752 36.566 15.0071 36.8722 15.5647C39.6899 20.6913 42.515 25.8149 45.3371 30.9385C46.6032 33.2385 47.8708 35.5385 49.1339 37.84C49.7064 38.8813 49.6561 39.3294 48.7982 40.1577C45.9332 42.9222 44.0665 46.2443 43.1525 50.2009C43.5696 50.2009 43.9497 50.1949 44.3313 50.2023C46.3355 50.2423 47.8604 51.3723 48.4121 53.2241C48.9387 54.9902 48.2879 56.7518 46.6476 57.8449C46.3 58.0771 46.3133 58.3448 46.3148 58.6628C46.3163 62.1269 46.297 65.5909 46.3281 69.055C46.337 69.9676 46.0988 70.6494 45.2055 70.9985C44.9289 70.9985 44.6508 70.9985 44.3742 70.9985C43.997 70.5932 43.5592 70.2249 43.5222 69.6126C43.5281 66.0554 43.5311 62.4996 43.5489 58.9423C43.5503 58.6095 43.4498 58.5134 43.1184 58.5149C39.2387 58.5326 35.3576 58.5356 31.4779 58.543C30.3464 58.5356 29.2134 58.5578 28.0848 58.5075C27.5642 58.4838 27.4414 58.6273 27.4459 59.145C27.4725 62.4478 27.4399 65.7521 27.4725 69.055C27.4814 69.9676 27.2447 70.6494 26.3498 70.9985C26.0733 70.9985 25.7952 70.9985 25.5186 70.9985C24.7332 70.401 24.6652 69.5756 24.674 68.6645C24.7066 65.338 24.6814 62.01 24.6933 58.682C24.6947 58.2871 24.6282 58.0312 24.2495 57.7857C22.7793 56.8287 22.1004 54.9991 22.5382 53.3691C23.016 51.5942 24.4196 50.3887 26.2419 50.229C26.7448 50.1846 27.2565 50.2216 27.8319 50.2216C27.5169 48.6049 26.9726 47.1332 26.2789 45.7147C25.2657 43.6425 23.9167 41.8143 22.2572 40.2095C21.3313 39.3147 21.2854 38.902 21.9007 37.7823C22.5101 36.6715 23.1091 35.5548 23.7392 34.4543C24.0484 33.913 24.532 33.6098 25.1799 33.7103C25.7242 33.7946 26.0954 34.123 26.2818 34.6451C26.4534 35.1229 26.2848 35.5518 26.0614 35.9645C25.6561 36.7144 25.2583 37.4687 24.8219 38.2009C24.6326 38.5189 24.6785 38.7171 24.924 38.9759C27.8097 42.0332 29.6956 45.6201 30.5727 49.7335C30.6452 50.0751 30.7605 50.2275 31.1481 50.2097C32.0474 50.1683 32.9496 50.1861 33.8489 50.1787C35.788 50.1861 37.7286 50.1727 39.6677 50.2127C40.1765 50.223 40.3747 50.0707 40.4797 49.5781C41.3272 45.5801 43.1791 42.0998 45.9583 39.1135C46.2867 38.7615 46.3621 38.5145 46.1062 38.0559C43.1406 32.7164 40.2046 27.3605 37.2597 22.0092C37.1769 21.8598 37.0837 21.7148 36.8899 21.3953C36.8899 21.7932 36.8899 21.9899 36.8899 22.1852C36.8899 25.096 36.9018 28.0069 36.8781 30.9163C36.8737 31.397 37.0142 31.6159 37.4683 31.8126C39.187 32.5566 40.3052 34.4233 40.2061 36.2544C40.0996 38.2379 38.8335 39.9196 36.9994 40.5142C35.0736 41.1399 33.1463 40.5896 31.8817 39.0529C29.9041 36.6537 30.7472 33.0388 33.5871 31.7786C33.8888 31.6455 34.1388 31.576 34.1299 31.1337C34.09 29.2671 34.1003 27.396 34.093 25.5265ZM29.5314 52.9993C28.5848 52.9919 27.6396 52.9638 26.693 52.9816C25.776 52.9993 25.2035 53.5555 25.2065 54.3675C25.2095 55.1766 25.7848 55.7268 26.7048 55.743C27.65 55.7593 28.5966 55.7342 29.5432 55.7283C34.4642 55.7342 39.3852 55.7475 44.3047 55.7416C45.2217 55.7401 45.7956 55.1677 45.7927 54.3557C45.7897 53.5466 45.2128 52.983 44.2928 52.9816C39.3733 52.9771 34.4524 52.9919 29.5314 52.9993ZM37.4387 36.0473C37.4224 34.9927 36.5202 34.1141 35.473 34.1334C34.4184 34.1511 33.5486 35.0504 33.5649 36.105C33.5797 37.167 34.4627 38.019 35.5306 38.0056C36.5912 37.9923 37.455 37.1064 37.4387 36.0473Z" fill="#020202"/>
<path id="Vector_3" d="M43.5222 69.6141C43.5607 70.2279 43.997 70.5962 44.3742 71C38.3661 71 32.358 71 26.3498 71C27.2432 70.6509 27.4814 69.9691 27.4725 69.0565C27.4399 65.7536 27.4725 62.4493 27.4459 59.1465C27.4414 58.6273 27.5642 58.4853 28.0848 58.509C29.2149 58.5593 30.3464 58.5371 31.4779 58.5445C31.4779 62.01 31.4912 65.4741 31.4661 68.9396C31.4616 69.4884 31.614 69.6304 32.1568 69.6274C35.9463 69.6023 39.7342 69.6141 43.5222 69.6141Z" fill="#FEFEFE"/>
<path id="Vector_4" d="M34.0929 25.5265C34.1003 27.3975 34.09 29.2671 34.127 31.1382C34.1358 31.5804 33.8859 31.65 33.5841 31.7831C30.7457 33.0433 29.9027 36.6582 31.8787 39.0573C33.1448 40.5926 35.0721 41.1428 36.9964 40.5187C38.8305 39.9241 40.0951 38.2423 40.2031 36.2588C40.3022 34.4277 39.1825 32.5611 37.4653 31.8171C37.0112 31.6204 36.8722 31.403 36.8751 30.9208C36.8988 28.0099 36.887 25.099 36.887 22.1896C36.887 21.9929 36.887 21.7962 36.887 21.3998C37.0807 21.7207 37.1739 21.8642 37.2568 22.0136C40.2016 27.365 43.1377 32.7208 46.1033 38.0604C46.3591 38.5204 46.2837 38.7659 45.9554 39.118C43.1761 42.1043 41.3243 45.5861 40.4768 49.5826C40.3717 50.0751 40.1735 50.2275 39.6647 50.2171C37.7256 50.1772 35.785 50.1905 33.8459 50.1831C33.5013 47.398 32.5414 44.8302 31.1052 42.4297C30.2133 40.9387 29.1749 39.5587 27.8955 38.3814C27.4414 37.9643 27.3453 37.6699 27.684 37.0709C29.8553 33.2415 31.9645 29.3781 34.0929 25.5265Z" fill="#005CFF"/>
<path id="Vector_5" d="M28.6439 30.7965C28.6528 31.5227 28.0271 32.1632 27.295 32.1795C26.5614 32.1957 25.9253 31.5863 25.9046 30.8483C25.8839 30.0836 26.5273 29.415 27.2758 29.4209C27.9961 29.4283 28.6351 30.0717 28.6439 30.7965Z" fill="#060606"/>
<path id="Vector_6" d="M4.52864 36.917C5.60986 36.9082 6.69257 36.9126 7.77379 36.8845C8.13173 36.8756 8.25154 36.9895 8.2471 37.3519C8.23083 38.8709 8.23675 40.3915 8.24414 41.9105C8.24562 42.2078 8.18942 42.3971 7.83295 42.3838C6.73102 42.3439 5.62613 42.4504 4.52568 42.3232C4.52568 40.5216 4.52716 38.7186 4.52864 36.917Z" fill="#005CFF"/>
<path id="Vector_7" d="M4.66768 2.80746C5.70305 2.79859 6.73842 2.80302 7.77379 2.77492C8.13173 2.76605 8.25154 2.87994 8.2471 3.24232C8.23083 4.76135 8.23675 6.28187 8.24415 7.80091C8.24563 8.09821 8.18942 8.28901 7.83296 8.27422C6.77688 8.23281 5.71784 8.34522 4.66324 8.21358C4.66472 6.41203 4.6662 4.61049 4.66768 2.80746Z" fill="#005CFF"/>
<path id="Vector_8" d="M64.7089 2.80745C65.7428 2.79857 66.7767 2.80301 67.8106 2.77639C68.1552 2.76751 68.2306 2.90063 68.2292 3.21716C68.2159 4.7569 68.2203 6.29813 68.2262 7.83788C68.2277 8.09376 68.2085 8.29048 67.8697 8.27569C66.8151 8.23427 65.7576 8.34521 64.7045 8.21653C64.7059 6.41202 64.7074 4.61047 64.7089 2.80745Z" fill="#005CFF"/>
<path id="Vector_9" d="M64.7089 36.9155C65.7428 36.9067 66.7767 36.9111 67.8106 36.8845C68.1552 36.8756 68.2321 37.0087 68.2292 37.3238C68.2159 38.8635 68.2203 40.4047 68.2262 41.9445C68.2277 42.2004 68.2114 42.3971 67.8697 42.3838C66.8151 42.3424 65.7576 42.4533 64.7045 42.3246C64.7074 40.5216 64.7074 38.7186 64.7089 36.9155Z" fill="#005CFF"/>
<path id="Vector_10" d="M34.8014 2.80301C35.7939 2.79562 36.7864 2.80006 37.7789 2.77491C38.1279 2.76604 38.2655 2.8607 38.2611 3.23639C38.2418 4.75987 38.2478 6.28482 38.2581 7.8083C38.2596 8.11447 38.1901 8.28605 37.841 8.27717C36.8278 8.25203 35.8131 8.24315 34.7985 8.22688C34.7985 6.41942 34.8 4.61196 34.8014 2.80301Z" fill="#005CFF"/>
<path id="Vector_11" d="M34.8014 2.80302C34.8 4.61048 34.7985 6.41942 34.797 8.22689C32.7499 8.42065 32.7499 8.42065 32.7499 6.41499C32.7499 5.37814 32.7736 4.3398 32.7381 3.30295C32.7233 2.86366 32.8609 2.7409 33.2809 2.77344C33.7868 2.81337 34.2941 2.79562 34.8014 2.80302Z" fill="#FAF9F9"/>
<path id="Vector_12" d="M4.66768 2.80744C4.6662 4.61047 4.66472 6.41202 4.66324 8.21504C2.77886 8.44578 2.77886 8.44578 2.77886 6.62205C2.77886 5.49497 2.7907 4.3679 2.77147 3.24082C2.76555 2.89471 2.84099 2.74384 3.22112 2.7749C3.70035 2.81336 4.18401 2.79857 4.66768 2.80744Z" fill="#FEF9F9"/>
<path id="Vector_13" d="M64.7089 2.80746C64.7074 4.61049 64.7059 6.41352 64.7045 8.21654C62.755 8.45172 62.755 8.45172 62.755 6.58657C62.755 5.50091 62.7816 4.41377 62.7432 3.32959C62.7254 2.85184 62.894 2.7409 63.3259 2.7764C63.7845 2.81338 64.2474 2.79859 64.7089 2.80746Z" fill="#FEF9F9"/>
<path id="Vector_14" d="M64.7089 36.9155C64.7074 38.7186 64.7059 40.5216 64.7045 42.3246C62.7535 42.5598 62.7535 42.5598 62.7535 40.6251C62.7535 39.5617 62.7801 38.4982 62.7417 37.4362C62.7239 36.9599 62.8926 36.846 63.3245 36.883C63.7845 36.9229 64.2474 36.9082 64.7089 36.9155Z" fill="#FEF9F9"/>
<path id="Vector_15" d="M4.52864 36.917C4.52716 38.7201 4.52568 40.5216 4.5242 42.3247C2.77738 42.5391 2.77738 42.5391 2.77738 40.8692C2.77738 39.6963 2.78922 38.5219 2.76999 37.3489C2.76407 37.0028 2.83951 36.849 3.21964 36.8845C3.65449 36.923 4.09231 36.9082 4.52864 36.917Z" fill="#FEF8F8"/>
<path id="Vector_16" d="M43.5222 69.6141C39.7343 69.6141 35.9463 69.6022 32.1583 69.6259C31.6155 69.6289 31.4631 69.4869 31.4675 68.9381C31.4927 65.4741 31.4794 62.0085 31.4794 58.543C35.3591 58.5356 39.2402 58.5311 43.1199 58.5149C43.4498 58.5134 43.5518 58.6081 43.5503 58.9423C43.5311 62.4996 43.5296 66.0568 43.5222 69.6141Z" fill="#005CFF"/>
<path id="Vector_17" d="M29.5314 52.9993C34.4524 52.9919 39.3719 52.9771 44.2928 52.9816C45.2143 52.983 45.7897 53.5451 45.7927 54.3556C45.7956 55.1677 45.2217 55.7401 44.3047 55.7416C39.3837 55.7475 34.4627 55.7342 29.5432 55.7283C29.2873 54.8186 29.0004 53.9104 29.5314 52.9993Z" fill="#005CFF"/>
<path id="Vector_18" d="M37.4387 36.0473C37.455 37.1064 36.5926 37.9923 35.5292 38.0057C34.4598 38.019 33.5782 37.1655 33.5634 36.105C33.5486 35.0504 34.4184 34.1526 35.4715 34.1334C36.5202 34.1141 37.4224 34.9927 37.4387 36.0473Z" fill="#0043A5"/>
<path id="Vector_19" d="M29.5314 52.9993C29.0004 53.9104 29.2873 54.8186 29.5432 55.7282C28.5966 55.7356 27.65 55.7608 26.7048 55.743C25.7863 55.7268 25.2095 55.1765 25.2065 54.3675C25.2035 53.5554 25.776 52.9993 26.693 52.9815C27.6396 52.9638 28.5863 52.9919 29.5314 52.9993Z" fill="#FCFCFC"/>
</g>
</svg>
