<svg width="71" height="71" viewBox="0 0 71 71" fill="none" xmlns="http://www.w3.org/2000/svg">
<g id="Group 1886">
<g id="Group">
<g id="Group_2">
<path id="Vector" d="M40.7316 66.7637C37.3922 64.0408 35.4027 60.5102 34.6146 56.3165C33.7525 51.7288 34.5834 47.4025 37.0684 43.4624C42.1126 35.469 52.3803 32.7928 60.6819 37.1816C61.7898 37.7667 62.8626 38.4182 63.7794 39.2882C62.7768 40.4858 61.7742 41.6795 60.7677 42.8772C60.6546 42.8031 60.5337 42.7367 60.4244 42.6548C57.2762 40.1932 53.7223 39.3584 49.8095 40.045C44.3518 41.0007 39.9124 45.6548 39.1516 51.132C39.0658 51.7522 39.2141 51.8498 39.7914 51.7834C41.2426 51.6157 42.7056 51.5143 44.1607 51.3894C47.5078 51.1046 50.855 50.8238 54.2022 50.5429C54.1983 50.8277 53.972 50.9759 53.8159 51.1632C52.5949 52.6339 51.366 54.1007 50.1372 55.5675C48.6899 55.708 47.2387 55.8562 45.7913 55.9849C43.7042 56.1722 41.6171 56.3516 39.5066 56.535C39.5535 56.7106 39.5808 56.8393 39.6198 56.968C39.6939 57.206 39.7758 57.444 39.8577 57.678C40.6341 59.8744 42.0346 61.6377 43.6964 63.2254C42.7173 64.3958 41.7264 65.5817 40.7316 66.7637Z" fill="#005CFF"/>
<path id="Vector_2" d="M50.1488 55.5598C51.3738 54.0929 52.6066 52.6261 53.8276 51.1554C53.9837 50.9682 54.2099 50.8199 54.2138 50.5351C57.6429 50.2347 61.0759 49.9227 64.5089 49.6418C64.977 49.6028 65.0667 49.4857 64.9185 49.0371C64.1227 46.5872 62.7339 44.543 60.7755 42.8772C61.7781 41.6796 62.7807 40.4859 63.7872 39.2882C70.4737 44.7498 72.198 54.7054 67.7468 62.1175C62.4959 70.86 51.4986 73.5985 42.8226 68.3086C42.0852 67.86 41.3518 67.3841 40.7316 66.7638C41.7224 65.5817 42.7172 64.3997 43.7081 63.2177C44.4922 63.8067 45.2881 64.3802 46.1697 64.8249C51.5376 67.5362 57.7833 66.4946 61.9419 62.1254C64.0212 59.9407 65.1682 57.3036 65.4841 54.1554C65.1565 54.2178 64.8873 54.2919 64.6181 54.3192C59.7924 54.7327 54.9706 55.1463 50.1488 55.5598Z" fill="#005CFF"/>
</g>
<path id="Vector_3" d="M37.0177 38.3636C36.9865 38.2192 36.7993 38.227 36.6627 38.2153C34.5951 38.0671 32.5275 37.8369 30.4482 37.9345C27.5458 37.8213 24.659 38.0905 21.7955 38.5157C17.0518 39.2218 12.4485 40.478 8.009 42.3115C6.17547 43.0683 4.38486 43.9149 2.62935 44.8433C1.20545 45.5963 0.499343 46.8914 0 48.3426C0 52.8211 0 57.3035 0 61.782C0.0273078 61.8171 0.0702201 61.8483 0.0858246 61.8873C0.990884 64.938 2.82051 66.3073 5.99212 66.3073C13.5954 66.3073 21.1987 66.3073 28.802 66.3073C29.3481 66.3073 29.8982 66.2917 30.4443 66.28C32.2115 66.28 33.9787 66.28 35.7342 66.28C35.7655 66.0147 35.6094 65.925 35.5197 65.8041C31.4742 60.2723 30.2688 54.1709 31.958 47.5312C32.7928 44.2465 34.4157 41.3596 36.7017 38.8512C36.8383 38.7108 37.0645 38.5977 37.0177 38.3636Z" fill="#005CFF"/>
<g id="Group_3">
<path id="Vector_4" d="M35.036 31.3572C26.3912 31.3572 19.3575 24.3235 19.3575 15.6786C19.3575 7.03372 26.3912 0 35.036 0C43.6848 0 50.7185 7.03372 50.7185 15.6786C50.7185 24.3235 43.6848 31.3572 35.036 31.3572ZM35.036 3.1209C28.1116 3.1209 22.4783 8.75411 22.4783 15.6786C22.4783 22.6031 28.1116 28.2363 35.036 28.2363C41.9605 28.2363 47.5937 22.6031 47.5937 15.6786C47.5937 8.75411 41.9605 3.1209 35.036 3.1209Z" fill="black"/>
</g>
</g>
</g>
</svg>
