<svg width="64" height="71" viewBox="0 0 64 71" fill="none" xmlns="http://www.w3.org/2000/svg">
<g id="Group">
<path id="Vector" d="M49.2292 0.0118319C49.5605 0.354956 49.8996 0.686248 49.8365 1.23051C49.7892 1.64068 50.0968 1.58152 50.3453 1.58152C51.6153 1.58152 52.8892 1.58152 54.1591 1.58152C56.77 1.58152 59.3809 1.58152 61.9918 1.58152C63.0054 1.58152 63.5378 1.87338 63.7902 2.56751C64.0939 3.40363 63.6838 3.9755 63.0803 4.48822C62.3073 5.14686 61.5737 5.85677 60.781 6.4878C60.3551 6.82698 60.4458 6.99263 60.8086 7.28842C61.6092 7.94706 62.3783 8.65303 63.1553 9.34322C63.8652 9.97425 64.0624 10.5501 63.7784 11.2245C63.4668 11.9659 62.8555 12.1868 62.0983 12.1868C58.2608 12.1789 54.4273 12.2026 50.5898 12.1671C49.9272 12.1592 49.7853 12.3682 49.8168 12.9717C49.8484 13.5396 49.7419 14.0799 50.5031 14.3126C50.8975 14.4349 50.933 14.9436 51 15.3262C51.2879 16.9827 51.0079 18.5405 50.1087 19.9682C49.9154 20.2759 49.8247 20.5756 49.8247 20.9384C49.8326 26.598 49.8405 32.2615 49.8168 37.9211C49.8129 38.4575 49.9627 38.564 50.4676 38.5561C52.2463 38.5245 54.025 38.5403 55.8037 38.5442C58.2372 38.5482 59.6728 39.9798 59.6728 42.4251C59.6767 50.9992 59.6806 59.5694 59.6609 68.1436C59.6609 68.7589 59.7911 68.9915 60.4379 68.9284C61.0571 68.8653 61.6842 68.9008 62.3073 68.9205C62.9936 68.9403 63.4274 69.3702 63.4116 69.9854C63.3958 70.5731 62.9778 70.9635 62.3191 70.9951C62.1574 71.003 61.9957 70.999 61.834 70.999C41.7514 70.999 21.6728 70.999 1.59019 70.999C0.493771 70.999 -0.0228868 70.648 0.000776861 69.9223C0.0244406 69.2242 0.513491 68.9324 1.59019 68.9127C2.22911 68.9008 3.08495 69.1927 3.44779 68.7865C3.75936 68.4354 3.52667 67.5954 3.53456 66.9722C3.54244 66.3018 3.51484 65.6313 3.55822 64.9648C3.68443 63.1348 5.04115 61.711 6.85931 61.6755C9.83699 61.6124 12.8186 61.6518 15.8002 61.6676C16.1828 61.6716 16.5693 61.7938 17.0465 61.8806C17.0465 60.9853 17.0465 60.1019 17.0465 59.2184C17.0505 56.8876 18.5058 55.4283 20.8524 55.4086C21.7083 55.4007 22.5641 55.3928 23.416 55.4125C23.7828 55.4204 23.9879 55.3257 24.1575 54.9669C25.5655 51.9655 26.9932 48.972 28.4248 45.9786C28.5589 45.6986 28.6181 45.4146 28.6339 45.1109C28.7561 42.642 28.8666 40.1731 28.9967 37.7042C29.0795 36.1424 29.7263 34.7107 30.0892 33.216C30.2351 32.6125 30.4244 32.017 30.6019 31.4215C30.8504 30.5853 31.1304 30.3881 31.9981 30.4315C32.6291 30.7786 32.8421 31.2676 32.6015 31.9776C32.4122 32.5376 32.3017 33.1252 32.1558 33.6971C31.9665 34.1783 31.789 34.6634 31.7575 35.2353C33.2404 34.6279 34.6642 34.0442 36.0879 33.4605C36.2575 33.3895 36.4192 33.3303 36.4863 33.1213C37.0266 31.4727 37.5787 29.8281 38.1546 28.0928C37.6695 28.1993 37.3303 28.0849 37.0108 27.8916C36.5297 27.1304 36.5967 26.6335 37.2317 26.1878C37.3973 26.0695 37.563 25.9512 37.7286 25.8329C37.7878 25.8013 37.8469 25.7698 37.9061 25.7343L37.9298 25.7225C38.5056 25.3833 39.0814 25.048 39.6533 24.7049C42.0354 23.2614 44.4215 21.8179 46.7958 20.3626C48.0854 19.5738 48.8506 18.4498 48.9846 16.821C48.3221 17.1167 47.7778 17.3928 47.269 17.7438C44.0271 19.495 40.7733 21.2263 37.5472 22.9972C34.7273 24.5472 34.9205 23.8885 33.8478 27.5406C33.6111 28.3412 33.339 28.5266 32.4989 28.495C31.7535 28.0494 31.6392 27.7851 31.864 26.9687C32.1755 25.8368 32.4358 24.6891 33.0787 23.6795C33.2088 23.4705 33.197 23.364 33.0038 23.1747C31.7575 21.9757 31.1107 20.4139 30.5979 18.8205C30.2745 17.8188 30.6334 16.8288 31.3591 16.0755C32.2268 15.1763 33.3193 14.5887 34.5774 14.5019C35.875 14.4151 36.928 14.9791 37.5669 16.1268C38.1901 17.2469 38.8447 18.363 39.2549 19.6685C39.6059 19.4871 39.9412 19.3135 40.2725 19.1361C42.5797 17.8858 44.879 16.6238 47.198 15.3932C47.6279 15.1645 47.7581 14.9002 47.7541 14.427C47.7344 10.136 47.7502 5.84099 47.7344 1.54997C47.7305 0.914997 47.8448 0.378619 48.3891 0C48.6731 0.0118319 48.9531 0.0118319 49.2292 0.0118319ZM35.8986 35.8071C34.2895 36.4658 32.8223 37.0731 31.3473 37.6647C31.0633 37.7791 31.0791 37.996 31.0673 38.2287C31.016 39.3567 30.9135 40.4886 30.9135 41.6166C30.9135 44.4957 30.4599 47.2288 28.9691 49.7727C28.0147 51.3976 27.3126 53.1724 26.512 54.884C26.4489 55.0181 26.2162 55.2074 26.4923 55.3455C26.6658 55.4322 26.8551 55.3612 26.9853 55.1995C27.0563 55.1088 27.1273 55.0181 27.1943 54.9235C28.9021 52.6557 30.5506 50.3406 32.3412 48.1359C33.5875 46.6057 34.4748 44.9847 34.6129 42.997C34.6326 42.7209 34.7075 42.4527 34.7549 42.1806C35.1256 40.1179 35.4924 38.0591 35.804 35.8702C35.7961 35.886 35.7882 35.9057 35.7803 35.9215C35.8 35.9215 35.8197 35.9255 35.8316 35.9176C35.8395 35.9136 35.8395 35.89 35.8434 35.8742C35.8316 35.8742 35.8158 35.8742 35.8986 35.8071ZM45.0723 58.544C44.3466 58.3784 44.0705 57.913 44.0863 57.1834C44.1139 55.6373 44.0981 54.0873 44.0941 52.5413C44.0902 51.366 43.5262 50.7902 42.3588 50.7863C39.7045 50.7784 37.0463 50.7784 34.392 50.7863C33.2325 50.7902 32.6804 51.3266 32.6804 52.4822C32.6725 57.771 32.6804 63.0598 32.6685 68.3487C32.6685 68.8022 32.7947 68.9324 33.2483 68.9324C36.6914 68.9166 40.1305 68.9166 43.5735 68.9324C44.0074 68.9363 44.1178 68.8062 44.1099 68.3842C44.0863 66.6055 44.1218 64.8267 44.0902 63.048C44.0744 62.2947 44.3229 61.8017 45.0683 61.6006C45.1156 61.6006 45.163 61.6045 45.2103 61.6045C45.9478 61.8057 46.2081 62.2947 46.1963 63.048C46.1647 64.8031 46.2042 66.5581 46.1766 68.3132C46.1687 68.7904 46.287 68.9363 46.7839 68.9324C50.1797 68.9087 53.5715 68.9087 56.9672 68.9324C57.5036 68.9363 57.6101 68.7707 57.6101 68.2659C57.5943 59.6523 57.6022 51.0387 57.5982 42.4251C57.5982 41.1315 57.0855 40.6306 55.784 40.6306C53.2205 40.6266 50.6569 40.6266 48.0933 40.6306C46.6656 40.6306 46.1884 41.1157 46.1884 42.5513C46.1884 47.4221 46.1805 52.2968 46.1963 57.1676C46.2002 57.8933 45.9399 58.3665 45.2142 58.5401C45.159 58.5243 45.1156 58.5243 45.0723 58.544ZM24.8437 68.9205C26.5515 68.9205 28.2592 68.9127 29.9669 68.9284C30.3731 68.9324 30.5782 68.8851 30.5743 68.3842C30.5506 65.3158 30.5703 62.2434 30.5585 59.175C30.5546 58.0392 30.034 57.5107 28.9099 57.5028C26.2083 57.491 23.5067 57.491 20.8091 57.5028C19.689 57.5068 19.1447 58.0589 19.1447 59.1632C19.1368 62.2316 19.1526 65.3039 19.1289 68.3723C19.125 68.8535 19.2946 68.9324 19.7205 68.9284C21.4283 68.9087 23.136 68.9205 24.8437 68.9205ZM47.7502 22.2399C45.4509 23.6361 43.2699 24.9613 41.0889 26.2825C40.8641 26.4205 40.8404 26.6572 40.7694 26.8701C40.0674 28.988 39.3851 31.1178 38.6594 33.2278C38.4977 33.6932 38.5253 34.0047 38.8605 34.3952C40.2449 36.0043 41.5937 37.645 42.9346 39.2896C43.5893 40.0942 43.8536 41.0171 43.7076 42.0701C43.4552 43.9198 43.2383 45.7774 43.0135 47.635C42.8794 48.7512 42.8834 48.7512 44.0981 48.9366C44.0981 46.6688 44.0863 44.4089 44.102 42.1451C44.1139 40.2875 45.3996 38.8006 47.2217 38.5955C47.691 38.5442 47.766 38.3904 47.762 37.9763C47.7462 34.1428 47.7541 30.3093 47.7541 26.4757C47.7502 25.1111 47.7502 23.7465 47.7502 22.2399ZM60.848 10.1083C60.079 9.4221 59.4479 8.86206 58.8209 8.30202C57.6692 7.27659 57.6732 6.48386 58.8366 5.44265C59.4598 4.88656 60.0829 4.3344 60.848 3.65604C57.1802 3.65604 53.7213 3.66393 50.2664 3.64815C49.7971 3.64815 49.8208 3.91634 49.8247 4.23186C49.8287 5.98692 49.8444 7.74198 49.8168 9.49704C49.8089 9.98214 49.947 10.1202 50.436 10.1162C53.2283 10.0926 56.0246 10.1044 58.8169 10.1044C59.4282 10.1083 60.0435 10.1083 60.848 10.1083ZM11.3199 68.9205C13.0276 68.9205 14.7393 68.8929 16.4471 68.9363C16.9913 68.9482 17.0939 68.7746 17.0741 68.2777C17.0347 67.3075 17.0702 66.3373 17.0584 65.3671C17.0465 64.3022 16.5023 63.7421 15.4295 63.7382C12.7042 63.7264 9.97897 63.7264 7.2537 63.7382C6.17306 63.7421 5.6564 64.2746 5.63668 65.371C5.62091 66.3649 5.6564 67.3587 5.62091 68.3487C5.60513 68.7943 5.72345 68.9363 6.18884 68.9284C7.90051 68.9048 9.60824 68.9205 11.3199 68.9205ZM37.91 36.4579C37.7207 37.5385 37.6418 38.4377 37.3973 39.2896C37.1686 40.0824 37.3618 40.5596 38.0915 40.8948C39.109 41.3642 39.4639 42.22 39.5428 43.2967C39.6651 44.9492 39.8899 46.5978 40.0398 48.2464C40.0792 48.6802 40.3001 48.767 40.6274 48.6526C40.8838 48.5658 40.8522 48.2661 40.8798 48.0531C41.1283 46.1087 41.3649 44.1683 41.5937 42.2239C41.6647 41.6245 41.6962 41.0329 41.2624 40.5162C40.1817 39.2265 39.1169 37.925 37.91 36.4579ZM35.2242 21.7943C35.5949 21.7785 36.0327 21.4512 36.4863 21.1987C37.141 20.8359 37.3263 20.2285 37.0029 19.5462C36.6361 18.7772 36.2457 18.0199 35.8355 17.2745C35.4687 16.604 34.8929 16.4147 34.1948 16.7105C33.8793 16.8446 33.5717 17.0063 33.2759 17.1838C32.6212 17.5742 32.4319 18.1461 32.7632 18.8363C33.13 19.6054 33.5322 20.3587 33.9266 21.112C34.1593 21.5537 34.5182 21.8061 35.2242 21.7943ZM36.7939 42.5986C36.3719 44.7441 36.3443 47.008 34.3881 48.696C35.6068 48.696 36.573 48.6802 37.5393 48.7039C37.9179 48.7117 37.985 48.5974 37.9416 48.2266C37.7562 46.6254 37.5945 45.0202 37.4644 43.4111C37.4289 42.9772 37.2751 42.7288 36.7939 42.5986ZM29.4503 55.4007C29.8052 55.4953 30.0497 55.5545 30.2864 55.6294C30.4836 55.6925 30.594 55.661 30.594 55.4283C30.5901 54.9826 30.594 54.537 30.594 54.0952C30.5467 54.0834 30.4954 54.0716 30.4481 54.0597C30.1247 54.4896 29.8052 54.9195 29.4503 55.4007Z" fill="#030303"/>
<path id="Vector_2" d="M37.7366 25.8407C37.5709 25.9591 37.4053 26.0774 37.2396 26.1957C36.6047 26.6414 36.5416 27.1383 37.0188 27.8995C36.5889 29.2286 35.875 30.4078 34.9916 31.4727C34.2146 32.4074 33.3193 33.2356 32.1638 33.7089C32.3097 33.1331 32.4201 32.5494 32.6094 31.9894C32.85 31.2794 32.637 30.7904 32.006 30.4433C32.1717 29.8005 32.3373 29.1537 32.503 28.5108C33.347 28.5384 33.6191 28.353 33.8518 27.5564C34.9245 23.9043 34.7352 24.5629 37.5512 23.0129C40.7813 21.2381 44.0311 19.5068 47.2731 17.7596C47.4781 17.9055 47.3322 18.0199 47.2533 18.1579C46.8156 18.8994 46.1293 19.3608 45.4273 19.7947C43.3015 21.1041 41.1599 22.3937 39.0302 23.6992C38.2769 24.1606 37.847 24.8153 37.9377 25.7382C37.9377 25.7382 37.9141 25.75 37.9101 25.75C37.8155 25.7027 37.7642 25.7461 37.7366 25.8407Z" fill="#005CFF"/>
<path id="Vector_3" d="M45.2025 58.544C45.9281 58.3705 46.1845 57.8972 46.1845 57.1715C46.1727 52.3008 46.1766 47.426 46.1766 42.5553C46.1766 41.1197 46.6538 40.6385 48.0815 40.6345C50.6451 40.6306 53.2087 40.6306 55.7723 40.6345C57.0738 40.6345 57.5865 41.1354 57.5865 42.429C57.5904 51.0426 57.5825 59.6562 57.5983 68.2698C57.5983 68.7707 57.4958 68.9403 56.9554 68.9363C53.5597 68.9087 50.1679 68.9127 46.7722 68.9363C46.2752 68.9403 46.1569 68.7944 46.1648 68.3171C46.1924 66.5621 46.153 64.807 46.1845 63.052C46.2003 62.2987 45.936 61.8096 45.1985 61.6085C45.2025 60.5831 45.2025 59.5655 45.2025 58.544Z" fill="#005CFF"/>
<path id="Vector_4" d="M45.0604 61.6006C44.3189 61.8018 44.0665 62.2987 44.0823 63.0481C44.1138 64.8268 44.0783 66.6055 44.102 68.3842C44.1059 68.8062 43.9995 68.9324 43.5656 68.9324C40.1226 68.9127 36.6834 68.9127 33.2404 68.9324C32.7868 68.9364 32.6566 68.8023 32.6606 68.3487C32.6764 63.0599 32.6645 57.771 32.6724 52.4822C32.6724 51.3266 33.2246 50.7903 34.3841 50.7863C37.0384 50.7784 39.6966 50.7784 42.3509 50.7863C43.5183 50.7903 44.0823 51.3661 44.0862 52.5414C44.0941 54.0874 44.1059 55.6374 44.0783 57.1834C44.0665 57.917 44.3386 58.3784 45.0643 58.5441C45.0683 59.5616 45.0643 60.5831 45.0604 61.6006Z" fill="#005CFF"/>
<path id="Vector_5" d="M24.8438 68.9206C23.136 68.9206 21.4283 68.9087 19.7206 68.9285C19.2946 68.9324 19.129 68.8535 19.129 68.3724C19.1526 65.304 19.1369 62.2316 19.1448 59.1632C19.1487 58.0589 19.689 57.5068 20.8091 57.5028C23.5107 57.491 26.2123 57.491 28.91 57.5028C30.034 57.5068 30.5546 58.0353 30.5585 59.1751C30.5704 62.2435 30.5507 65.3158 30.5743 68.3842C30.5783 68.8851 30.3692 68.9324 29.967 68.9285C28.2592 68.9127 26.5515 68.9206 24.8438 68.9206Z" fill="#005CFF"/>
<path id="Vector_6" d="M60.848 10.1083C60.0435 10.1083 59.4282 10.1083 58.8169 10.1083C56.0246 10.1083 53.2283 10.0965 50.436 10.1202C49.9469 10.1241 49.8089 9.98214 49.8168 9.50098C49.8444 7.74592 49.8286 5.99086 49.8247 4.2358C49.8247 3.92029 49.801 3.6521 50.2664 3.6521C53.7213 3.66393 57.1762 3.65999 60.848 3.65999C60.0829 4.33835 59.4598 4.8905 58.8366 5.4466C57.6692 6.4878 57.6653 7.27659 58.8208 8.30596C59.4479 8.86206 60.079 9.4221 60.848 10.1083Z" fill="#005CFF"/>
<path id="Vector_7" d="M11.3199 68.9205C9.61213 68.9205 7.90046 68.9047 6.19273 68.9323C5.72734 68.9402 5.60902 68.7943 5.6248 68.3526C5.65635 67.3626 5.62085 66.3688 5.64057 65.3749C5.66029 64.2785 6.17695 63.75 7.25759 63.7421C9.98286 63.7303 12.7081 63.7303 15.4334 63.7421C16.5062 63.746 17.0504 64.3061 17.0623 65.3709C17.0741 66.3412 17.0386 67.3114 17.078 68.2816C17.0978 68.7746 16.9952 68.9521 16.4509 68.9402C14.7353 68.8968 13.0276 68.9205 11.3199 68.9205Z" fill="#005CFF"/>
<path id="Vector_8" d="M37.9417 25.7304C37.8509 24.8075 38.2808 24.1528 39.0341 23.6913C41.1639 22.3859 43.3054 21.1002 45.4312 19.7868C46.1332 19.353 46.8234 18.8915 47.2573 18.1501C47.3401 18.012 47.486 17.8977 47.277 17.7517C47.7858 17.4007 48.334 17.1286 48.9926 16.8289C48.8546 18.4577 48.0894 19.5817 46.8037 20.3705C44.4295 21.8258 42.0434 23.2654 39.6612 24.7128C39.0933 25.0559 38.5175 25.3912 37.9417 25.7304Z" fill="#005CFF"/>
<path id="Vector_9" d="M32.1676 33.705C33.3232 33.2317 34.2184 32.4035 34.9954 31.4688C35.8749 30.4079 36.5927 29.2286 37.0226 27.8956C37.3421 28.0888 37.6812 28.2032 38.1663 28.0967C37.5905 29.832 37.0384 31.4767 36.498 33.1252C36.431 33.3343 36.2693 33.3974 36.0997 33.4644C34.6759 34.0481 33.2522 34.6318 31.7692 35.2392C31.8008 34.6673 31.9783 34.1862 32.1676 33.705Z" fill="#005CFF"/>
<path id="Vector_10" d="M37.7366 25.8408C37.7642 25.7461 37.8155 25.7067 37.9141 25.7422C37.8549 25.7737 37.7957 25.8053 37.7366 25.8408Z" fill="#5EC5E9"/>
<path id="Vector_11" d="M35.8039 35.8741C35.8197 35.8741 35.8315 35.8741 35.8473 35.8781C35.8434 35.8939 35.8434 35.9175 35.8355 35.9215C35.8237 35.9294 35.8 35.9254 35.7842 35.9254C35.7882 35.9057 35.7961 35.8899 35.8039 35.8741Z" fill="#4E7490"/>
</g>
</svg>
