<svg width="59" height="72" viewBox="0 0 59 72" fill="none" xmlns="http://www.w3.org/2000/svg">
<g id="Group 1885">
<g id="Group">
<path id="Vector" d="M55.5196 0.00375895C55.8046 0.25185 56.1908 0.21426 56.5132 0.372136C57.9943 1.09385 58.8042 2.27416 58.9767 3.90555C59.0067 4.20626 58.9992 4.51074 58.9992 4.81146C58.9992 25.4067 58.9992 46.0058 58.9992 66.6011C58.9992 69.7661 57.3531 71.4238 54.2185 71.4238C37.7317 71.4238 21.245 71.4238 4.75818 71.4238C1.6648 71.4238 0 69.7511 0 66.6424C0 54.5987 0 42.5588 0.00374955 30.5152C0.00374955 30.1919 0.0074991 29.8611 0.0824901 29.5491C0.236222 28.9176 0.783656 28.5116 1.40233 28.5154C2.02101 28.5192 2.56094 28.9326 2.71092 29.5604C2.77842 29.8498 2.78217 30.1581 2.78217 30.4588C2.78592 42.5024 2.78592 54.5424 2.78592 66.586C2.78592 68.2362 3.18337 68.6309 4.84817 68.6309C21.2899 68.6309 37.728 68.6309 54.1698 68.6309C55.8233 68.6309 56.217 68.2362 56.217 66.571C56.217 45.9983 56.217 25.4255 56.217 4.84905C56.217 3.18383 55.8233 2.78914 54.1698 2.78914C45.1971 2.78914 36.2207 2.78914 27.248 2.78538C26.948 2.78538 26.6406 2.78538 26.3518 2.71772C25.7894 2.5824 25.4219 2.21778 25.3282 1.62387C25.2345 1.01116 25.4594 0.541289 25.9806 0.202983C26.0856 0.135322 26.2768 0.191706 26.2993 0C36.0369 0.00375895 45.7783 0.00375895 55.5196 0.00375895Z" fill="black"/>
<path id="Vector_2" d="M12.662 0.00354004C13.4532 0.202764 14.2631 0.334328 15.028 0.608731C18.7363 1.93564 21.1735 4.50676 22.3734 8.26571C22.4071 8.37472 22.4521 8.47997 22.4896 8.58522C22.5121 8.74686 22.5271 8.90473 22.5608 9.06261C23.5432 13.9643 21.4735 18.678 17.2177 21.2717C15.7292 22.1776 14.0944 22.6249 12.3958 22.873C9.88361 22.982 7.52889 22.4783 5.36915 21.1326C1.36463 18.6367 -0.727621 13.7876 0.236014 9.16786C1.22964 4.41655 5.01294 0.822991 9.74112 0.142621C9.84986 0.127585 9.97735 0.157657 10.0186 0.00354004C10.8997 0.00354004 11.7809 0.00354004 12.662 0.00354004ZM11.4322 20.0876C16.1716 20.0763 20.0486 16.1708 20.0336 11.4157C20.0224 6.66816 16.1266 2.7814 11.3872 2.79644C6.64775 2.80772 2.77071 6.71327 2.78571 11.4646C2.79696 16.2159 6.69274 20.1026 11.4322 20.0876Z" fill="#030202"/>
<path id="Vector_3" d="M25.5119 7.51394C25.5082 6.35242 25.9394 5.85248 27.0868 5.73972C34.4059 5.02551 40.3339 7.57408 44.6422 13.5508C47.5031 17.5203 48.5642 22.0423 47.7505 26.8876C46.5057 34.2889 42.2799 39.3635 35.2045 41.7166C28.5828 43.9194 22.4861 42.521 17.1992 37.9501C14.0421 35.2249 12.1486 31.7178 11.3274 27.6281C11.1099 26.5417 11.3724 26.0268 12.3923 25.617C13.4984 25.6922 13.8471 25.9967 14.0571 27.1018C14.567 29.7744 15.7069 32.1463 17.4542 34.2513C17.5067 34.1912 17.5404 34.1574 17.5667 34.1198C17.6979 33.9281 17.8254 33.7364 17.9566 33.5409C19.4377 31.3231 21.3949 29.6729 23.8284 28.5904C24.7283 28.1919 24.7245 28.1957 24.0871 27.4101C23.9559 27.2484 23.8396 27.0718 23.7347 26.8951C22.3961 24.5984 22.3586 22.1663 23.101 19.7042C24.3871 15.4378 29.9364 13.7914 33.5285 16.4151C37.0681 19.0013 37.0643 25.1472 34.6871 27.6619C34.2409 28.1318 34.4134 28.2784 34.9121 28.4776C36.6969 29.1993 38.2379 30.2969 39.569 31.684C40.3077 32.4546 40.9226 33.3229 41.5188 34.2664C43.566 31.7667 44.7434 28.9813 45.1184 25.8275C45.9432 18.8998 41.6988 11.8931 35.182 9.45732C32.7523 8.54765 30.2664 8.18679 27.6829 8.49127C26.3331 8.6529 26.0069 8.47999 25.5119 7.51394ZM29.5165 39.901C32.9886 39.8447 36.1382 38.8072 38.9466 36.721C39.389 36.3902 39.3853 36.1646 39.1228 35.7249C36.9293 32.0824 33.686 30.1654 29.4827 30.1691C25.2795 30.1729 22.0436 32.105 19.8576 35.7512C19.5877 36.2022 19.6064 36.4278 20.0414 36.7473C22.861 38.8297 26.0181 39.8484 29.5165 39.901ZM33.5285 22.6475C33.5285 22.3618 33.5397 22.1062 33.5285 21.8506C33.4198 19.6102 31.635 17.8698 29.479 17.8924C27.323 17.915 25.5832 19.614 25.4782 21.8205C25.4482 22.4219 25.4407 23.0309 25.497 23.6323C25.7782 26.6771 29.0928 28.331 31.6537 26.6959C33.131 25.7486 33.6297 24.3127 33.5285 22.6475Z" fill="#020303"/>
<path id="Vector_4" d="M32.4336 50.5013C29.2352 50.5013 26.0406 50.5051 22.8422 50.4976C21.8149 50.4938 21.1362 49.8736 21.2224 49.0203C21.2899 48.3512 21.6649 47.9114 22.3286 47.761C22.5273 47.7159 22.741 47.7122 22.951 47.7122C29.299 47.7084 35.6432 47.7084 41.9912 47.7122C43.0036 47.7122 43.5848 48.1219 43.6935 48.8812C43.8322 49.8435 43.2023 50.4938 42.0924 50.4976C39.914 50.5088 37.7392 50.5013 35.5607 50.5013C34.5183 50.5013 33.476 50.5013 32.4336 50.5013Z" fill="#010101"/>
<path id="Vector_5" d="M32.5048 55.5232C35.587 55.5232 38.6654 55.5232 41.7475 55.5232C41.9312 55.5232 42.1187 55.5157 42.3024 55.527C43.1686 55.5871 43.7198 56.1434 43.7123 56.9366C43.7048 57.7222 43.1423 58.2597 42.2687 58.3123C42.1749 58.3199 42.0849 58.3161 41.9912 58.3161C35.6432 58.3161 29.299 58.3161 22.951 58.3161C22.0361 58.3161 21.4849 57.9891 21.2899 57.3501C20.9862 56.3577 21.6724 55.5345 22.846 55.5307C26.0631 55.5157 29.284 55.5232 32.5048 55.5232Z" fill="#010101"/>
<path id="Vector_6" d="M15.2794 49.0615C15.2982 48.3248 15.9431 47.7008 16.6705 47.7158C17.3979 47.7309 18.0278 48.3812 18.0241 49.1104C18.0203 49.8697 17.3304 50.5275 16.5843 50.4899C15.8456 50.4524 15.2607 49.8096 15.2794 49.0615Z" fill="#060606"/>
<path id="Vector_7" d="M18.0241 56.9291C18.0166 57.6621 17.3791 58.3011 16.6517 58.3049C15.8943 58.3086 15.2569 57.6433 15.2794 56.869C15.3019 56.1322 15.9506 55.5082 16.6742 55.527C17.4054 55.5496 18.0316 56.1999 18.0241 56.9291Z" fill="#060606"/>
<path id="Vector_8" d="M1.42108 23.3052C2.14099 23.324 2.78217 23.9893 2.77467 24.7073C2.76717 25.4516 2.0585 26.1207 1.32734 26.0793C0.607427 26.038 -0.0224973 25.3538 0.00749912 24.6434C0.0374955 23.9217 0.708665 23.2864 1.42108 23.3052Z" fill="#050505"/>
<path id="Vector_9" d="M11.4324 20.0876C6.69295 20.1026 2.79717 16.2159 2.78592 11.4645C2.77092 6.71324 6.64795 2.80769 11.3874 2.79641C16.1268 2.78513 20.0226 6.66813 20.0376 11.4194C20.0488 16.1708 16.1718 20.0763 11.4324 20.0876ZM5.96929 12.0998C5.95054 12.5095 6.20926 12.8591 6.52797 13.1786C7.21414 13.8703 7.9003 14.5619 8.59022 15.2461C9.53511 16.1858 10.2025 16.1933 11.1437 15.2536C12.801 13.5996 14.4508 11.9419 16.1006 10.2805C16.2768 10.1001 16.453 9.90459 16.573 9.68657C16.8617 9.14528 16.8205 8.61151 16.4193 8.13788C16.0143 7.66049 15.4894 7.55148 14.912 7.73943C14.6007 7.84092 14.3645 8.07774 14.1358 8.31079C12.876 9.57756 11.5936 10.818 10.3675 12.1148C9.94756 12.5584 9.71884 12.5133 9.35513 12.0885C8.99892 11.6675 8.58272 11.2841 8.15902 10.9308C7.73157 10.5774 7.22538 10.5286 6.73044 10.7917C6.243 11.0511 5.96179 11.457 5.96929 12.0998Z" fill="#005CFF"/>
<path id="Vector_10" d="M29.5165 39.901C26.0144 39.8484 22.861 38.826 20.0414 36.751C19.6064 36.4277 19.5839 36.206 19.8576 35.7549C22.0436 32.1087 25.2795 30.1766 29.4827 30.1729C33.686 30.1691 36.9293 32.0862 39.1228 35.7286C39.3853 36.1684 39.3928 36.3939 38.9466 36.7247C36.1382 38.8109 32.9886 39.8484 29.5165 39.901Z" fill="#005CFF"/>
<path id="Vector_11" d="M5.96928 12.0999C5.96178 11.4533 6.23925 11.0474 6.72294 10.7918C7.21788 10.5286 7.72407 10.5737 8.15152 10.9308C8.57897 11.2842 8.99142 11.6676 9.34763 12.0886C9.70758 12.5134 9.94006 12.5547 10.36 12.1149C11.5861 10.8181 12.8685 9.57762 14.1283 8.31085C14.357 8.0778 14.5932 7.84098 14.9045 7.73949C15.4819 7.54778 16.0068 7.66055 16.4118 8.13794C16.813 8.61157 16.8542 9.14534 16.5655 9.68663C16.4493 9.9084 16.273 10.1039 16.0931 10.2805C14.4433 11.942 12.7935 13.5997 11.1362 15.2536C10.1988 16.1896 9.53135 16.1859 8.58272 15.2461C7.8928 14.5582 7.20663 13.8666 6.52047 13.1787C6.20925 12.8592 5.95053 12.5096 5.96928 12.0999Z" fill="white"/>
</g>
</g>
</svg>
