<svg width="26" height="25" viewBox="0 0 26 25" fill="none" xmlns="http://www.w3.org/2000/svg">
<path id="Vector" d="M7.44905 0C3.37659 0 0.0626831 3.31391 0.0626831 7.38636V17.6136C0.0626831 21.6861 3.37659 25 7.44905 25H17.6763C21.7488 25 25.0627 21.6861 25.0627 17.6136V7.38636C25.0627 3.31391 21.7488 0 17.6763 0H7.44905ZM7.44905 1.13636H17.6763C21.1345 1.13636 23.9263 3.92813 23.9263 7.38636V17.6136C23.9263 21.0719 21.1345 23.8636 17.6763 23.8636H7.44905C3.99082 23.8636 1.19905 21.0719 1.19905 17.6136V7.38636C1.19905 3.92813 3.99082 1.13636 7.44905 1.13636ZM19.3809 4.54545C19.0795 4.54545 18.7904 4.66518 18.5773 4.87829C18.3642 5.0914 18.2445 5.38044 18.2445 5.68182C18.2445 5.9832 18.3642 6.27224 18.5773 6.48535C18.7904 6.69846 19.0795 6.81818 19.3809 6.81818C19.6822 6.81818 19.9713 6.69846 20.1844 6.48535C20.3975 6.27224 20.5172 5.9832 20.5172 5.68182C20.5172 5.38044 20.3975 5.0914 20.1844 4.87829C19.9713 4.66518 19.6822 4.54545 19.3809 4.54545ZM12.5627 6.25C9.11763 6.25 6.31268 9.05495 6.31268 12.5C6.31268 15.9451 9.11763 18.75 12.5627 18.75C16.0077 18.75 18.8127 15.9451 18.8127 12.5C18.8127 9.05495 16.0077 6.25 12.5627 6.25ZM12.5627 7.38636C15.3936 7.38636 17.6763 9.66909 17.6763 12.5C17.6763 15.3309 15.3936 17.6136 12.5627 17.6136C9.73177 17.6136 7.44905 15.3309 7.44905 12.5C7.44905 9.66909 9.73177 7.38636 12.5627 7.38636Z" fill="white"/>
</svg>
