<svg width="10" height="11" viewBox="0 0 10 11" fill="none" xmlns="http://www.w3.org/2000/svg">
<path id="Vector" fill-rule="evenodd" clip-rule="evenodd" d="M0.828427 9.94464C0.745089 9.8613 0.698611 9.74793 0.699217 9.62947C0.699823 9.511 0.747463 9.39715 0.831658 9.31296L8.31918 1.82543L4.344 1.84639C4.22539 1.847 4.11188 1.80046 4.02844 1.71702C3.94499 1.63358 3.89845 1.52006 3.89906 1.40145C3.89967 1.28284 3.94737 1.16884 4.03167 1.08454C4.11597 1.00024 4.22997 0.95254 4.34858 0.951933L9.40203 0.926087C9.46079 0.925712 9.51892 0.936932 9.5731 0.959104C9.62728 0.981276 9.67644 1.01396 9.71777 1.05529C9.7591 1.09663 9.79179 1.14579 9.81396 1.19997C9.83613 1.25415 9.84735 1.31228 9.84698 1.37103L9.82113 6.42449C9.82053 6.5431 9.77283 6.65709 9.68852 6.7414C9.60422 6.8257 9.49023 6.8734 9.37161 6.874C9.253 6.87461 9.13949 6.82807 9.05604 6.74463C8.9726 6.66119 8.92606 6.54767 8.92667 6.42906L8.94763 2.45388L1.46011 9.94141C1.37591 10.0256 1.26206 10.0732 1.1436 10.0738C1.02514 10.0745 0.911765 10.028 0.828427 9.94464Z" fill="white"/>
</svg>
