<svg width="26" height="25" viewBox="0 0 26 25" fill="none" xmlns="http://www.w3.org/2000/svg">
<path id="Vector" d="M19.8543 0H5.27102C2.39497 0 0.0626831 2.33229 0.0626831 5.20833V19.7917C0.0626831 22.6677 2.39497 25 5.27102 25H19.8543C22.7314 25 25.0627 22.6677 25.0627 19.7917V5.20833C25.0627 2.33229 22.7314 0 19.8543 0ZM8.39602 19.7917H5.27102V8.33333H8.39602V19.7917ZM6.83352 7.0125C5.82727 7.0125 5.0106 6.18958 5.0106 5.175C5.0106 4.16042 5.82727 3.3375 6.83352 3.3375C7.83977 3.3375 8.65643 4.16042 8.65643 5.175C8.65643 6.18958 7.84081 7.0125 6.83352 7.0125ZM20.896 19.7917H17.771V13.9542C17.771 10.4458 13.6043 10.7115 13.6043 13.9542V19.7917H10.4793V8.33333H13.6043V10.1719C15.0585 7.47813 20.896 7.27917 20.896 12.751V19.7917Z" fill="white"/>
</svg>
