<svg width="53" height="71" viewBox="0 0 53 71" fill="none" xmlns="http://www.w3.org/2000/svg">
<path d="M38.9352 27.2017C41.5928 24.5457 44.1387 22.0055 46.6774 19.4596C47.1895 18.946 47.7369 18.5072 48.4545 18.3135C49.9233 17.9158 51.4436 18.4837 52.2624 19.7486C53.0857 21.0194 53.0108 22.6468 52.013 23.8017C51.4377 24.4679 50.7847 25.0681 50.1625 25.6932C46.5717 29.2884 42.9839 32.8865 39.3784 36.467C39.0438 36.8001 38.925 37.1288 38.9264 37.5896C38.9382 47.2277 38.9352 56.8657 38.9352 66.5023C38.9352 69.402 37.3299 71 34.417 71C24.4209 71 14.4263 71 4.43016 71C1.62444 71 0 69.3712 0 66.5596C0 45.8527 0 25.1458 0 4.43897C0 1.62738 1.62444 0 4.43016 0C14.4498 0 24.4694 0 34.4889 0C37.3064 0 38.9352 1.61857 38.9367 4.42283C38.9382 11.6983 38.9367 18.9753 38.9367 26.2508C38.9352 26.5105 38.9352 26.7732 38.9352 27.2017ZM24.6308 50.3856C24.8568 50.3856 25.0827 50.3856 25.3087 50.3856C27.1459 50.3856 28.9832 50.3768 30.8189 50.39C31.557 50.3959 32.0413 50.8522 32.0589 51.4994C32.078 52.1729 31.5776 52.644 30.8072 52.6748C30.6883 52.6792 30.568 52.6762 30.4491 52.6762C23.1252 52.6762 15.8013 52.6762 8.4788 52.6762C8.26455 52.6762 8.04444 52.6924 7.83606 52.6542C7.34447 52.5662 7.0187 52.2624 6.90278 51.7782C6.79419 51.3203 6.95414 50.9315 7.31659 50.6336C7.61448 50.3885 7.97106 50.3841 8.33352 50.3841C11.6015 50.3871 14.8694 50.3768 18.1374 50.3973C18.5806 50.4003 18.8168 50.2711 19.0105 49.869C19.7868 48.2593 20.6012 46.6701 21.3892 45.0662C21.602 44.6318 21.8779 44.2591 22.2213 43.9172C26.8818 39.2669 31.535 34.6078 36.1926 29.9546C36.4494 29.6993 36.6534 29.4659 36.6534 29.0477C36.6387 20.7465 36.6461 12.4438 36.6387 4.14255C36.6373 3.00382 35.9417 2.29946 34.8147 2.29359C32.0721 2.28038 29.328 2.30239 26.5854 2.27451C26.1319 2.27011 26.0234 2.47262 25.9397 2.82773C25.702 3.82412 25.4379 4.81316 25.2045 5.80954C25.0402 6.51391 24.6278 6.87196 23.8956 6.87049C20.9373 6.86609 17.9789 6.86756 15.0206 6.87049C14.3236 6.87196 13.9039 6.53886 13.7395 5.86677C13.5003 4.89534 13.2391 3.92977 13.0234 2.95393C12.9178 2.47702 12.7461 2.26277 12.1899 2.27158C9.61458 2.30973 7.03778 2.28772 4.46098 2.28919C2.89523 2.29065 2.28772 2.88936 2.28772 4.44043C2.28772 25.1473 2.28772 45.8542 2.28772 66.5596C2.28772 68.1077 2.8967 68.7064 4.46538 68.7064C14.4615 68.7064 24.4561 68.7064 34.4523 68.7064C36.0503 68.7064 36.6417 68.1106 36.6417 66.4979C36.6417 57.6948 36.6417 48.8932 36.6417 40.0901C36.6417 39.8627 36.6417 39.6367 36.6417 39.2596C36.3438 39.534 36.1545 39.6998 35.9769 39.8759C33.9519 41.898 31.9576 43.9539 29.8944 45.9378C28.2509 47.5212 26.9229 49.5022 24.6308 50.3856ZM45.3054 27.2897C45.2144 27.1812 45.1454 27.0872 45.0647 27.0051C44.7976 26.7321 44.4924 26.49 44.2635 26.1877C43.882 25.6858 43.6266 25.7196 43.1746 26.176C37.2888 32.0985 31.378 37.9961 25.4731 43.8996C24.2698 45.1028 24.283 45.0882 25.4569 46.2915C25.7988 46.6422 25.9823 46.6701 26.3403 46.3017C27.8694 44.7287 29.4351 43.1879 30.9862 41.6368C35.6086 37.0144 40.231 32.3935 44.8519 27.7696C45.0031 27.6214 45.1439 27.4629 45.3054 27.2897ZM15.2158 2.28919C15.3948 3.00236 15.5694 3.64069 15.7103 4.28636C15.7631 4.52701 15.8761 4.58278 16.0962 4.58131C18.3326 4.57691 20.5689 4.57984 22.8068 4.57544C22.9579 4.57544 23.1457 4.6356 23.1986 4.38614C23.3409 3.71406 23.7811 3.00529 23.5772 2.40218C23.4642 2.06761 22.5852 2.30973 22.054 2.29506C21.2219 2.27011 20.3884 2.28919 19.5564 2.28919C18.133 2.28919 16.7111 2.28919 15.2158 2.28919ZM50.5382 21.5653C50.5485 21.2894 50.4428 21.0561 50.2697 20.8521C49.9615 20.4926 49.5521 20.3635 49.1163 20.4912C48.5454 20.6584 48.2153 21.1544 47.8455 21.5785C47.8235 21.6035 47.9012 21.7487 47.9599 21.8089C48.3737 22.2315 48.7949 22.6468 49.2131 23.065C49.2821 23.134 49.351 23.1765 49.4596 23.1472C49.8074 23.0489 50.5485 21.9689 50.5382 21.5653ZM46.0215 23.1575C45.8307 23.4143 45.6473 23.6623 45.4653 23.9088C45.2848 24.1539 45.5343 24.2434 45.6473 24.3622C45.9892 24.7232 46.3443 25.071 46.6994 25.4188C46.8109 25.5288 46.8916 25.6609 47.1103 25.5303C47.7002 25.1752 47.7633 24.8406 47.282 24.3578C47.0149 24.0893 46.7478 23.8207 46.4778 23.5551C46.3795 23.4583 46.2695 23.3717 46.0215 23.1575ZM22.93 47.1103C22.6424 47.6885 22.3519 48.2754 21.9821 49.0209C22.4282 48.7993 22.682 48.6746 22.9359 48.5469C24.1084 47.9614 24.1084 47.9599 23.0342 47.1294C23.0181 47.1176 22.9902 47.1206 22.93 47.1103Z" fill="#000001"/>
<path d="M24.6308 50.3856C26.9229 49.5022 28.2509 47.5212 29.8974 45.9393C31.9606 43.9553 33.9548 41.8995 35.9798 39.8773C36.1574 39.6998 36.3467 39.5354 36.6446 39.261C36.6446 39.6382 36.6446 39.8656 36.6446 40.0916C36.6446 48.8947 36.6446 57.6963 36.6446 66.4994C36.6446 68.1121 36.0532 68.7079 34.4552 68.7079C24.4591 68.7079 14.4644 68.7079 4.46831 68.7079C2.89963 68.7079 2.29065 68.1077 2.29065 66.5611C2.29065 45.8542 2.29065 25.1473 2.29065 4.44191C2.29065 2.89084 2.89816 2.29067 4.46391 2.29067C7.04071 2.2892 9.61751 2.31121 12.1928 2.27306C12.749 2.26425 12.9207 2.4785 13.0263 2.95541C13.2421 3.93125 13.5033 4.89682 13.7425 5.86825C13.9083 6.54034 14.328 6.87344 15.0235 6.87197C17.9819 6.86904 20.9402 6.86757 23.8985 6.87197C24.6308 6.87344 25.0416 6.51539 25.2075 5.81102C25.4408 4.81464 25.7049 3.82559 25.9426 2.82921C26.0278 2.47409 26.1349 2.27159 26.5883 2.27599C29.3309 2.30387 32.075 2.28039 34.8176 2.29507C35.9446 2.30094 36.6402 3.0053 36.6417 4.14403C36.649 12.4453 36.6417 20.748 36.6563 29.0492C36.6563 29.4674 36.4524 29.7007 36.1956 29.9561C31.5379 34.6093 26.8847 39.2669 22.2242 43.9186C21.8823 44.2606 21.6064 44.6333 21.3922 45.0676C20.6041 46.6715 19.7897 48.2608 19.0135 49.8705C18.8198 50.2711 18.5835 50.4017 18.1403 50.3988C14.8724 50.3783 11.6044 50.39 8.33645 50.3856C7.97399 50.3856 7.61741 50.39 7.31952 50.6351C6.95707 50.9344 6.79712 51.3233 6.90571 51.7797C7.02017 52.2624 7.34594 52.5662 7.83899 52.6557C8.04737 52.6939 8.26748 52.6777 8.48173 52.6777C15.8057 52.6792 23.1296 52.6777 30.452 52.6777C30.5709 52.6777 30.6912 52.6807 30.8101 52.6763C31.5805 52.6454 32.0794 52.1759 32.0618 51.5008C32.0442 50.8537 31.56 50.3973 30.8218 50.3915C28.9846 50.3783 27.1474 50.3871 25.3116 50.3871C25.0827 50.3856 24.8567 50.3856 24.6308 50.3856ZM19.392 67.5633C20.8683 67.5633 22.343 67.5677 23.8193 67.5618C24.666 67.5574 25.1752 67.1319 25.1899 66.4407C25.2045 65.7437 24.6924 65.2785 23.8648 65.2756C20.9372 65.2682 18.0097 65.2682 15.0822 65.2756C14.2487 65.2771 13.7395 65.7334 13.7483 66.4305C13.7571 67.1245 14.2649 67.5574 15.1086 67.5618C16.535 67.5692 17.9628 67.5633 19.392 67.5633ZM14.8313 19.4698C14.4409 19.4786 14.1108 19.7061 13.8554 20.0935C13.1481 21.1677 12.435 22.2374 11.713 23.3013C11.3594 23.8222 11.3843 24.3109 11.735 24.8245C12.4467 25.8678 13.132 26.9273 13.8437 27.9706C14.2986 28.6398 14.9179 28.8041 15.4916 28.4446C16.0889 28.069 16.1945 27.4013 15.7411 26.6969C15.2906 25.9955 14.8401 25.2926 14.347 24.6205C14.0535 24.2214 14.011 23.9176 14.328 23.495C14.8709 22.7715 15.3698 22.0129 15.835 21.2381C16.3134 20.4383 15.7983 19.4948 14.8313 19.4698ZM24.17 19.4669C23.1296 19.4625 22.6057 20.4325 23.1134 21.2601C23.6109 22.0701 24.148 22.8567 24.6953 23.6344C24.9066 23.9338 24.911 24.1553 24.6983 24.4562C24.1627 25.2133 23.6505 25.9867 23.1516 26.7688C22.7466 27.4042 22.8508 28.0308 23.3864 28.4094C23.9455 28.8071 24.6073 28.6765 25.0504 28.0337C25.7915 26.9567 26.5047 25.859 27.234 24.7746C27.5641 24.283 27.5597 23.8046 27.2296 23.313C26.4988 22.2286 25.7754 21.1398 25.0504 20.0495C24.8113 19.69 24.4899 19.4772 24.17 19.4669ZM18.4221 28.6236C18.9049 28.5899 19.2673 28.2817 19.4419 27.7608C20.1977 25.5083 20.9519 23.2558 21.6871 20.996C21.9057 20.3253 21.5697 19.7017 20.9534 19.508C20.3664 19.3246 19.753 19.6107 19.5315 20.2593C18.7464 22.5514 17.9745 24.8494 17.2335 27.1577C16.9899 27.9134 17.5754 28.6354 18.4221 28.6236Z" fill="#005CFF"/>
<path d="M45.3054 27.2897C45.1439 27.4614 45.0031 27.6214 44.8534 27.7711C40.2325 32.3934 35.6101 37.0158 30.9877 41.6382C29.4351 43.1908 27.8709 44.7301 26.3418 46.3032C25.9837 46.6715 25.8003 46.6436 25.4584 46.2929C24.2845 45.0896 24.2713 45.1043 25.4745 43.901C31.3795 37.9976 37.2903 32.1 43.1761 26.1774C43.6296 25.7225 43.8834 25.6888 44.265 26.1892C44.4939 26.49 44.7991 26.7336 45.0662 27.0065C45.1454 27.0887 45.2144 27.1811 45.3054 27.2897Z" fill="#005CFF"/>
<path d="M15.2158 2.28924C16.7111 2.28924 18.133 2.28924 19.5549 2.28924C20.3884 2.28924 21.2205 2.27163 22.0525 2.29511C22.5852 2.31125 23.4627 2.06766 23.5757 2.40223C23.7797 3.00534 23.3394 3.71411 23.1971 4.38619C23.1443 4.63712 22.9564 4.57549 22.8053 4.57549C20.5689 4.57989 18.3326 4.57549 16.0947 4.58136C15.8746 4.58136 15.7616 4.52706 15.7088 4.28641C15.5709 3.64074 15.3963 3.00094 15.2158 2.28924Z" fill="#D6D5D8"/>
<path d="M50.5382 21.5653C50.5485 21.9689 49.8074 23.0489 49.4596 23.1487C49.3525 23.1795 49.2821 23.137 49.2131 23.0665C48.7949 22.6483 48.3738 22.233 47.9599 21.8104C47.8998 21.7488 47.822 21.605 47.8455 21.58C48.2153 21.1559 48.5454 20.6599 49.1163 20.4927C49.5521 20.365 49.9615 20.4941 50.2697 20.8536C50.4428 21.0561 50.5485 21.2895 50.5382 21.5653Z" fill="#005CFF"/>
<path d="M46.0214 23.1574C46.2694 23.3732 46.3795 23.4583 46.4778 23.5551C46.7478 23.8193 47.0149 24.0893 47.282 24.3578C47.7633 24.8406 47.7002 25.1752 47.1103 25.5303C46.8916 25.6623 46.8109 25.5288 46.6994 25.4187C46.3443 25.071 45.9892 24.7232 45.6472 24.3622C45.5343 24.2433 45.2848 24.1553 45.4653 23.9088C45.6487 23.6608 45.8321 23.4142 46.0214 23.1574Z" fill="#ECCA3F"/>
<path d="M22.93 47.1103C22.9916 47.1206 23.0181 47.1176 23.0342 47.1294C24.1098 47.9599 24.1098 47.9614 22.9359 48.5469C22.682 48.6731 22.4267 48.7993 21.9821 49.0209C22.3518 48.2754 22.6424 47.6885 22.93 47.1103Z" fill="#A1A0A6"/>
<path d="M19.3921 67.5633C17.9643 67.5633 16.5365 67.5691 15.1086 67.5618C14.2649 67.5574 13.7557 67.1245 13.7483 66.4304C13.7395 65.7319 14.2487 65.277 15.0822 65.2755C18.0098 65.2697 20.9373 65.2682 23.8648 65.2755C24.6924 65.277 25.2045 65.7436 25.1899 66.4407C25.1752 67.1318 24.666 67.5589 23.8193 67.5618C22.3431 67.5691 20.8668 67.5633 19.3921 67.5633Z" fill="#000102"/>
<path d="M14.8313 19.4698C15.7983 19.4947 16.3134 20.4383 15.8336 21.238C15.3684 22.0128 14.868 22.773 14.3265 23.4949C14.0095 23.9176 14.0536 24.2213 14.3456 24.6205C14.8386 25.2911 15.2891 25.9954 15.7396 26.6969C16.1931 27.4012 16.0874 28.0689 15.4902 28.4446C14.9164 28.8056 14.2986 28.6397 13.8423 27.9706C13.132 26.9273 12.4453 25.8678 11.7336 24.8244C11.3843 24.3108 11.3594 23.8222 11.7116 23.3012C12.4335 22.2374 13.1467 21.1676 13.854 20.0934C14.1093 19.7075 14.441 19.4786 14.8313 19.4698Z" fill="#000306"/>
<path d="M24.17 19.4669C24.4899 19.4771 24.8112 19.6899 25.0504 20.0494C25.7753 21.1383 26.4988 22.2271 27.2296 23.313C27.5597 23.8031 27.5641 24.283 27.234 24.7746C26.5047 25.8605 25.793 26.9566 25.0504 28.0337C24.6073 28.6764 23.9469 28.807 23.3864 28.4094C22.8508 28.0293 22.7466 27.4027 23.1516 26.7688C23.6505 25.9867 24.1626 25.2133 24.6982 24.4561C24.911 24.1553 24.9066 23.9337 24.6953 23.6344C24.148 22.8566 23.6109 22.0701 23.1134 21.2601C22.6057 20.4324 23.1296 19.4625 24.17 19.4669Z" fill="#000205"/>
<path d="M18.4221 28.6236C17.5754 28.6353 16.9899 27.9134 17.2335 27.1562C17.9745 24.8494 18.7464 22.5514 19.5315 20.2578C19.7531 19.6092 20.3664 19.323 20.9534 19.5065C21.5697 19.6987 21.9043 20.3238 21.6871 20.9944C20.9519 23.2543 20.1977 25.5068 19.442 27.7593C19.2673 28.2817 18.9049 28.5898 18.4221 28.6236Z" fill="#000306"/>
</svg>
