<svg width="71" height="71" viewBox="0 0 71 71" fill="none" xmlns="http://www.w3.org/2000/svg">
<g id="Group">
<path id="Vector" d="M55.1573 70.997C54.5112 70.5964 53.7631 70.447 53.0593 70.2031C52.2388 69.9177 51.8499 69.4328 51.8618 68.5812C51.8928 66.5098 51.3827 66.8868 50.0136 67.2106C49.1532 67.4132 48.4834 67.2993 48.0014 66.4802C47.6629 65.9066 47.2592 65.3699 46.866 64.8303C46.4431 64.2492 46.4594 63.6903 46.8704 63.1108C47.0833 62.8106 47.2666 62.4898 47.4529 62.1719C47.7323 61.6929 47.5904 61.242 47.0803 61.0054C46.6634 60.8117 46.2406 60.6284 45.8118 60.4599C45.2958 60.2573 45.0563 59.8729 45.0504 59.3406C45.04 58.4639 45.0445 57.5857 45.0474 56.7089C45.0489 56.1974 45.2988 55.8337 45.7438 55.6015C46.1725 55.3783 46.6057 55.1654 47.0345 54.9407C47.6141 54.6361 47.7412 54.2088 47.4115 53.6632C46.2553 51.7397 46.1504 52.1848 47.5623 49.9493C47.7575 49.6403 48.0147 49.3682 48.2557 49.0888C48.6327 48.6512 49.0852 48.4664 49.6751 48.6364C50.0713 48.7517 50.4882 48.7975 50.8948 48.8759C51.4685 48.9868 51.8204 48.7665 51.813 48.2091C51.7834 46.1437 52.1974 45.8849 54.3264 45.2152C54.4358 45.1812 54.5541 45.1679 54.6591 45.125C55.6201 44.7347 56.3504 44.9283 56.9758 45.8214C57.8792 47.1106 58.0463 47.0677 59.0561 45.8066C59.8752 44.7835 60.0393 44.7509 61.3034 45.1472C61.8297 45.3128 62.3368 45.5419 62.8676 45.6824C63.7621 45.9204 64.1702 46.4808 64.1317 47.3915C64.1273 47.5068 64.1569 47.6222 64.1509 47.7375C64.0933 48.7103 64.3077 49.1982 65.5038 48.7828C66.8359 48.32 67.7244 48.731 68.3587 49.9123C68.4016 49.9922 68.4592 50.0676 68.5199 50.1371C69.5312 51.2681 69.6834 52.3888 68.6248 53.6159C68.1562 54.1585 68.3439 54.6272 69.0033 54.9894C69.3863 55.1994 69.7707 55.4093 70.1625 55.6045C70.5114 55.779 70.7657 56.02 70.8322 56.4206C70.8293 56.9056 70.7997 57.392 70.8322 57.874C70.8721 58.458 70.6711 59.0627 70.9608 59.6275C70.9608 59.6733 70.9608 59.7206 70.9608 59.7664C70.5025 60.4347 69.7529 60.6269 69.0684 60.9256C68.3336 61.2464 68.1281 61.7047 68.6337 62.2991C69.6553 63.4981 69.5459 64.6026 68.5864 65.7381C68.409 65.948 68.2537 66.1786 68.0985 66.4078C67.5529 67.2062 66.8433 67.5152 65.8956 67.181C65.6368 67.0894 65.3574 67.0569 65.0868 67.0081C64.5206 66.9075 64.213 67.1426 64.1746 67.7074C64.1554 67.9839 64.1406 68.2603 64.1317 68.5368C64.1021 69.3559 63.7266 69.8926 62.9548 70.2326C62.223 70.555 61.4231 70.6555 60.7046 71C60.4739 71 60.2418 71 60.0112 71C59.4494 70.5964 59.0206 70.0656 58.5874 69.5363C58.1734 69.0292 57.8378 69.0321 57.4164 69.5215C56.9684 70.0404 56.5855 70.6215 55.9912 71C55.7117 70.997 55.4353 70.997 55.1573 70.997ZM65.9577 64.6233C66.3288 64.7164 66.416 64.3941 66.589 64.196C66.7826 63.9757 66.7531 63.7717 66.6156 63.5159C66.3243 62.9748 65.8394 62.512 65.8142 61.8555C65.7654 60.6018 66.5875 59.2283 67.7658 58.8542C68.5169 58.6162 68.5376 58.1505 68.4489 57.596C68.3617 57.0505 67.7851 57.1155 67.4214 56.9425C66.5964 56.5493 65.6043 54.6228 65.8453 53.7564C65.8882 53.6041 65.9798 53.4651 66.0582 53.3247C66.2282 53.0231 66.379 52.7067 66.583 52.4302C66.7974 52.1374 66.7383 51.9201 66.5609 51.6288C66.311 51.2178 65.9961 51.2563 65.6132 51.3361C65.0173 51.4603 64.4082 51.8196 63.805 51.444C62.6843 50.7477 61.4985 50.0705 61.7676 48.425C61.7706 48.4028 61.7587 48.3791 61.7617 48.357C61.8105 47.8439 61.398 47.8114 61.0713 47.6532C60.678 47.4625 60.5907 47.7907 60.4237 47.977C59.986 48.4693 59.6667 49.1184 58.8994 49.1834C57.5406 49.2988 56.1863 49.3963 55.3953 47.9149C55.283 47.7064 55.1307 47.4787 54.7906 47.6591C54.4994 47.8129 54.1091 47.8114 54.1253 48.3023C54.1371 48.6467 54.078 48.9927 54.0484 49.3372C54.0159 49.7142 53.9242 50.0838 53.6123 50.3204C52.6143 51.0789 51.671 52.0266 50.2221 51.342C49.9323 51.206 49.6366 51.209 49.3868 51.5623C49.1399 51.9127 49.1118 52.167 49.3232 52.544C49.6115 53.06 50.0373 53.5361 50.0595 54.163C50.1038 55.4153 49.2788 56.7622 48.099 57.1584C47.3834 57.3994 47.3125 57.8474 47.4145 58.4166C47.512 58.9636 48.0842 58.8971 48.4494 59.0701C49.2877 59.4693 50.2665 61.375 50.0225 62.2562C49.9796 62.4085 49.8939 62.5519 49.8155 62.6909C49.6337 63.0117 49.4592 63.3385 49.2537 63.6445C49.0852 63.8929 49.1221 64.091 49.2774 64.3291C49.508 64.6839 49.7387 64.8081 50.1881 64.6528C50.7795 64.4488 51.4212 64.0452 52.0451 64.4429C53.1185 65.1274 54.3752 65.7262 54.1076 67.3733C54.1002 67.4161 54.1283 67.4664 54.1238 67.5108C54.0677 68.006 54.4358 68.0829 54.7788 68.2382C55.2031 68.4304 55.2918 68.0844 55.4767 67.8819C55.8906 67.4294 56.1715 66.7907 56.8783 66.7301C58.2695 66.6118 59.6933 66.4536 60.5006 68.012C60.6558 68.3121 60.8731 68.2914 61.1866 68.219C61.8238 68.0681 61.7765 67.5921 61.7883 67.1426C61.8046 66.43 61.9022 65.7972 62.5409 65.3108C63.5403 64.5523 64.5413 63.986 65.8216 64.5981C65.863 64.6218 65.9133 64.6174 65.9577 64.6233Z" fill="#020303"/>
<path id="Vector_2" d="M70.9639 59.6275C70.6741 59.0612 70.8766 58.458 70.8352 57.874C70.8012 57.392 70.8323 56.9056 70.8352 56.4206C70.8751 56.4517 70.918 56.4576 70.9639 56.4398C70.9639 57.5014 70.9639 58.5644 70.9639 59.6275Z" fill="#2C2C2C"/>
<path id="Vector_3" d="M33.0894 44.9387C32.2748 44.9313 31.2339 44.887 30.2123 44.6829C29.686 44.578 29.3267 44.6874 28.9837 45.1487C28.0744 46.3714 27.1045 47.5482 26.1568 48.7414C25.2904 49.8325 24.7596 49.9064 23.667 49.0918C23.2043 48.7473 22.7149 48.4309 22.2906 48.0435C21.8795 47.6695 21.6607 47.7745 21.3399 48.1736C17.0774 53.4578 12.7957 58.7271 8.52142 64.0023C7.46873 65.3019 6.97344 65.3596 5.67681 64.3217C4.05343 63.0236 2.43005 61.7255 0.80815 60.4273C-0.18835 59.6304 -0.253404 59.0464 0.558285 58.047C4.81337 52.8161 9.0655 47.5823 13.3383 42.3647C13.6665 41.964 13.6887 41.7747 13.2363 41.4924C12.6508 41.1272 12.1067 40.6925 11.5464 40.2859C10.4287 39.4728 10.3577 38.8533 11.2522 37.7636C12.058 36.7819 12.8445 35.7824 13.6784 34.8259C13.9992 34.4577 14.045 34.1916 13.7878 33.754C11.6351 30.1154 10.5573 26.1738 10.6652 21.9468C10.8057 16.4335 12.7188 11.5914 16.4062 7.47977C19.3129 4.23597 22.8938 2.02859 27.0779 0.86206C32.3931 -0.620863 37.5944 -0.186188 42.5976 2.13208C47.0937 4.21527 50.5237 7.47681 52.8686 11.8517C53.1466 12.3706 53.3728 12.4327 53.6921 11.9522C54.6265 10.5491 55.8389 10.6009 57.1828 11.2514C57.4726 11.3918 57.7757 11.5042 58.0729 11.6269C58.5283 11.8132 58.753 12.1562 58.7722 12.6412C58.7767 12.7565 58.7796 12.8718 58.7929 12.9871C58.96 14.436 58.8328 14.7924 60.4636 14.2793C61.2443 14.0339 61.812 14.2453 62.2511 14.9106C62.3649 15.0836 62.5305 15.2196 62.6473 15.3912C64.0312 17.4226 63.9159 17.1624 62.9223 18.8686C62.535 19.5324 62.5912 19.6773 63.32 19.9848C63.5536 20.0839 63.7828 20.1933 64.0238 20.2731C64.6596 20.486 64.9301 20.9251 64.9094 21.5875C64.8902 22.2114 64.8769 22.8368 64.9139 23.4578C64.9597 24.2399 64.627 24.7115 63.9011 24.9851C62.2925 25.5898 62.467 25.6326 63.2461 26.9426C63.7458 27.7823 63.7651 28.4787 63.1175 29.2002C63.0258 29.3022 62.9667 29.4323 62.8839 29.5432C61.4719 31.4608 61.6361 31.344 59.6194 30.8399C59.1108 30.7127 58.8713 30.8561 58.8683 31.3943C58.8668 31.6708 58.7988 31.9458 58.7914 32.2222C58.7767 32.7589 58.5179 33.1951 58.0862 33.4228C57.2716 33.8515 56.3919 34.1605 55.4767 34.2833C54.7921 34.3764 54.4077 33.8441 54.0026 33.3991C53.2205 32.5357 53.2456 32.5534 52.6542 33.5618C48.8146 40.1011 43.1564 43.8919 35.6029 44.8145C34.8355 44.9062 34.0756 44.9224 33.0894 44.9387ZM33.1471 42.5746C44.2387 42.5436 53.2782 33.5041 53.2013 22.4509C53.1244 11.2603 44.2564 2.41447 33.0791 2.39821C21.9771 2.38342 12.9717 11.4761 13.016 22.5189C13.0589 33.6179 22.0806 42.6057 33.1471 42.5746ZM19.7904 46.4556C19.7697 46.2087 19.5687 46.1481 19.4297 46.0461C18.3105 45.2315 17.172 44.4419 16.0706 43.6036C15.6876 43.3124 15.5014 43.4159 15.2397 43.7367C11.2285 48.6542 7.21148 53.5701 3.17964 58.4698C2.86768 58.8498 2.97709 59.0139 3.29496 59.2682C4.34025 60.105 5.37963 60.9478 6.39092 61.8245C6.75167 62.138 6.93352 62.138 7.24844 61.7535C11.3365 56.7489 15.4437 51.759 19.545 46.7661C19.6322 46.6612 19.715 46.5532 19.7904 46.4556ZM60.3084 28.5719C60.5139 28.6443 60.6603 28.5186 60.8037 28.3457C60.9737 28.1431 60.9693 27.9672 60.851 27.7247C60.5922 27.1939 60.0703 26.7356 60.1502 26.1043C60.3039 24.886 60.4799 23.6426 61.9303 23.1961C62.2304 23.1044 62.4241 22.9492 62.4344 22.5618C62.4448 22.1404 62.2008 22.0251 61.9081 21.8654C61.4734 21.6274 60.9012 21.5431 60.7016 21.0064C60.2788 19.8695 59.7273 18.7266 60.7608 17.5956C60.9397 17.4004 61.2309 17.1757 60.9101 16.7721C60.5982 16.3788 60.3202 16.5577 59.9979 16.636C59.4893 16.7588 58.9615 17.0249 58.4647 16.6774C57.4475 15.9663 56.3431 15.2921 56.5441 13.7663C56.5781 13.5031 56.4628 13.3641 56.1937 13.268C55.904 13.1645 55.728 13.2015 55.5417 13.441C55.2859 13.7678 55.0302 14.1063 54.7197 14.3754C54.2081 14.8175 54.2067 15.264 54.4063 15.8924C55.7546 20.1327 55.8833 24.4291 54.5985 28.6901C54.22 29.9454 54.3087 30.8118 55.3451 31.5895C55.5683 31.7565 55.7014 31.9472 56.0503 31.8408C56.4229 31.7284 56.3948 31.4874 56.4318 31.2154C56.5116 30.6314 56.4288 29.9897 56.9197 29.5329C57.8275 28.6857 58.7412 27.8282 60.1369 28.5334C60.1797 28.5512 60.2285 28.5541 60.3084 28.5719ZM24.5083 46.7513C24.7345 46.7513 24.7981 46.5813 24.8927 46.463C25.4397 45.7785 25.9646 45.0747 26.5323 44.4079C26.8399 44.0457 26.7038 43.9333 26.3313 43.8239C25.2904 43.5194 24.2924 43.0995 23.3211 42.619C20.4277 41.1863 17.9468 39.2288 15.8828 36.7494C15.5871 36.3945 15.4171 36.3561 15.1243 36.7449C14.7237 37.2787 14.2846 37.7887 13.8247 38.2737C13.5187 38.596 13.5719 38.7542 13.9194 39.007C17.3509 41.5027 20.7677 44.0176 24.1904 46.5266C24.3013 46.6064 24.4151 46.6848 24.5083 46.7513Z" fill="#030202"/>
<path id="Vector_4" d="M65.9591 64.6233C65.9133 64.6174 65.863 64.6203 65.8231 64.6026C64.5427 63.989 63.5403 64.5553 62.5423 65.3152C61.9022 65.8016 61.8061 66.4344 61.7898 67.1471C61.7795 67.5965 61.8268 68.0726 61.1881 68.2234C60.8746 68.2973 60.6573 68.318 60.502 68.0164C59.6948 66.4596 58.271 66.6178 56.8797 66.7346C56.173 66.7937 55.8921 67.4339 55.4781 67.8863C55.2933 68.0874 55.2046 68.4333 54.7803 68.2426C54.4373 68.0874 54.0691 68.0105 54.1253 67.5152C54.1298 67.4708 54.1031 67.4221 54.1091 67.3777C54.3767 65.7307 53.1214 65.1319 52.0466 64.4473C51.4226 64.0496 50.781 64.4533 50.1896 64.6573C49.7387 64.8125 49.508 64.6883 49.2788 64.3335C49.1236 64.094 49.0881 63.8973 49.2552 63.649C49.4607 63.3444 49.6352 63.0176 49.817 62.6953C49.8954 62.5549 49.9811 62.4129 50.024 62.2607C50.2694 61.3795 49.2907 59.4737 48.4509 59.0745C48.0857 58.9015 47.5135 58.9681 47.416 58.421C47.3154 57.8518 47.3849 57.4038 48.1005 57.1628C49.2788 56.7666 50.1038 55.4197 50.061 54.1674C50.0388 53.5391 49.613 53.0645 49.3247 52.5485C49.1133 52.1715 49.1413 51.9172 49.3883 51.5668C49.6381 51.2119 49.9353 51.209 50.2236 51.3465C51.6725 52.031 52.6143 51.0818 53.6138 50.3248C53.9242 50.0883 54.0159 49.7187 54.0499 49.3416C54.0795 48.9972 54.1386 48.6497 54.1268 48.3067C54.1105 47.8158 54.4994 47.8173 54.7921 47.6636C55.1322 47.4847 55.2845 47.7109 55.3968 47.9193C56.1878 49.3993 57.5421 49.3017 58.9008 49.1879C59.6682 49.1228 59.9875 48.4753 60.4252 47.9814C60.5907 47.7951 60.6795 47.4669 61.0727 47.6576C61.3995 47.8158 61.812 47.8484 61.7632 48.3614C61.7617 48.3836 61.7735 48.4087 61.7691 48.4294C61.5 50.075 62.6858 50.7506 63.8065 51.4485C64.4097 51.824 65.0188 51.4648 65.6146 51.3406C65.9991 51.2607 66.3125 51.2223 66.5624 51.6333C66.7398 51.9246 66.7989 52.1419 66.5845 52.4346C66.3805 52.7126 66.2297 53.0275 66.0597 53.3291C65.9813 53.4696 65.8896 53.6086 65.8468 53.7608C65.6043 54.6258 66.5964 56.5522 67.4228 56.947C67.7865 57.12 68.3631 57.0549 68.4504 57.6005C68.5391 58.1549 68.5184 58.6206 67.7673 58.8587C66.589 59.2327 65.7669 60.6062 65.8157 61.86C65.8409 62.5164 66.3258 62.9792 66.6171 63.5203C66.756 63.7776 66.7856 63.9801 66.5904 64.2004C66.416 64.3926 66.3288 64.7164 65.9591 64.6233ZM58.2207 63.8219C61.6257 63.68 63.9351 60.9005 63.8257 57.8208C63.6911 54.0358 60.7253 51.9556 57.7565 52.0606C54.0854 52.1892 51.7124 55.2852 52.0865 58.7345C52.4029 61.6471 55.2298 64.0629 58.2207 63.8219Z" fill="#005CFF"/>
<path id="Vector_5" d="M33.1471 42.5746C22.0806 42.6056 13.0589 33.6179 13.016 22.5204C12.9731 11.4776 21.9771 2.38489 33.0791 2.39967C44.2579 2.41594 53.1244 11.2602 53.2013 22.4524C53.2782 33.5026 44.2387 42.5421 33.1471 42.5746ZM33.1397 40.2149C42.9214 40.1854 50.8904 32.2355 50.8402 22.476C50.7884 12.6633 43.0677 4.7756 33.122 4.76969C23.1377 4.76525 15.3964 12.6973 15.3905 22.5278C15.386 32.3213 23.3891 40.2445 33.1397 40.2149Z" fill="#005CFF"/>
<path id="Vector_6" d="M19.7905 46.4556C19.7151 46.5517 19.6308 46.6611 19.5436 46.7676C15.4422 51.7619 11.335 56.7503 7.24699 61.755C6.93207 62.1394 6.7517 62.1394 6.38947 61.826C5.37818 60.9492 4.3388 60.105 3.29351 59.2697C2.97712 59.0154 2.86623 58.8513 3.17819 58.4713C7.2115 53.5701 11.2271 48.6556 15.2382 43.7382C15.4999 43.4173 15.6877 43.3139 16.0691 43.6051C17.1706 44.4434 18.309 45.2314 19.4282 46.0476C19.5702 46.1481 19.7698 46.2087 19.7905 46.4556Z" fill="#005CFF"/>
<path id="Vector_7" d="M60.3084 28.5719C60.2285 28.5526 60.1797 28.5512 60.1398 28.5319C58.7456 27.8267 57.8304 28.6842 56.9226 29.5314C56.4332 29.9882 56.516 30.6314 56.4347 31.2139C56.3978 31.4874 56.4244 31.7269 56.0533 31.8393C55.7029 31.9458 55.5713 31.755 55.348 31.588C54.3116 30.8118 54.2229 29.9439 54.6014 28.6887C55.8847 24.4277 55.7576 20.1312 54.4092 15.8909C54.2096 15.2625 54.2111 14.8175 54.7226 14.374C55.0331 14.1049 55.2904 13.7663 55.5447 13.4395C55.731 13.2015 55.9069 13.1645 56.1967 13.2666C56.4658 13.3627 56.5826 13.5016 56.5471 13.7648C56.346 15.2906 57.4504 15.9648 58.4676 16.676C58.9644 17.0234 59.4922 16.7558 60.0008 16.6346C60.3231 16.5577 60.5996 16.3773 60.9131 16.7706C61.2324 17.1742 60.9412 17.3975 60.7637 17.5941C59.7317 18.7251 60.2832 19.868 60.7046 21.005C60.9042 21.5417 61.4764 21.6274 61.911 21.864C62.2038 22.0236 62.4477 22.139 62.4374 22.5603C62.427 22.9462 62.2333 23.1015 61.9332 23.1946C60.4828 23.6396 60.3054 24.8845 60.1531 26.1028C60.0733 26.7341 60.5937 27.1924 60.8539 27.7232C60.9722 27.9657 60.9766 28.1416 60.8066 28.3442C60.6602 28.5186 60.5139 28.6443 60.3084 28.5719Z" fill="#005CFF"/>
<path id="Vector_8" d="M24.5083 46.7513C24.4152 46.6848 24.3013 46.6079 24.1904 46.5266C20.7692 44.0176 17.351 41.5027 13.9194 39.007C13.572 38.7542 13.5187 38.596 13.8248 38.2737C14.2846 37.7888 14.7237 37.2802 15.1244 36.7449C15.4156 36.3546 15.5871 36.3945 15.8828 36.7494C17.9468 39.2288 20.4292 41.1863 23.3211 42.619C24.2925 43.0995 25.2904 43.5194 26.3313 43.8239C26.7039 43.9333 26.8384 44.0457 26.5324 44.4079C25.9661 45.0762 25.4412 45.7785 24.8927 46.463C24.7981 46.5813 24.7345 46.7513 24.5083 46.7513Z" fill="#005CFF"/>
<path id="Vector_9" d="M58.2208 63.8219C55.2283 64.0629 52.4029 61.6471 52.0865 58.733C51.7125 55.2837 54.0854 52.1892 57.7565 52.0591C60.7253 51.9541 63.6912 54.0343 63.8257 57.8193C63.9366 60.9004 61.6257 63.68 58.2208 63.8219ZM57.9339 61.477C59.9373 61.4785 61.5 59.9187 61.4823 57.9361C61.4646 55.9416 59.8752 54.37 57.9073 54.401C55.9306 54.4306 54.4255 55.9475 54.4048 57.9287C54.3841 59.9276 55.9232 61.4756 57.9339 61.477Z" fill="#030304"/>
<path id="Vector_10" d="M33.1397 40.215C23.3891 40.2445 15.3845 32.3228 15.3904 22.5278C15.3964 12.6974 23.1377 4.76527 33.1219 4.76971C43.0677 4.77414 50.7899 12.6619 50.8401 22.4761C50.8904 32.2341 42.9213 40.1839 33.1397 40.215ZM37.2706 37.122C35.9547 36.0456 35.9311 35.9554 36.4855 34.3986C36.5165 34.3114 36.5417 34.2226 36.5831 34.1399C36.7546 33.7983 36.7516 33.5366 36.4382 33.2247C36.1277 32.9157 35.8734 32.929 35.5274 33.0768C35.211 33.2128 34.871 33.2942 34.5531 33.4302C33.8863 33.714 33.3674 33.5026 33.0007 32.9349C32.5498 32.24 32.1033 31.5348 31.7277 30.7985C30.7224 28.8262 30.749 28.7035 32.3709 27.2191C32.6695 26.9455 32.7272 26.706 32.6399 26.3187C32.5453 25.8988 32.2777 25.847 31.951 25.7908C31.6331 25.7361 31.3167 25.6666 31.0047 25.5853C30.2093 25.3769 29.9358 25.0353 29.9254 24.2103C29.9136 23.3099 29.9225 22.4081 29.9225 21.5077C29.9225 19.42 29.9225 19.4186 31.9406 18.9528C32.2792 18.8745 32.5572 18.8168 32.6533 18.3644C32.7405 17.9475 32.6193 17.7183 32.3324 17.4803C32.0308 17.2304 31.7617 16.9377 31.4512 16.6996C30.9678 16.327 30.919 15.8791 31.1275 15.3483C31.4586 14.5085 31.8771 13.7146 32.3975 12.9783C33.4472 11.4953 33.1914 10.8078 35.764 11.8177C36.0641 11.9359 36.2356 11.8842 36.4929 11.6875C36.969 11.3209 36.7945 10.9601 36.6393 10.5373C36.0671 8.9834 36.0745 8.98044 37.2735 7.86566C37.3001 7.842 37.2957 7.78434 37.3061 7.74295C31.3537 6.03677 24.4491 7.85235 20.3478 13.6983C16.6826 18.9218 16.7433 26.329 20.5045 31.4091C24.6413 36.9933 31.6863 38.8488 37.2706 37.122ZM48.5115 22.4982C48.4864 19.7956 47.8107 17.2452 46.4505 14.8678C46.1858 14.405 45.9094 14.3414 45.457 14.4612C42.12 15.3453 40.0013 17.4359 39.2473 20.8172C38.2567 25.2541 41.2063 29.7192 45.5974 30.553C46.0395 30.6373 46.2065 30.5072 46.4032 30.1731C47.7885 27.809 48.4731 25.2586 48.5115 22.4982ZM44.5181 32.6821C39.7382 31.0557 36.966 27.7735 36.8152 22.7732C36.654 17.4285 39.5193 13.9703 44.5107 12.1562C43.3841 11.0104 42.1851 10.0065 40.8707 9.14012C40.3458 8.79267 39.2 9.03958 38.8703 9.56444C38.7949 9.6842 38.8274 9.78474 38.8792 9.88527C39.6421 11.3549 39.0921 12.3647 37.9374 13.4174C37.0946 14.1862 36.382 14.6046 35.3264 14.099C34.7409 13.818 34.4112 13.9348 34.0948 14.5351C33.5152 15.6307 33.4546 15.6277 34.3787 16.4394C35.0203 17.0027 35.1948 17.6192 34.8651 18.4132C34.698 18.8139 34.5856 19.2441 34.4984 19.6714C34.3476 20.4032 33.9602 20.8423 33.2047 21.0153C31.9125 21.3125 31.9495 21.3406 31.9066 22.689C31.8889 23.2508 32.0219 23.5421 32.6133 23.5908C33.771 23.6869 34.4792 24.271 34.6167 25.4804C34.6581 25.8396 34.8015 26.193 34.9316 26.5375C35.177 27.185 34.9907 27.7025 34.5161 28.1653C33.4635 29.1899 33.4664 29.1928 34.2633 30.4436C34.2752 30.4629 34.2959 30.4791 34.3032 30.4998C34.4304 30.8354 34.6788 30.8946 34.9671 30.7482C36.2726 30.0888 37.3179 30.3697 38.1192 31.588C38.1562 31.6442 38.2138 31.693 38.27 31.7299C39.3405 32.4366 39.4883 33.3666 38.9915 34.4976C38.9058 34.6913 38.5953 35.0329 38.9753 35.2191C39.4706 35.4616 39.9466 36.0944 40.4966 35.8209C42.0357 35.0609 43.3989 34.0408 44.5181 32.6821Z" fill="#030202"/>
<path id="Vector_11" d="M57.9339 61.4771C55.9246 61.4756 54.384 59.9276 54.4047 57.9272C54.4254 55.9475 55.9305 54.4306 57.9073 54.3996C59.8751 54.37 61.4645 55.9416 61.4823 57.9346C61.5 59.9187 59.9372 61.4771 57.9339 61.4771Z" fill="white"/>
<path id="Vector_12" d="M37.2706 37.122C31.6863 38.8488 24.6414 36.9933 20.5046 31.4091C16.7433 26.329 16.6827 18.9203 20.3478 13.6983C24.4506 7.85235 31.3552 6.03677 37.3061 7.74295C37.2957 7.78434 37.3002 7.84201 37.2736 7.86566C36.0745 8.98044 36.0671 8.9834 36.6393 10.5373C36.7945 10.9601 36.969 11.3209 36.4929 11.6876C36.2371 11.8842 36.0656 11.9359 35.764 11.8177C33.19 10.8079 33.4458 11.4953 32.3975 12.9783C31.8756 13.716 31.4587 14.5085 31.1275 15.3483C30.9175 15.8805 30.9678 16.3285 31.4513 16.6996C31.7618 16.9391 32.0294 17.2304 32.3325 17.4803C32.6193 17.7183 32.7405 17.9475 32.6533 18.3644C32.5587 18.8168 32.2792 18.8745 31.9407 18.9528C29.9225 19.4186 29.9225 19.42 29.9225 21.5077C29.9225 22.4081 29.9136 23.3099 29.9255 24.2103C29.9358 25.0353 30.2093 25.3769 31.0048 25.5853C31.3167 25.6666 31.6331 25.7361 31.951 25.7908C32.2777 25.847 32.5454 25.8988 32.64 26.3187C32.7272 26.7075 32.6695 26.9455 32.3709 27.2191C30.7475 28.7035 30.7209 28.8262 31.7277 30.7985C32.1033 31.5362 32.5498 32.24 33.0007 32.9349C33.3689 33.5011 33.8863 33.714 34.5531 33.4302C34.871 33.2956 35.2111 33.2143 35.5275 33.0768C35.8734 32.9275 36.1277 32.9157 36.4382 33.2247C36.7516 33.5366 36.7546 33.7983 36.5831 34.1399C36.5417 34.2212 36.5166 34.3114 36.4855 34.3986C35.9311 35.9554 35.9547 36.0441 37.2706 37.122Z" fill="white"/>
<path id="Vector_13" d="M48.5115 22.4983C48.4731 25.2586 47.79 27.809 46.4032 30.1716C46.208 30.5057 46.0395 30.6358 45.5974 30.5516C41.2063 29.7177 38.2567 25.2527 39.2473 20.8157C40.0028 17.4344 42.12 15.3439 45.4569 14.4597C45.9094 14.34 46.1858 14.4035 46.4505 14.8663C47.8107 17.2452 48.4864 19.7956 48.5115 22.4983Z" fill="white"/>
<path id="Vector_14" d="M44.5181 32.6821C43.3989 34.0408 42.0357 35.0595 40.5011 35.8179C39.9496 36.09 39.4735 35.4572 38.9797 35.2162C38.5997 35.0299 38.9102 34.6898 38.996 34.4947C39.4927 33.3636 39.3434 32.4352 38.2745 31.727C38.2168 31.69 38.1606 31.6412 38.1237 31.585C37.3223 30.3667 36.277 30.0858 34.9715 30.7452C34.6817 30.8916 34.4348 30.8325 34.3077 30.4969C34.3003 30.4762 34.2796 30.4599 34.2678 30.4407C33.4694 29.1899 33.4664 29.1869 34.5206 28.1623C34.9952 27.701 35.1815 27.1821 34.936 26.5345C34.8059 26.1915 34.661 25.8381 34.6211 25.4774C34.4836 24.268 33.7754 23.684 32.6178 23.5879C32.0249 23.5391 31.8918 23.2493 31.9111 22.686C31.9539 21.3362 31.917 21.3095 33.2092 21.0124C33.9647 20.8379 34.3535 20.4003 34.5028 19.6684C34.5901 19.2411 34.7024 18.8124 34.8695 18.4102C35.1992 17.6163 35.0233 16.9998 34.3831 16.4364C33.459 15.6248 33.5182 15.6277 34.0992 14.5322C34.4171 13.9334 34.7453 13.8166 35.3308 14.096C36.3864 14.6016 37.0991 14.1818 37.9418 13.4144C39.0965 12.3603 39.645 11.3519 38.8836 9.88231C38.8304 9.7803 38.7993 9.67976 38.8747 9.56148C39.2029 9.0381 40.3488 8.79119 40.8751 9.13716C42.1895 10.0036 43.3885 11.0074 44.5151 12.1533C39.5238 13.9674 36.6585 17.4256 36.8196 22.7703C36.966 27.7735 39.7382 31.0557 44.5181 32.6821Z" fill="#005CFF"/>
</g>
</svg>
