<svg width="103" height="119" viewBox="0 0 103 119" fill="none" xmlns="http://www.w3.org/2000/svg">
<g id="Frame" clip-path="url(#clip0_3_3611)">
<path id="Vector" d="M0.179913 65.4435L0.415183 67.361L0.73349 69.2647L1.14406 71.1546L1.63997 73.0261L2.212 74.8814L2.86476 76.7206L3.59364 78.5369L4.38941 80.3347L5.25668 82.114L6.19084 83.8681L7.18267 85.6014L8.23677 87.3118L9.34854 88.9968L10.5111 90.6565L11.7266 92.2908L12.9906 93.8976L14.2984 95.4767L15.6501 97.0282L17.041 98.5497L18.4664 100.041L19.9288 101.503L21.4211 102.93L22.9389 104.328L24.4843 105.69L26.0527 107.016L27.6374 108.308L29.2404 109.562L30.8573 110.778L32.4835 111.958L34.1188 113.098L35.7588 114.196L37.4034 115.257L39.048 116.275L40.3581 117.053L39.5831 117.046L38.4021 116.972L37.1058 116.848L35.7473 116.691L34.3656 116.512L33.0094 116.325L32.352 116.233L31.7154 116.146L31.1064 116.063L30.5275 115.987L29.9854 115.92L29.5034 115.867L27.5682 115.621L25.6099 115.292L23.5686 114.891L22.5214 114.672L21.4396 114.44L20.3255 114.198L19.1768 113.945L17.9913 113.689L16.7642 113.429C16.2383 113.317 15.7216 113.653 15.6086 114.177C15.4956 114.702 15.83 115.22 16.3536 115.333L17.5784 115.593L18.7594 115.849L19.9057 116.1L21.0221 116.344L22.1108 116.578L23.1811 116.802L25.2547 117.209L27.2798 117.55L29.2612 117.801L29.7548 117.856L30.2784 117.92L30.8458 117.994L31.4478 118.075L32.0798 118.162L32.7372 118.254L34.1027 118.441L35.5051 118.622L36.8959 118.784L38.243 118.913L39.5047 118.991L40.6234 119.002L41.1608 118.979L41.6498 118.929L42.1019 118.846L42.5332 118.717L42.9622 118.503L43.329 118.176L43.5735 117.808L43.7257 117.432L43.8041 117.055L43.8249 116.682L43.7972 116.311L43.7326 115.95L43.6404 115.591L43.5204 115.227L43.3774 114.861L43.2159 114.491L43.036 114.111L42.8354 113.717L42.4063 112.928L41.9289 112.092L41.4214 111.22L40.9025 110.317L40.3835 109.385L39.876 108.413L39.6154 107.902L39.3294 107.361L39.0272 106.8L38.7089 106.222L38.3744 105.624L38.0262 105.007L37.295 103.736L36.5177 102.403L35.7057 101.022L34.8685 99.604L34.0104 98.1515L33.1431 96.676L32.2736 95.1866L31.4109 93.6881L30.5621 92.1872C30.2991 91.7177 29.704 91.5519 29.2312 91.8143C28.7607 92.0767 28.59 92.6706 28.8529 93.1402L29.704 94.648L30.5713 96.1581L31.4455 97.6566L32.3151 99.1367L33.1731 100.592L34.0104 102.01L34.82 103.386L35.5927 104.71L36.317 105.971L36.6584 106.577L36.9859 107.164L37.2973 107.73L37.5925 108.278L37.8693 108.802L38.13 109.314L38.6512 110.313L39.1887 111.279L39.7169 112.198L40.222 113.068L40.6856 113.881L41.0962 114.636L41.2715 114.976L41.4284 115.303L41.4999 115.469L40.0606 114.615L38.4483 113.616L36.8337 112.575L35.2214 111.496L33.616 110.377L32.0175 109.217L30.4283 108.022L28.8552 106.791L27.2983 105.522L25.7598 104.222L24.2444 102.887L22.7543 101.517L21.292 100.117L19.8619 98.6879L18.4664 97.2261L17.1055 95.7391L15.7862 94.2244L14.5106 92.6822L13.2766 91.1145L12.0934 89.5239L10.9608 87.908L9.87905 86.2713L8.85724 84.6139L7.8954 82.9335L6.99122 81.237L6.15624 79.5221L5.39046 77.7887L4.68926 76.0393L4.06418 74.276L3.51752 72.4966L3.04237 70.7057L2.65256 68.9033L2.34809 67.0871L2.12435 65.2617L1.99288 63.4271L1.95597 61.5809L2.00672 59.7256L2.15665 57.8656L2.41037 55.9965L2.76097 54.1204L3.21767 52.2397L3.79201 50.3384L4.11262 49.4038L4.46552 48.4577L4.84842 47.5093L5.25899 46.5586L5.69954 45.6079L6.17008 44.6572L6.67061 43.7042L7.20112 42.7512L7.76392 41.7982L8.35671 40.8429L8.98179 39.8899L9.63917 38.937L10.232 38.129L10.8409 37.3717L11.4706 36.6558L12.1164 35.979L12.7784 35.3483L13.4589 34.7567L14.1531 34.2019L14.8612 33.6909L15.5855 33.2167L16.3213 32.777L17.0686 32.3788L17.8298 32.0151L18.6025 31.6859L19.3844 31.3936L20.1779 31.1358L20.9806 30.9102L21.7902 30.7191L22.609 30.5626L23.4348 30.436L24.2651 30.3439L25.1047 30.284L25.9489 30.2541H26.7955L27.6466 30.2863L28.5 30.3462L29.3534 30.436L30.2092 30.5557L31.0649 30.7007L31.9184 30.8756L32.7718 31.0782L33.6229 31.3061L34.4671 31.5593L35.309 31.8401L36.1463 32.144L36.9744 32.4732L37.7863 32.8231L39.4193 33.6011L40.9993 34.4666L42.4409 35.3598L42.2841 35.9422L42.0857 36.8583L41.9381 37.7837L41.8458 38.7114L41.8043 39.6413L41.8182 40.5736L41.8897 41.5013L42.0165 42.4244L42.2034 43.3428L42.4525 44.2498L42.7592 45.1452L43.1306 46.0292L43.5665 46.8924L44.0625 47.7349L44.6276 48.559L45.2573 49.3508L45.9008 50.069L46.7127 50.8862L47.6515 51.7379L48.1751 52.1776L48.7148 52.6034L49.2753 53.0132L49.852 53.4022L50.4471 53.7659L51.0537 54.0905L51.6718 54.3759L52.3038 54.613L52.9428 54.7857L53.5932 54.8939L54.2575 54.9146L54.8757 54.8409L55.2401 54.7511L55.5653 54.636L55.8767 54.491L56.1789 54.3161L56.4695 54.1066L56.7417 53.8695L56.9977 53.6048L57.2376 53.3078L57.4567 52.9856L57.6574 52.638L57.8419 52.2605L58.0218 51.8185L58.2041 51.1578L58.264 50.4327L58.2041 49.7145L58.0518 49.0032L57.8119 48.2943L57.4867 47.5668L56.7117 46.211L55.7222 44.8391L54.6081 43.5109L54.0084 42.8479L53.4018 42.208L52.7905 41.5888L52.1793 40.988L51.5727 40.4102L50.9822 39.86L50.4101 39.3375L49.8681 38.8472L49.3607 38.3937L48.8947 37.9794L48.4795 37.6087L48.1082 37.2727L46.6919 36.0434L45.1858 34.8741L44.7567 34.5771L44.9828 33.997L45.3311 33.2167L45.7209 32.4524L46.1522 31.7043L46.6204 30.9723L47.1256 30.2633L47.6699 29.5751L48.0967 29.0916L48.5418 28.6474L49.0101 28.2353L49.4967 27.8555L50.0019 27.5079L50.5278 27.1926L51.0721 26.9048L51.6326 26.647L52.2139 26.4191L52.809 26.2166L53.4179 26.0439L54.0453 25.8966L54.6865 25.7746L55.3393 25.6802L56.0059 25.6111L56.684 25.5651L57.3691 25.5421H58.0518L59.4796 25.6065L60.9143 25.7585L62.3628 25.9887L63.8159 26.2856L65.2622 26.6493L66.6945 27.0729L68.1062 27.5448L68.4222 27.6645L68.6436 28.3067L68.9481 29.0341L69.3171 29.8145L69.7531 30.6477L70.2467 31.5202L70.791 32.4248L71.3861 33.3525L72.025 34.2917L72.7009 35.2332L73.4113 36.1677L74.1494 37.0816L74.9106 37.9678L75.6925 38.815L76.4883 39.6091L77.2933 40.348L78.1098 41.0179L78.9148 41.5911L79.3415 41.8627L79.7567 42.0998L80.1719 42.3093L80.5893 42.4911L81.0138 42.643L81.4382 42.7604L81.8672 42.8433L82.3031 42.8847L82.7368 42.8801L83.1681 42.8295L83.5994 42.7236L84.0031 42.5694L84.3906 42.376L84.7389 42.1665L85.0526 41.9364L85.3363 41.6854L85.5877 41.4069L85.8253 41.0639L86.0997 40.4746L86.2312 39.7887L86.2058 39.1188L86.0628 38.4743L85.8206 37.8481L85.5047 37.2496L85.131 36.6673L84.702 36.0964L84.2314 35.5393L83.7309 34.9961L83.2027 34.4689L82.6606 33.9602L82.114 33.4722L81.5696 33.0095L81.0391 32.5768L80.5294 32.1716L80.0496 31.8033L79.6114 31.4741L79.2215 31.1864L78.8917 30.947L78.6241 30.7513L77.6669 30.0838L76.6013 29.407L75.4526 28.7372L74.2347 28.0788L72.9454 27.4389L71.5983 26.8266L70.2028 26.2442L70.1175 26.2119L70.0322 25.6572L69.9376 24.6582L69.9007 23.666L69.9145 22.6831L69.9837 21.714L70.106 20.7541L70.2744 19.8057L70.4912 18.8734L70.7587 17.9527L71.0678 17.0457L71.423 16.1572L71.8221 15.2847L72.2603 14.4284L72.7378 13.5951L73.2568 12.7803L73.8103 11.9838L74.3985 11.2126L75.0236 10.4645L75.6786 9.73712L76.366 9.03733L77.0834 8.36517L77.8261 7.71833L78.5965 7.10142L79.3922 6.51443L80.2088 5.95506L81.046 5.43023L81.9064 4.93762L82.7829 4.47723L83.6755 4.05368L84.5843 3.66465L85.5047 3.31016L86.4342 2.9971L87.3776 2.72317L88.3279 2.48607L89.2828 2.29041L90.2447 2.13848L91.2088 2.02569L92.1729 1.95663L93.1394 1.93361L94.1082 1.96584L95.0677 2.03259L96.0249 2.14769L96.9775 2.30652L97.9186 2.516L98.8528 2.77611L99.7777 3.08457L100.689 3.44367L101.614 3.86953C102.1 4.09511 102.679 3.88334 102.908 3.39533C103.134 2.90732 102.924 2.32954 102.437 2.10395L101.464 1.65738L100.451 1.25685L99.4271 0.916164L98.3938 0.628424L97.3512 0.398232L96.304 0.223286L95.2522 0.0966806L94.1958 0.0230192L93.1371 0L92.0807 0.0253211L91.0243 0.101284L89.9748 0.225588L88.9299 0.391326L87.8919 0.603103L86.8632 0.860918L85.846 1.15787L84.8381 1.49855L83.8462 1.87837L82.8682 2.29731L81.9064 2.7554L80.963 3.25031L80.0381 3.77975L79.1339 4.34602L78.2551 4.94682L77.3994 5.57755L76.569 6.2428L75.7686 6.94028L74.9959 7.66539L74.2532 8.42272L73.5451 9.20767L72.8692 10.018L72.228 10.8582L71.626 11.7214L71.0609 12.6076L70.5373 13.5215L70.0575 14.456L69.6216 15.4113L69.2318 16.3897L68.8904 17.3841L68.5975 18.3969L68.3553 19.4305L68.1684 20.4779L68.0347 21.5391L67.9585 22.6164L67.9424 23.7029L67.9839 24.8009L68.0485 25.4799L67.2827 25.2244L65.7788 24.7779L64.2519 24.3934L62.7134 24.0781L61.1703 23.8318L59.6272 23.6683L58.1118 23.5993L57.3368 23.597L56.5802 23.6223L55.8329 23.6729L55.0925 23.7512L54.359 23.8594L53.637 23.9975L52.9243 24.1632L52.2208 24.3635L51.5334 24.596L50.8599 24.8607L50.2002 25.1623L49.559 25.5007L48.9362 25.8736L48.3319 26.2879L47.753 26.7414L47.1948 27.2317L46.6597 27.7657L46.1545 28.3389L45.5525 29.1009L44.9897 29.8904L44.4707 30.703L43.991 31.534L43.555 32.388L43.1675 33.2558L43.0845 33.4676L41.9888 32.7885L40.3143 31.8724L38.6074 31.0598L37.724 30.68L36.8429 30.3301L35.9549 30.0078L35.0599 29.7086L34.158 29.4369L33.2516 29.1952L32.3405 28.9789L31.4247 28.7924L30.509 28.6359L29.591 28.507L28.6707 28.4103L27.7504 28.3458L26.8324 28.3113H25.9143L24.9986 28.3458L24.0875 28.4103L23.1787 28.5116L22.2769 28.6497L21.3796 28.82L20.4893 29.0295L19.6082 29.2758L18.7363 29.5589L17.8713 29.8812L17.0202 30.2426L16.1806 30.6431L15.3525 31.0851L14.5406 31.5685L13.7426 32.091L12.9606 32.6573L12.1972 33.265L11.4521 33.9119L10.7256 34.6047L10.0198 35.3414L9.3347 36.1194L8.67041 36.9435L8.03379 37.809L7.34874 38.8034L6.69829 39.7956L6.08243 40.7877L5.49656 41.7821L4.94299 42.7766L4.4217 43.771L3.9304 44.7654L3.46909 45.7598L3.04006 46.7543L2.63872 47.7487L2.26736 48.7431L1.92368 49.7491L1.32859 51.7218L0.846512 53.7061L0.477461 55.6811L0.209898 57.6516L0.0507446 59.6151L0 61.5694L0.0392117 63.5122L0.179913 65.4435ZM72.1058 29.209L73.3329 29.8191L74.4931 30.4452L75.5818 31.0782L76.5805 31.7135L77.4962 32.3512L77.7407 32.5284L78.0636 32.7632L78.4419 33.0417L78.864 33.3571L79.323 33.7093L79.812 34.096L80.3172 34.5081L80.8292 34.9431L81.3413 35.3989L81.8418 35.8685L82.3193 36.3473L82.7667 36.8307L83.175 37.3118L83.5279 37.7814L83.8208 38.2372L84.0492 38.6653L84.1991 39.0474L84.2729 39.3812L84.2868 39.6575L84.2476 39.8738L84.1184 40.1316L84.07 40.1938L83.9685 40.3043L83.8324 40.424L83.6617 40.5483L83.4541 40.6726L83.2096 40.7946L83.0159 40.8706L82.829 40.9166L82.6214 40.9396L82.3977 40.9419L82.1601 40.9189L81.8972 40.8683L81.6181 40.79L81.3251 40.6841L81.0138 40.5483L80.6908 40.3872L80.3587 40.1984L80.0312 39.9912L79.3092 39.4779L78.5849 38.884L77.8491 38.2095L77.111 37.4729L76.3799 36.6788L75.6602 35.8409L74.9567 34.973L74.2809 34.0845L73.635 33.1845L73.0238 32.2867L72.4564 31.4028L71.9397 30.5465L71.4738 29.7247L71.0701 28.9535L70.9409 28.6819L72.1058 29.209ZM45.4395 37.5489L46.8096 38.739L47.1625 39.059L47.5846 39.4342L48.0505 39.8485L48.551 40.2974L49.0862 40.7785L49.6467 41.2918L50.2233 41.8282L50.8115 42.3875L51.402 42.9676L51.9901 43.5638L52.5691 44.1715L53.1204 44.7792L54.1745 46.0361L55.0648 47.2676L55.7545 48.4784L55.9874 49.0055L56.1627 49.5235L56.2665 50.0046L56.3034 50.4396L56.2735 50.8195L56.1604 51.2085L56.0497 51.4709L55.9229 51.7287L55.7891 51.9566L55.653 52.1569L55.5169 52.3249L55.3785 52.4676L55.2401 52.5896L55.104 52.6863L54.961 52.7692L54.8157 52.8382L54.6681 52.8889L54.5481 52.9211L54.1652 52.9718L53.787 52.9579L53.3626 52.8866L52.9082 52.7623L52.4307 52.5827L51.9325 52.3502L51.425 52.0763L50.9153 51.7655L50.4055 51.4203L49.9027 51.0543L49.4137 50.6698L48.9524 50.2831L48.069 49.4797L47.3263 48.7316L46.7588 48.0986L46.2053 47.4034L45.7163 46.6921L45.2849 45.9601L44.9067 45.2143L44.586 44.4547L44.3208 43.6789L44.104 42.8917L43.9425 42.0975L43.8318 41.2918L43.7672 40.4815L43.7557 39.669L43.7926 38.8495L43.8733 38.03L44.0025 37.2151L44.1478 36.5499L45.4395 37.5489Z" fill="#005CFF"/>
</g>
<defs>
<clipPath id="clip0_3_3611">
<rect width="103" height="119" fill="white"/>
</clipPath>
</defs>
</svg>
