<svg width="37" height="37" viewBox="0 0 37 37" fill="none" xmlns="http://www.w3.org/2000/svg">
<path id="Vector" d="M18.5 11.7727C14.7832 11.7727 11.7727 14.7832 11.7727 18.5C11.7727 22.2168 14.7832 25.2273 18.5 25.2273C22.2168 25.2273 25.2273 22.2168 25.2273 18.5C25.2273 14.7832 22.2168 11.7727 18.5 11.7727ZM33.5355 16.8182C32.7618 9.805 27.195 4.23818 20.1818 3.46455V0H16.8182V3.46455C9.805 4.23818 4.23818 9.805 3.46455 16.8182H0V20.1818H3.46455C4.23818 27.195 9.805 32.7618 16.8182 33.5355V37H20.1818V33.5355C27.195 32.7618 32.7618 27.195 33.5355 20.1818H37V16.8182H33.5355ZM18.5 30.2727C11.9914 30.2727 6.72727 25.0086 6.72727 18.5C6.72727 11.9914 11.9914 6.72727 18.5 6.72727C25.0086 6.72727 30.2727 11.9914 30.2727 18.5C30.2727 25.0086 25.0086 30.2727 18.5 30.2727Z" fill="white"/>
</svg>
