<svg width="71" height="71" viewBox="0 0 71 71" fill="none" xmlns="http://www.w3.org/2000/svg">
<g id="Group">
<path id="Vector" d="M70.9976 4.16125C70.9976 4.30009 70.9976 4.43893 70.9976 4.57777C70.7657 4.75132 70.8635 5.00376 70.8635 5.2199C70.8588 20.923 70.8588 36.6245 70.8635 52.3276C70.8635 52.5453 70.7705 52.7962 70.9976 52.9729C70.9976 53.1575 70.9976 53.3421 70.9976 53.5283C70.9535 53.574 70.8856 53.6135 70.8683 53.6671C69.9579 56.4755 68.3991 57.6098 65.4425 57.6114C60.2423 57.6114 55.0437 57.6114 49.8435 57.6114C48.1333 57.6114 46.423 57.6335 44.7143 57.5988C44.1637 57.5878 43.9176 57.6966 43.9728 58.3056C44.0296 58.9241 43.9617 59.5536 43.9917 60.1752C44.028 60.9104 43.7346 61.368 43.0041 61.5258C42.1284 61.2986 41.917 61.0335 41.9075 60.1358C41.9044 59.7918 41.9075 59.4463 41.9075 59.1024C41.9075 57.4584 41.9076 57.4584 40.2036 57.654C36.6301 57.6414 33.0565 57.6319 29.483 57.6098C29.1043 57.6067 29.0933 57.8086 29.0933 58.0895C29.098 61.5494 29.1012 65.0094 29.0885 68.4693C29.087 68.8401 29.2005 68.93 29.5571 68.9284C33.1086 68.9095 36.66 68.9079 40.2131 68.9016C40.6043 68.9095 40.9988 68.889 41.3853 68.9316C41.8271 68.9805 41.9281 68.8038 41.9154 68.3889C41.8855 67.4675 41.8997 66.5461 41.9091 65.6231C41.917 64.7696 42.1631 64.4793 42.9962 64.3026C43.7109 64.4162 44.0043 64.85 43.9917 65.5568C43.9744 66.5256 44.0028 67.4943 43.9791 68.4614C43.9696 68.8259 44.0801 68.9363 44.443 68.9284C45.5032 68.9064 46.5634 68.9316 47.6236 68.9158C48.2106 68.9079 48.7344 68.9726 48.9789 69.6132C49.225 70.2632 48.8211 70.6355 48.3967 71C39.7997 71 31.2027 71 22.6041 71C22.1765 70.6355 21.7742 70.2616 22.0203 69.6116C22.2649 68.9679 22.7918 68.9064 23.3787 68.9158C24.3948 68.9316 25.4109 68.8906 26.4253 68.9316C26.9255 68.9521 27.028 68.788 27.0249 68.3147C27.0044 64.9904 26.9933 61.6662 27.0312 58.3419C27.0391 57.6998 26.8418 57.5956 26.2581 57.5988C19.3555 57.6193 12.453 57.6114 5.54887 57.6098C5.22543 57.6098 4.902 57.6067 4.58015 57.583C2.59694 57.4316 0.904046 56.0936 0.271378 54.2035C0.195647 53.9763 0.231935 53.6971 0.00158691 53.5298C0.00158691 53.3453 0.00158691 53.1607 0.00158691 52.9745C0.227202 52.7978 0.135694 52.5485 0.135694 52.3292C0.140427 36.6277 0.140427 20.9246 0.135694 5.22148C0.135694 5.00375 0.231935 4.7529 0.00158691 4.57777C0.00158691 4.39318 0.00158691 4.20858 0.00158691 4.02241C0.0473409 3.97823 0.118339 3.94352 0.137271 3.89146C1.15175 1.06418 2.64585 0.000788826 5.61513 0.000788826C25.5371 0.000788826 45.4574 0.000788826 65.3794 0.000788826C65.6334 0.000788826 65.8874 -0.00236655 66.1414 0.00394435C68.2619 0.0623202 70.0936 1.46018 70.7484 3.48756C70.8194 3.71318 70.7578 3.99717 70.9976 4.16125ZM67.1164 46.8624C66.8167 46.8513 66.5185 46.8292 66.2187 46.8292C46.7149 46.8277 27.211 46.8277 7.70562 46.8277C6.08845 46.8277 4.46971 46.8529 2.85254 46.815C2.27351 46.8008 2.05105 46.9081 2.0763 47.5566C2.13309 49.0791 2.09365 50.6063 2.09523 52.132C2.09523 54.4276 3.19332 55.5272 5.48576 55.5272C25.3825 55.5272 45.2791 55.5272 65.1774 55.5257C65.4535 55.5257 65.7296 55.4989 66.0057 55.4846C67.6387 55.5004 68.8646 54.3045 68.8977 52.6163C68.9245 51.2327 68.904 49.8474 68.904 48.4622C68.9024 46.7157 68.9024 46.7157 67.1164 46.8624ZM66.0057 2.1039C65.7754 2.09601 65.545 2.08339 65.3147 2.08339C45.3754 2.08181 25.4361 2.08181 5.4968 2.08181C3.20121 2.08181 2.09681 3.18306 2.09523 5.46918C2.09523 18.2693 2.09996 31.0694 2.07945 43.8694C2.07787 44.5384 2.19463 44.7498 2.92511 44.7482C24.0651 44.7246 45.2066 44.7293 66.3465 44.7277C66.5989 44.7277 66.8514 44.7025 67.1038 44.6883C67.402 44.7041 67.7002 44.7325 67.9984 44.7356C68.9056 44.7419 68.9056 44.7372 68.9056 43.8126C68.9056 31.082 68.9056 18.3513 68.9056 5.62065C68.9056 5.36663 68.915 5.11104 68.8993 4.8586C68.8015 3.2651 67.5866 2.11179 66.0057 2.1039Z" fill="#020303"/>
<path id="Vector_2" d="M0 4.57775C0.230348 4.75288 0.134107 5.00374 0.134107 5.22146C0.13884 20.9246 0.13884 36.6261 0.134107 52.3292C0.134107 52.5469 0.225615 52.7978 0 52.9745C0 36.8407 0 20.7084 0 4.57775Z" fill="#2C2C2C"/>
<path id="Vector_3" d="M70.9976 52.9729C70.772 52.7962 70.8635 52.5469 70.8635 52.3276C70.8588 36.6245 70.8588 20.923 70.8635 5.21989C70.8635 5.00216 70.7657 4.7513 70.9976 4.57775C70.9976 20.7084 70.9976 36.8406 70.9976 52.9729Z" fill="#2C2C2C"/>
<path id="Vector_4" d="M67.1054 44.6883C66.8529 44.7025 66.6005 44.7277 66.3481 44.7277C45.2081 44.7293 24.0666 44.7246 2.92667 44.7482C2.19461 44.7498 2.07943 44.5368 2.08101 43.8694C2.10152 31.0694 2.09521 18.2693 2.09679 5.46919C2.09679 3.18307 3.20277 2.08182 5.49836 2.08182C25.4377 2.08182 45.3769 2.08182 65.3162 2.0834C65.5466 2.0834 65.7769 2.0976 66.0073 2.10391C66.823 3.08052 67.1496 4.17388 67.1432 5.4755C67.1022 14.9671 67.1227 24.4587 67.1212 33.9503C67.118 37.5286 67.1101 41.1084 67.1054 44.6883ZM12.1658 11.3478C11.4669 11.9095 10.8137 12.5169 10.2378 13.2064C9.3843 12.8671 9.05771 12.9508 8.53391 13.6891C5.82811 17.5135 4.77734 21.7592 5.69242 26.3504C7.05242 33.1788 11.1719 37.7242 17.8851 39.4534C24.693 41.2062 30.4974 39.13 35.0334 33.7199C35.4657 33.204 35.5872 33.2624 35.9784 33.7341C39.9007 38.4578 44.9525 40.6162 51.0457 39.8825C60.531 38.7418 67.058 29.8924 65.2941 20.4765C64.002 13.5771 59.7737 9.0317 52.991 7.32618C46.1911 5.6175 40.4355 7.76321 35.9264 13.1401C35.5588 13.5771 35.4389 13.5976 35.0791 13.1401C29.6928 6.28014 19.8604 4.74028 12.7243 9.61703C11.9102 10.1755 11.8124 10.4769 12.1658 11.3478Z" fill="#EDF9FD"/>
<path id="Vector_5" d="M66.0041 55.4831C65.728 55.4973 65.4519 55.5241 65.1758 55.5241C45.2791 55.5257 25.3824 55.5257 5.48417 55.5257C3.19173 55.5257 2.09521 54.426 2.09364 52.1304C2.09364 50.6048 2.13308 49.0791 2.0747 47.555C2.05104 46.9066 2.27192 46.8009 2.85094 46.8135C4.46811 46.8513 6.08528 46.8261 7.70403 46.8261C27.2079 46.8261 46.7117 46.8261 66.2171 46.8277C66.5169 46.8277 66.8151 46.8498 67.1149 46.8608C67.1149 48.59 67.0644 50.3223 67.1322 52.0499C67.1858 53.3626 66.8845 54.5049 66.0041 55.4831ZM35.5272 50.1362C34.8583 50.1362 34.1893 50.1204 33.5219 50.1409C32.8072 50.163 32.3923 50.5637 32.3954 51.179C32.3986 51.7675 32.7946 52.1935 33.4651 52.2077C34.8251 52.2361 36.1851 52.2377 37.5451 52.2061C38.2125 52.1919 38.6054 51.7565 38.6022 51.1664C38.599 50.5716 38.203 50.1693 37.5325 50.1425C36.8651 50.1172 36.1946 50.1377 35.5272 50.1362Z" fill="#005CFF"/>
<path id="Vector_6" d="M40.2115 68.8985C36.66 68.9048 33.1086 68.9064 29.5555 68.9253C29.1989 68.9269 29.0854 68.8369 29.0869 68.4662C29.1011 65.0062 29.0964 61.5463 29.0917 58.0863C29.0917 57.8055 29.1027 57.6051 29.4814 57.6067C33.0549 57.6288 36.6285 57.6383 40.202 57.6509C40.2052 61.4011 40.2083 65.1498 40.2115 68.8985Z" fill="#005CFF"/>
<path id="Vector_7" d="M67.1054 44.6883C67.1101 41.1084 67.118 37.5301 67.1196 33.9503C67.1212 24.4587 67.1023 14.9671 67.1417 5.47549C67.148 4.17386 66.8214 3.0805 66.0057 2.10389C67.5882 2.11178 68.803 3.26509 68.9009 4.85702C68.9166 5.11103 68.9072 5.36505 68.9072 5.61906C68.9072 18.3497 68.9072 31.0804 68.9072 43.8111C68.9072 44.7356 68.9072 44.7403 68 44.734C67.7018 44.7324 67.4036 44.704 67.1054 44.6883Z" fill="#99C7FF"/>
<path id="Vector_8" d="M40.2115 68.8985C40.2083 65.1498 40.2052 61.4011 40.202 57.6524C41.906 57.4584 41.906 57.4584 41.906 59.1008C41.906 59.4447 41.9028 59.7903 41.906 60.1342C41.917 61.0319 42.1269 61.297 43.0025 61.5242C42.9993 62.4487 42.9962 63.3749 42.993 64.2994C42.16 64.4761 41.9139 64.7648 41.906 65.62C41.8965 66.5413 41.8839 67.4643 41.9123 68.3857C41.9249 68.8007 41.8239 68.9758 41.3822 68.9284C40.9972 68.8843 40.6028 68.9048 40.2115 68.8985Z" fill="#277FFF"/>
<path id="Vector_9" d="M66.0042 55.4831C66.8845 54.5049 67.1843 53.361 67.1338 52.05C67.066 50.3223 67.1164 48.59 67.1164 46.8608C68.9024 46.7157 68.9024 46.7157 68.9024 48.4622C68.9024 49.8474 68.9229 51.2311 68.8961 52.6164C68.863 54.3029 67.6371 55.4989 66.0042 55.4831Z" fill="#277FFF"/>
<path id="Vector_10" d="M10.2378 13.2048C10.8137 12.5153 11.4669 11.9079 12.1658 11.3478C12.6865 11.8227 13.2055 11.8211 13.7893 11.4203C16.4841 9.57283 19.4738 8.71928 22.735 8.88652C25.4077 9.02379 27.8957 9.76689 30.0967 11.343C30.1566 11.3888 30.2182 11.433 30.2781 11.4787L30.2592 11.4582C30.2797 11.6128 30.3822 11.6539 30.5195 11.6444L30.51 11.6381C30.5653 11.6838 30.6205 11.728 30.6741 11.7738L30.6662 11.7596C30.6331 11.911 30.6962 12.0294 30.7956 12.1335C32.072 13.4619 32.9634 15.0381 33.7254 16.6963C33.7049 16.7862 33.6955 16.8809 33.6608 16.9645C32.5958 19.503 32.1903 22.1363 32.4222 24.8831C32.5532 26.4371 32.976 27.9139 33.4209 29.3922C33.3326 29.5247 33.23 29.6494 33.1575 29.7898C31.5987 32.808 29.2904 35.0578 26.2659 36.6024C25.2168 37.1373 24.0824 37.4244 23.0048 37.8678C21.6827 38.0792 20.3731 37.923 19.0873 37.6437C8.69167 35.3765 4.1352 23.6588 10.2394 14.8977C10.6528 14.3013 10.7064 13.7696 10.2378 13.2048ZM15.2708 22.0968C15.2708 23.0892 15.2566 24.0816 15.2739 25.074C15.3118 27.3065 17.2193 29.1051 19.5243 29.0972C21.8815 29.0893 23.7873 27.3459 23.8221 25.1118C23.8536 23.0813 23.8347 21.0492 23.8268 19.0187C23.8236 18.1935 23.4481 17.7439 22.7918 17.736C22.1244 17.7281 21.7505 18.1651 21.7489 18.9903C21.7426 20.8835 21.7473 22.7752 21.7473 24.6685C21.7473 26.0916 20.8828 27.0035 19.5291 27.0114C18.2274 27.0193 17.355 26.0963 17.3534 24.7064C17.3518 22.791 17.3581 20.8741 17.3502 18.9587C17.3471 18.1762 16.9842 17.7486 16.3436 17.736C15.6794 17.7234 15.2818 18.173 15.2724 18.9808C15.2613 20.019 15.2692 21.0587 15.2708 22.0968ZM28.7556 23.3669C28.7556 21.9122 28.7635 20.456 28.7524 19.0013C28.7461 18.1635 28.3785 17.7328 27.7127 17.7376C27.0532 17.7423 26.6746 18.1841 26.6714 19.0124C26.6635 21.9454 26.6635 24.8783 26.6714 27.8129C26.673 28.6065 27.0974 29.1003 27.7238 29.0956C28.3501 29.0925 28.7477 28.6065 28.7524 27.8003C28.7619 26.3235 28.7556 24.8452 28.7556 23.3669Z" fill="#005CFF"/>
<path id="Vector_11" d="M33.4193 29.3922C32.9744 27.9139 32.5516 26.4372 32.4206 24.8831C32.1887 22.1363 32.5942 19.5031 33.6592 16.9645C33.6939 16.8809 33.7033 16.7862 33.7238 16.6963C33.8785 16.2545 34.4764 15.898 34.1183 15.3568C33.1874 13.9526 32.1067 12.6794 30.6646 11.7596L30.6725 11.7738C30.6599 11.6775 30.5968 11.6428 30.5084 11.6381L30.5179 11.6444C30.4769 11.5182 30.3712 11.4835 30.2576 11.4582L30.2765 11.4787C30.2166 11.433 30.155 11.3888 30.0951 11.3431C27.8941 9.76691 25.4077 9.02222 22.7334 8.88654C19.4738 8.7193 16.4825 9.57285 13.7877 11.4204C13.2039 11.8195 12.6865 11.8211 12.1642 11.3478C11.8108 10.4785 11.9086 10.1755 12.7243 9.6186C19.8604 4.74186 29.6943 6.28172 35.0791 13.1417C35.4388 13.5992 35.5587 13.5787 35.9263 13.1417C40.4371 7.76478 46.1926 5.61907 52.991 7.32775C59.7737 9.03327 64.002 13.5787 65.2941 20.4781C67.058 29.8924 60.531 38.7418 51.0457 39.8841C44.9525 40.6177 39.9006 38.4594 35.9784 33.7357C35.5856 33.264 35.4641 33.2056 35.0334 33.7215C30.4974 39.1315 24.6929 41.2078 17.8851 39.455C11.1718 37.7258 7.0524 33.1804 5.6924 26.352C4.77732 21.7608 5.82808 17.5151 8.53388 13.6891C9.05769 12.9508 9.38427 12.8671 10.2378 13.2064C10.7064 13.7696 10.6528 14.3029 10.2378 14.8977C4.13361 23.6588 8.69008 35.3781 19.0857 37.6437C20.3716 37.9246 21.6811 38.0792 23.0032 37.8678C27.749 37.5727 31.3888 35.3497 34.0993 31.5064C34.224 31.3281 34.2918 31.1719 34.1688 30.9416C33.8974 30.4351 33.667 29.9097 33.4193 29.3922ZM50.0565 37.8551C50.3546 37.8457 50.6576 37.8646 50.9526 37.822C59.5686 36.563 65.1474 28.3462 63.0774 19.8959C62.2791 16.6379 60.5546 13.9384 57.8204 11.9315C57.7652 11.889 57.71 11.8464 57.6548 11.8038C57.6153 11.6902 57.5254 11.6444 57.415 11.6286C54.1806 9.22417 50.5219 8.37062 46.6123 9.07902C40.852 10.1203 36.8698 13.4951 35.1327 19.0897C33.3704 24.7663 34.7573 29.8498 39.0487 33.9818C42.0874 36.9101 45.8013 38.2291 50.0565 37.8551Z" fill="#030403"/>
<path id="Vector_12" d="M35.5272 50.1378C36.1961 50.1393 36.8651 50.1188 37.5325 50.1441C38.203 50.1709 38.5974 50.5732 38.6022 51.168C38.6053 51.7581 38.2125 52.192 37.5451 52.2077C36.1851 52.2377 34.8251 52.2377 33.4651 52.2093C32.7946 52.1951 32.3986 51.7691 32.3954 51.1806C32.3922 50.5653 32.8072 50.1646 33.5219 50.1425C34.1893 50.1204 34.8582 50.1362 35.5272 50.1378Z" fill="#030403"/>
<path id="Vector_13" d="M15.2708 22.0968C15.2708 21.0587 15.2629 20.019 15.2724 18.9808C15.2803 18.173 15.6778 17.7234 16.3436 17.736C16.9842 17.7486 17.3471 18.1746 17.3502 18.9587C17.3565 20.8741 17.3518 22.791 17.3534 24.7064C17.355 26.0964 18.2259 27.0193 19.5291 27.0114C20.8828 27.0035 21.7474 26.0916 21.7474 24.6685C21.7489 22.7752 21.7442 20.8836 21.7489 18.9903C21.7521 18.1651 22.126 17.7281 22.7918 17.736C23.4481 17.7439 23.8236 18.1935 23.8268 19.0187C23.8347 21.0492 23.8536 23.0813 23.8221 25.1119C23.7874 27.3459 21.8815 29.0893 19.5243 29.0972C17.2177 29.1051 15.3102 27.3065 15.2739 25.074C15.2566 24.0832 15.2708 23.0892 15.2708 22.0968Z" fill="#040401"/>
<path id="Vector_14" d="M28.7556 23.3669C28.7556 24.8452 28.7619 26.3236 28.7525 27.8019C28.7477 28.6081 28.3501 29.0925 27.7238 29.0972C27.0974 29.1004 26.673 28.6065 26.6714 27.8145C26.6636 24.8815 26.6636 21.9485 26.6714 19.014C26.673 18.1841 27.0517 17.7423 27.7127 17.7392C28.3785 17.7344 28.7477 18.1651 28.7525 19.0029C28.7635 20.456 28.7556 21.9107 28.7556 23.3669Z" fill="#040401"/>
<path id="Vector_15" d="M33.4194 29.3922C33.6671 29.9097 33.8974 30.4351 34.1688 30.94C34.2934 31.1703 34.2256 31.3281 34.0994 31.5048C31.3888 35.3481 27.749 37.5711 23.0032 37.8662C24.0808 37.4228 25.2152 37.1373 26.2644 36.6008C29.2905 35.0563 31.5971 32.8064 33.1559 29.7882C33.2285 29.6494 33.331 29.5247 33.4194 29.3922Z" fill="#99C7FF"/>
<path id="Vector_16" d="M30.6631 11.7611C32.1051 12.681 33.1859 13.9542 34.1167 15.3584C34.4749 15.8995 33.8769 16.2545 33.7223 16.6978C32.9603 15.0397 32.0689 13.4635 30.7925 12.1351C30.6931 12.0309 30.6315 11.911 30.6631 11.7611Z" fill="#99C7FF"/>
<path id="Vector_17" d="M30.2576 11.4582C30.3696 11.4851 30.4769 11.5182 30.518 11.6444C30.3791 11.6539 30.2781 11.6128 30.2576 11.4582Z" fill="#FAD101"/>
<path id="Vector_18" d="M30.0951 11.3431C30.155 11.3888 30.215 11.433 30.2765 11.4787C30.215 11.4346 30.155 11.3888 30.0951 11.3431Z" fill="#FAD101"/>
<path id="Vector_19" d="M30.5085 11.6381C30.5968 11.6428 30.6599 11.6775 30.6726 11.7738C30.6173 11.7296 30.5621 11.6838 30.5085 11.6381Z" fill="#FAD101"/>
<path id="Vector_20" d="M57.6548 11.8022C57.71 11.8448 57.7653 11.8874 57.8205 11.93C57.7716 12.4064 58.1976 12.5847 58.4247 12.8845C61.282 16.6489 62.4811 20.8457 61.5613 25.5236C60.5042 30.8942 57.3945 34.6713 52.4357 36.9685C51.6595 37.3282 50.8122 37.4591 50.0581 37.8536C45.8014 38.2275 42.089 36.9085 39.0487 33.9787C34.7589 29.845 33.3705 24.7632 35.1328 19.0865C36.8699 13.4919 40.852 10.1187 46.6123 9.07586C50.5219 8.36904 54.1807 9.22102 57.415 11.6255C57.4497 11.7485 57.5381 11.7943 57.6548 11.8022ZM47.7451 22.2546C47.742 22.2546 47.7404 22.2546 47.7372 22.2546C47.7372 21.076 47.7546 19.8975 47.7293 18.7205C47.7167 18.1304 47.3696 17.7754 46.7717 17.7439C46.1753 17.7123 45.8156 18.0326 45.702 18.6101C45.6578 18.8341 45.6641 19.0692 45.6641 19.2995C45.6609 21.147 45.6657 22.9961 45.6609 24.8437C45.6578 26.1374 44.7285 27.0351 43.4269 27.0178C42.1931 27.0004 41.3159 26.1137 41.3143 24.8705C41.3112 22.9299 41.3175 20.9893 41.3112 19.0487C41.308 18.1825 40.9215 17.7218 40.2351 17.7376C39.5804 17.7534 39.2333 18.1935 39.2317 19.0376C39.2286 21.024 39.2506 23.0119 39.2238 24.9983C39.2049 26.4466 39.8139 27.5368 40.9972 28.3178C42.4534 29.2786 43.9854 29.3481 45.5284 28.5687C47.0509 27.8003 47.8177 26.5555 47.7499 24.8184C47.7167 23.9649 47.7451 23.1097 47.7451 22.2546ZM54.1901 24.891C55.061 26.1263 55.8657 27.2765 56.6814 28.4204C57.1657 29.0988 57.7227 29.2644 58.2591 28.911C58.8066 28.5497 58.857 27.9076 58.3758 27.2181C57.557 26.0443 56.7618 24.8547 55.8941 23.7172C55.5138 23.2186 55.547 22.8825 55.9146 22.4124C56.5662 21.5762 57.1499 20.6863 57.7605 19.8202C57.8536 19.6876 57.9514 19.5598 58.0366 19.4226C58.3995 18.8373 58.3017 18.233 57.7968 17.9001C57.3093 17.5798 56.7334 17.6855 56.3421 18.2235C55.6243 19.2064 54.9348 20.2099 54.1933 21.2622C53.5212 20.3077 52.8996 19.4257 52.2779 18.5454C51.7036 17.7328 51.1435 17.523 50.574 17.908C50.0028 18.2929 49.9934 18.9146 50.555 19.7145C51.2429 20.6974 51.9214 21.6866 52.6329 22.6538C52.8633 22.9677 52.8617 23.1839 52.6313 23.501C51.7352 24.7316 50.8659 25.9828 49.995 27.2323C49.5138 27.9234 49.5469 28.4866 50.0675 28.8795C50.6134 29.2913 51.1925 29.1366 51.6973 28.4267C52.5114 27.2781 53.3192 26.1263 54.1901 24.891Z" fill="#005CFF"/>
<path id="Vector_21" d="M50.0565 37.8551C50.8107 37.4607 51.6579 37.3298 52.4342 36.97C57.3929 34.6729 60.5026 30.8958 61.5597 25.5252C62.4811 20.8473 61.282 16.6505 58.4232 12.8861C58.1944 12.5863 57.77 12.408 57.8189 11.9315C60.5547 13.9368 62.2792 16.6363 63.0759 19.8959C65.1459 28.3462 59.567 36.563 50.9511 37.822C50.6592 37.8646 50.3563 37.8457 50.0565 37.8551Z" fill="#99C7FF"/>
<path id="Vector_22" d="M57.6548 11.8022C57.538 11.7943 57.4497 11.7485 57.415 11.6271C57.5254 11.6428 57.6153 11.6886 57.6548 11.8022Z" fill="#00C074"/>
<path id="Vector_23" d="M47.7451 22.2546C47.7451 23.1097 47.7183 23.9649 47.7514 24.8184C47.8193 26.5571 47.0525 27.8019 45.53 28.5687C43.987 29.3465 42.4534 29.2787 40.9988 28.3178C39.8155 27.5353 39.2065 26.4466 39.2254 24.9983C39.2522 23.0119 39.2286 21.0256 39.2333 19.0376C39.2349 18.1936 39.5804 17.7534 40.2367 17.7376C40.923 17.7202 41.3112 18.1809 41.3127 19.0487C41.319 20.9893 41.3127 22.9299 41.3159 24.8705C41.3175 26.1137 42.1947 27.0004 43.4285 27.0178C44.7317 27.0367 45.6594 26.1374 45.6625 24.8437C45.6673 22.9962 45.6625 21.1471 45.6657 19.2995C45.6657 19.0692 45.6594 18.8341 45.7035 18.6101C45.8171 18.0342 46.1769 17.7124 46.7732 17.7439C47.3712 17.7755 47.7183 18.1304 47.7309 18.7205C47.7562 19.8975 47.7388 21.0761 47.7388 22.2546C47.7388 22.2546 47.742 22.2546 47.7451 22.2546Z" fill="#000403"/>
<path id="Vector_24" d="M54.1902 24.891C53.3177 26.1279 52.5115 27.2797 51.6958 28.4251C51.1909 29.1351 50.6119 29.2897 50.066 28.8779C49.5453 28.485 49.5122 27.9218 49.9934 27.2308C50.8643 25.9812 51.7321 24.7301 52.6298 23.4994C52.8601 23.1823 52.8617 22.9662 52.6314 22.6522C51.9214 21.6851 51.243 20.6958 50.5535 19.7129C49.9934 18.913 50.0013 18.2914 50.5724 17.9064C51.1436 17.5214 51.7021 17.7297 52.2764 18.5438C52.898 19.4242 53.5196 20.3061 54.1917 21.2606C54.9333 20.2083 55.6227 19.2049 56.3406 18.2219C56.7335 17.6839 57.3093 17.5782 57.7953 17.8985C58.3001 18.2314 58.398 18.8357 58.0351 19.421C57.9499 19.5583 57.8521 19.6877 57.759 19.8186C57.1468 20.6864 56.5646 21.5746 55.913 22.4108C55.5454 22.8825 55.5123 23.217 55.8925 23.7156C56.7603 24.8515 57.5554 26.0427 58.3743 27.2166C58.8555 27.906 58.805 28.5497 58.2575 28.9095C57.7211 29.2629 57.1626 29.0972 56.6798 28.4188C55.8657 27.2765 55.0611 26.1263 54.1902 24.891Z" fill="#000403"/>
</g>
</svg>
