<svg width="71" height="71" viewBox="0 0 71 71" fill="none" xmlns="http://www.w3.org/2000/svg">
<path d="M24.53 40.1288C23.4849 38.1761 22.666 36.2367 22.0555 34.213C21.9786 33.9573 21.7849 33.8331 21.6017 33.6868C20.357 32.689 19.1139 31.6912 17.8633 30.6994C16.4368 29.5671 15.751 28.1318 16.1663 26.3106C16.5847 24.4747 17.7879 23.4134 19.6224 23.0468C19.6903 23.0335 19.7554 23.0024 19.8958 22.9536C19.3149 21.7844 18.7428 20.6284 18.1678 19.474C17.7761 18.6876 17.374 17.9056 16.9897 17.1163C16.3467 15.7903 16.2757 14.4304 16.7458 13.0291C17.4243 11.0069 16.6734 9.51687 14.6541 8.84282C13.9106 8.59448 13.1671 8.3491 12.4206 8.11259C11.9003 7.94851 11.5352 7.644 11.479 7.0749C11.4258 6.53979 11.7007 6.18502 12.1442 5.91304C17.0148 2.9197 22.2787 1.03648 27.9623 0.394943C32.9719 -0.169726 38.0125 -0.0174727 43.0251 0.171736C50.7856 0.464418 55.9637 8.39345 53.4301 15.8095C52.6171 18.1894 51.7213 20.5398 50.8551 22.9211C51.2601 23.0202 51.6371 23.0793 51.9903 23.202C53.5321 23.7341 54.5018 24.7999 54.824 26.4023C55.1404 27.9825 54.6644 29.3424 53.4552 30.383C52.1204 31.5301 50.7191 32.6033 49.3459 33.7045C49.1419 33.8686 48.9674 34.0268 48.8817 34.3062C48.2875 36.2396 47.5159 38.1022 46.5654 39.8893C46.5358 39.9455 46.5358 40.0179 46.5136 40.1273C49.6563 40.1273 52.7708 40.1199 55.8854 40.1288C59.3089 40.1391 61.7627 42.6033 61.7804 46.0371C61.7863 47.2995 61.8011 48.5633 61.7701 49.8242C61.7597 50.2647 61.8898 50.4791 62.2978 50.6831C67.7715 53.4074 70.6392 57.8523 70.9112 63.9454C70.994 65.8005 70.9289 67.6616 70.9275 69.5182C70.926 70.6268 70.5446 70.9993 69.4108 70.9993C56.9526 71.0008 44.4944 70.9993 32.0362 70.9993C21.9121 70.9993 11.7879 70.9993 1.66379 70.9993C0.36002 70.9993 0.0141227 70.6682 0.039252 69.3452C0.0821196 67.0127 -0.145522 64.6712 0.172289 62.3504C0.890691 57.0896 3.64456 53.2374 8.3733 50.8324C8.98823 50.5205 9.2144 50.21 9.20553 49.5094C9.18483 47.941 9.02223 46.3608 9.30013 44.8043C9.78202 42.1007 12.0747 40.1598 14.8197 40.1347C18.0141 40.1066 21.2055 40.1288 24.53 40.1288ZM35.4819 68.7126C43.2705 68.7126 51.0576 68.7067 58.8462 68.7259C59.3769 68.7274 59.5114 68.6047 59.5099 68.0666C59.4892 60.7303 59.4996 53.3955 59.4951 46.0593C59.4936 43.8405 58.0509 42.4155 55.8144 42.4141C42.2624 42.4126 28.7103 42.4126 15.1582 42.4141C12.8907 42.4141 11.4731 43.8435 11.4731 46.1258C11.4701 53.4133 11.4805 60.7023 11.4583 67.9897C11.4568 68.5795 11.5899 68.7288 12.19 68.7274C19.952 68.7052 27.7169 68.7126 35.4819 68.7126ZM15.5322 6.62996C15.6815 6.74822 15.7125 6.78961 15.7539 6.80291C18.3615 7.65139 20.1235 10.7172 18.9113 13.7711C18.5891 14.5841 18.6837 15.4075 19.0754 16.1909C19.5972 17.233 20.1397 18.2663 20.629 19.3232C20.8433 19.7859 21.0119 19.8332 21.445 19.539C23.7864 17.9455 26.1604 16.4008 28.5048 14.8118C30.5743 13.409 32.8418 12.6994 35.3429 12.6743C37.4567 12.6536 39.3547 11.9618 41.0222 10.6625C41.9608 9.93077 42.8773 9.17245 43.8159 8.44075C44.4767 7.92486 45.1655 7.98398 45.6031 8.66691C47.4375 11.5316 49.7952 14.1318 50.2446 17.7253C50.8802 16.1111 51.6252 14.5516 51.7597 12.8251C52.2106 7.09116 47.8854 2.40972 42.1456 2.39494C38.9793 2.38755 35.8115 2.39494 32.6452 2.39346C28.2254 2.3905 23.9416 3.1636 19.7997 4.69944C18.3585 5.23455 16.9453 5.84061 15.5322 6.62996ZM35.4464 40.1273C37.9948 40.1273 40.5447 40.111 43.0931 40.1406C43.609 40.1465 43.8958 40.0061 44.1515 39.5434C46.3185 35.6395 47.6252 31.4813 47.9445 27.0216C48.0761 25.1828 48.0761 25.1975 46.2239 25.2508C45.8233 25.2626 45.7612 25.4001 45.7672 25.7489C45.7864 26.7496 45.7908 27.7504 45.7686 28.7496C45.7272 30.6196 44.2623 32.077 42.3895 32.1184C41.6031 32.1362 40.8167 32.1347 40.0318 32.1184C38.1249 32.08 36.6674 30.6092 36.6275 28.6979C36.6038 27.5479 36.6038 27.5479 35.4124 27.5479C34.3555 27.5479 34.3555 27.5479 34.3392 28.6255C34.3097 30.6284 32.8566 32.0918 30.864 32.1184C30.1013 32.1288 29.3385 32.1347 28.5772 32.117C26.7059 32.0741 25.2424 30.6136 25.1966 28.7482C25.1818 28.1288 25.1937 27.5094 25.1937 26.8901C25.1937 25.2434 25.1937 25.2655 23.5292 25.2463C23.0222 25.2404 22.8965 25.3734 22.9217 25.8775C23.1656 30.7836 24.4531 35.3838 26.8891 39.6587C27.0976 40.0253 27.3267 40.1347 27.7288 40.1317C30.3008 40.1199 32.8729 40.1273 35.4464 40.1273ZM42.6289 22.9758C44.2712 22.9758 45.915 22.9803 47.5572 22.9714C47.7598 22.9699 48.0731 23.1029 48.0613 22.6876C48.0066 20.7437 48.215 18.7911 47.6977 16.865C47.1907 14.9773 46.0436 13.4592 45.0014 11.8746C44.3732 10.9182 44.3407 10.8916 43.4715 11.6543C40.9542 13.8613 38.0687 15.0305 34.6896 15.001C33.3695 14.9891 32.082 15.3557 30.9424 16.0283C28.2609 17.6129 25.7317 19.437 23.1434 21.165C22.5906 21.5346 22.9158 22.2338 22.9379 22.763C22.9572 23.2049 23.442 22.9625 23.6992 22.964C26.7945 22.9832 29.8884 22.9729 32.9837 22.9788C33.8263 22.9803 34.2757 23.372 34.3363 24.1185C34.4294 25.2641 34.4294 25.2641 35.5558 25.2641C35.6504 25.2641 35.7494 25.2493 35.8411 25.267C36.5018 25.3912 36.6674 25.1089 36.6393 24.4703C36.5905 23.3542 37.0015 22.9817 38.1264 22.9788C39.6297 22.9743 41.1301 22.9758 42.6289 22.9758ZM9.10797 53.0674C8.74876 53.1413 8.45608 53.3453 8.16192 53.536C5.22623 55.4428 3.38292 58.1169 2.61279 61.5241C2.1235 63.6852 2.4014 65.8863 2.31123 68.0681C2.28758 68.6387 2.50636 68.7303 3.00894 68.7229C4.81825 68.6963 6.62904 68.6889 8.43687 68.7259C9.02223 68.7377 9.19814 68.5899 9.19518 67.9838C9.17005 63.2211 9.18188 58.4598 9.17744 53.6971C9.1804 53.4946 9.24544 53.2773 9.10797 53.0674ZM61.7834 52.9713C61.7834 58.1568 61.7863 63.2034 61.776 68.2514C61.7745 68.652 61.9519 68.7185 62.2933 68.717C64.2224 68.7067 66.1514 68.7008 68.0805 68.7215C68.5136 68.7259 68.6614 68.6032 68.6511 68.1583C68.623 66.9447 68.6304 65.7296 68.6437 64.5145C68.6703 62.1051 68.1086 59.8449 66.8861 57.768C65.6814 55.7163 64.0391 54.1139 61.7834 52.9713ZM29.8352 25.2981C29.0769 25.2981 28.0525 24.9995 27.6297 25.3764C27.1449 25.808 27.4937 26.8502 27.4863 27.6262C27.4656 29.7193 27.5957 29.8361 29.6962 29.8361C31.9845 29.8361 32.0554 29.7666 32.051 27.4784C32.0495 26.7674 32.3052 25.8154 31.9475 25.4074C31.5366 24.9389 30.5625 25.3335 29.8352 25.2981ZM41.2587 25.3069C40.5018 25.3069 39.4686 25.0083 39.0591 25.3853C38.5861 25.8213 38.9276 26.862 38.9216 27.6395C38.9039 29.7208 39.034 29.8376 41.1434 29.8376C43.4227 29.8376 43.4922 29.7711 43.4863 27.4695C43.4848 26.76 43.7346 25.8021 43.3754 25.4045C42.9601 24.9433 41.9859 25.3276 41.2587 25.3069ZM21.1035 30.3668C20.8699 28.6299 20.6807 27.063 20.6305 25.4843C20.6201 25.1739 20.3748 25.2596 20.2062 25.27C19.3977 25.3158 18.8064 25.7149 18.4901 26.4555C18.1575 27.2315 18.289 27.981 18.8966 28.553C19.5455 29.165 20.2742 29.6927 21.1035 30.3668ZM49.8484 30.3786C50.6807 29.7046 51.3872 29.1872 52.0288 28.5989C52.6437 28.0342 52.8048 27.304 52.4929 26.5131C52.1958 25.7593 51.6164 25.3513 50.8152 25.2729C50.5964 25.2522 50.3348 25.1709 50.3244 25.5715C50.2771 27.1148 50.1071 28.6476 49.8484 30.3786Z" fill="#020101"/>
<path d="M35.4819 68.7127C27.7169 68.7127 19.9535 68.7053 12.1885 68.7274C11.5898 68.7289 11.4553 68.5796 11.4568 67.9898C11.479 60.7023 11.4701 53.4134 11.4716 46.1259C11.4716 43.8435 12.8892 42.4141 15.1567 42.4141C28.7088 42.4127 42.2609 42.4127 55.8129 42.4141C58.0494 42.4141 59.4922 43.8406 59.4936 46.0594C59.4981 53.3956 59.4892 60.7304 59.5084 68.0667C59.5099 68.6048 59.3754 68.726 58.8447 68.726C51.0576 68.7068 43.269 68.7127 35.4819 68.7127ZM35.5011 56.1347C32.966 56.1303 30.9069 58.182 30.9098 60.7083C30.9143 63.2389 32.9704 65.2877 35.5026 65.2833C37.9948 65.2788 40.0436 63.236 40.0569 60.7437C40.0702 58.2086 38.0244 56.1392 35.5011 56.1347ZM27.8189 43.9115C27.6755 44.0401 27.5499 44.1451 27.4331 44.2619C26.1013 45.5908 24.7694 46.9197 23.442 48.253C22.6807 49.0187 22.6881 49.539 23.4642 50.321C24.5048 51.3676 25.544 52.4185 26.5994 53.4503C27.003 53.845 27.3636 54.5797 27.8352 54.5279C28.2831 54.4791 28.6437 53.7859 29.0813 53.4222C29.442 53.1222 29.3695 52.9359 29.0665 52.6447C28.0879 51.7031 27.1552 50.7157 26.1722 49.78C25.7938 49.4193 25.6933 49.1931 26.1441 48.7925C26.8906 48.1288 27.578 47.3986 28.2742 46.6802C28.6511 46.2914 29.3518 45.9426 29.3075 45.4932C29.2646 45.066 28.6275 44.695 28.2461 44.3033C28.116 44.1687 27.9726 44.0505 27.8189 43.9115ZM48.0613 49.2833C48.079 48.865 47.8499 48.5693 47.5735 48.2929C46.5107 47.233 45.4538 46.1687 44.388 45.1133C43.9844 44.7142 43.5602 44.0298 43.1463 44.0313C42.7339 44.0313 42.3436 44.7541 41.9031 45.1104C41.4996 45.4356 41.6282 45.6396 41.9342 45.9367C42.9261 46.8975 43.881 47.8968 44.8773 48.8531C45.201 49.1636 45.2601 49.3513 44.8935 49.6868C44.1574 50.3624 43.4671 51.0882 42.7649 51.8007C42.3658 52.2057 41.64 52.661 41.6785 53.0305C41.7258 53.4961 42.4116 53.8893 42.8048 54.3298C43.031 54.5841 43.1892 54.6595 43.4759 54.3668C44.858 52.9537 46.2638 51.5641 47.6607 50.1658C47.9031 49.9219 48.0687 49.641 48.0613 49.2833ZM32.8921 54.5013C33.136 54.4392 33.2114 54.2249 33.3296 54.0697C35.1478 51.6543 36.9615 49.236 38.7723 46.8162C39.9076 45.301 39.9061 45.2996 38.3451 44.2663C38.3259 44.253 38.3037 44.2412 38.286 44.2249C38.0864 44.0342 37.9445 44.0712 37.7775 44.2959C35.6415 47.1562 33.4981 50.0106 31.3592 52.8679C31.2808 52.9714 31.1005 53.1103 31.2454 53.2286C31.776 53.6676 32.3333 54.0741 32.8921 54.5013Z" fill="#D4CDC1"/>
<path d="M15.5322 6.63C16.9454 5.84064 18.3585 5.23458 19.7998 4.69948C23.9417 3.16511 28.224 2.39054 32.6453 2.3935C35.8116 2.39497 38.9793 2.38758 42.1456 2.39497C47.8854 2.40828 52.2106 7.08972 51.7598 12.8251C51.6238 14.5531 50.8803 16.1126 50.2446 17.7253C49.7953 14.1303 47.4375 11.5317 45.6031 8.66695C45.1656 7.98402 44.4782 7.92489 43.816 8.44078C42.8788 9.17249 41.9608 9.9308 41.0222 10.6625C39.3548 11.9618 37.4568 12.6522 35.343 12.6743C32.8419 12.6995 30.5758 13.409 28.5048 14.8118C26.1604 16.4009 23.7865 17.9456 21.445 19.5391C21.0119 19.8347 20.8434 19.7859 20.629 19.3232C20.1383 18.2663 19.5958 17.2331 19.0755 16.191C18.6837 15.4075 18.5877 14.5842 18.9114 13.7711C20.1235 10.7172 18.3615 7.64995 15.754 6.80295C15.7126 6.78964 15.6815 6.74825 15.5322 6.63Z" fill="#005CFF"/>
<path d="M35.4464 40.1273C32.8743 40.1273 30.3008 40.1184 27.7287 40.1362C27.3267 40.1391 27.099 40.0297 26.8891 39.6631C24.4531 35.3867 23.1656 30.7881 22.9217 25.8819C22.8965 25.3779 23.0222 25.2448 23.5292 25.2508C25.1922 25.27 25.1922 25.2478 25.1936 26.8945C25.1936 27.5139 25.1818 28.1332 25.1966 28.7526C25.2424 30.6181 26.7073 32.0785 28.5772 32.1214C29.3385 32.1391 30.1012 32.1332 30.864 32.1229C32.8581 32.0963 34.3097 30.6314 34.3392 28.6299C34.3555 27.5523 34.3555 27.5523 35.4124 27.5523C36.6023 27.5523 36.6023 27.5523 36.6275 28.7023C36.6674 30.6136 38.1249 32.0844 40.0317 32.1229C40.8181 32.1391 41.6045 32.1406 42.3895 32.1229C44.2623 32.08 45.7272 30.6225 45.7686 28.7541C45.7908 27.7533 45.7863 26.7526 45.7671 25.7533C45.7597 25.4045 45.8233 25.267 46.2239 25.2552C48.0761 25.202 48.0775 25.1872 47.9445 27.0261C47.6237 31.4858 46.317 35.6439 44.1515 39.5478C43.8943 40.0105 43.6075 40.1509 43.0931 40.145C40.5447 40.1125 37.9948 40.1273 35.4464 40.1273Z" fill="#F8DDB0"/>
<path d="M42.6289 22.9758C41.1285 22.9758 39.6296 22.9744 38.1293 22.9758C37.0044 22.9773 36.5934 23.3513 36.6422 24.4673C36.6703 25.1059 36.5033 25.3883 35.844 25.2641C35.7523 25.2463 35.6533 25.2611 35.5587 25.2611C34.4323 25.2611 34.4323 25.2611 34.3392 24.1155C34.2786 23.369 33.8292 22.9773 32.9866 22.9758C29.8913 22.9699 26.796 22.9803 23.7021 22.9611C23.4449 22.9596 22.96 23.2035 22.9408 22.76C22.9187 22.2308 22.5935 21.5316 23.1463 21.1621C25.7361 19.4341 28.2638 17.61 30.9452 16.0254C32.0849 15.3528 33.3724 14.9862 34.6925 14.998C38.0716 15.0276 40.9571 13.8583 43.4744 11.6514C44.3436 10.8887 44.3761 10.9153 45.0043 11.8717C46.0465 13.4563 47.1935 14.9744 47.7006 16.862C48.2179 18.7866 48.0095 20.7393 48.0642 22.6846C48.076 23.1 47.7627 22.967 47.5601 22.9685C45.9149 22.9803 44.2726 22.9758 42.6289 22.9758Z" fill="#F8DDB1"/>
<path d="M9.10795 53.0674C9.24542 53.2773 9.18038 53.4946 9.18038 53.6971C9.18481 58.4599 9.17299 63.2211 9.19812 67.9839C9.20108 68.5899 9.02369 68.7377 8.43981 68.7259C6.6305 68.689 4.82119 68.6963 3.01188 68.723C2.50782 68.7303 2.29052 68.6387 2.31417 68.0681C2.40287 65.8863 2.12644 63.6853 2.61573 61.5242C3.38586 58.1169 5.22917 55.4429 8.16486 53.536C8.45754 53.3453 8.74875 53.1413 9.10795 53.0674Z" fill="#005CFF"/>
<path d="M61.7834 52.9713C64.0391 54.1124 65.6814 55.7163 66.8876 57.768C68.1086 59.8464 68.6718 62.105 68.6452 64.5145C68.6319 65.7281 68.6245 66.9432 68.6526 68.1582C68.6629 68.6032 68.5151 68.7259 68.082 68.7214C66.1529 68.7007 64.2239 68.7066 62.2948 68.717C61.9534 68.7185 61.776 68.652 61.7775 68.2514C61.7878 63.2048 61.7834 58.1568 61.7834 52.9713Z" fill="#005CFF"/>
<path d="M29.8352 25.2981C30.5624 25.3336 31.5366 24.9375 31.9475 25.409C32.3052 25.817 32.0495 26.7689 32.051 27.4799C32.0554 29.7682 31.983 29.8377 29.6962 29.8377C27.5957 29.8377 27.4656 29.7209 27.4863 27.6278C27.4937 26.8517 27.1449 25.8096 27.6297 25.378C28.0525 24.9995 29.0769 25.2981 29.8352 25.2981Z" fill="#D4CDC1"/>
<path d="M41.2587 25.307C41.9874 25.3291 42.9601 24.9433 43.3754 25.403C43.7346 25.8007 43.4848 26.7585 43.4863 27.4681C43.4907 29.7711 43.4227 29.8361 41.1434 29.8361C39.0325 29.8361 38.9024 29.7194 38.9216 27.6381C38.929 26.8605 38.5861 25.8199 39.0591 25.3838C39.4686 25.0069 40.5004 25.307 41.2587 25.307Z" fill="#D4CDC1"/>
<path d="M21.1035 30.3669C20.2743 29.6928 19.5455 29.1636 18.8966 28.5517C18.2891 27.9796 18.1575 27.2302 18.4901 26.4541C18.8079 25.7135 19.3977 25.3144 20.2063 25.2686C20.3733 25.2597 20.6202 25.1725 20.6305 25.4829C20.6808 27.0631 20.87 28.6315 21.1035 30.3669Z" fill="#EFCA84"/>
<path d="M49.8484 30.3786C50.1086 28.6491 50.2786 27.1147 50.323 25.5715C50.3348 25.1724 50.5964 25.2522 50.8137 25.2729C51.6164 25.3513 52.1943 25.7592 52.4915 26.5131C52.8034 27.3025 52.6408 28.0342 52.0273 28.5989C51.3873 29.1872 50.6807 29.7045 49.8484 30.3786Z" fill="#EFCA85"/>
<path d="M35.5011 56.1346C38.0244 56.1391 40.0717 58.2085 40.0569 60.7436C40.0436 63.2359 37.9948 65.2787 35.5026 65.2832C32.9705 65.2876 30.9143 63.2388 30.9099 60.7081C30.9054 58.1834 32.966 56.1317 35.5011 56.1346ZM37.7672 60.6727C37.748 59.4059 36.6837 58.3903 35.411 58.4243C34.1767 58.4569 33.1774 59.5034 33.1996 60.7436C33.2218 62.0149 34.2846 63.0289 35.5543 62.9934C36.7916 62.9565 37.7849 61.9144 37.7672 60.6727Z" fill="#030303"/>
<path d="M27.8189 43.9115C27.9727 44.0504 28.116 44.1687 28.2446 44.3017C28.626 44.6935 29.2646 45.0645 29.306 45.4917C29.3503 45.9411 28.6497 46.2884 28.2727 46.6787C27.5765 47.3971 26.8891 48.1288 26.1427 48.791C25.6918 49.1916 25.7923 49.4178 26.1707 49.7784C27.1537 50.7141 28.0865 51.7016 29.065 52.6432C29.3681 52.9344 29.4405 53.1206 29.0798 53.4207C28.6423 53.7844 28.2816 54.4776 27.8337 54.5264C27.3622 54.5781 27.003 53.8435 26.5979 53.4488C25.541 52.417 24.5033 51.366 23.4627 50.3195C22.6866 49.539 22.6793 49.0172 23.4405 48.2515C24.7679 46.9181 26.0998 45.5893 27.4316 44.2604C27.5499 44.1451 27.677 44.0401 27.8189 43.9115Z" fill="#050403"/>
<path d="M48.0613 49.2833C48.0702 49.6425 47.9031 49.9219 47.6607 50.1658C46.2638 51.5642 44.8581 52.9537 43.476 54.3668C43.1907 54.6595 43.0325 54.5841 42.8048 54.3299C42.4131 53.8893 41.7258 53.4962 41.6785 53.0305C41.6415 52.661 42.3658 52.2057 42.7649 51.8007C43.4671 51.0882 44.1559 50.3609 44.8935 49.6868C45.2601 49.3513 45.1995 49.165 44.8773 48.8531C43.8825 47.8968 42.9261 46.8975 41.9342 45.9367C41.6282 45.641 41.4996 45.4356 41.9032 45.1104C42.3437 44.7556 42.7339 44.0328 43.1463 44.0313C43.5602 44.0313 43.9844 44.7142 44.388 45.1133C45.4538 46.1687 46.5107 47.233 47.5735 48.2929C47.8499 48.5679 48.079 48.8635 48.0613 49.2833Z" fill="#060403"/>
<path d="M32.8921 54.5013C32.3333 54.0741 31.776 53.6676 31.2439 53.23C31.099 53.1118 31.2794 52.9728 31.3577 52.8694C33.4967 50.012 35.6415 47.1576 37.776 44.2973C37.9431 44.0726 38.085 44.0357 38.2845 44.2264C38.3023 44.2426 38.323 44.2544 38.3437 44.2677C39.9046 45.301 39.9061 45.301 38.7709 46.8176C36.9586 49.2374 35.1448 51.6558 33.3281 54.0711C33.2128 54.2249 33.136 54.4392 32.8921 54.5013Z" fill="#030202"/>
<path d="M37.7672 60.6727C37.7849 61.9143 36.7916 62.9565 35.5543 62.9919C34.2846 63.0289 33.2218 62.0134 33.1996 60.7421C33.1774 59.5019 34.1767 58.4554 35.411 58.4228C36.6837 58.3903 37.748 59.4058 37.7672 60.6727Z" fill="#005CFF"/>
</svg>
