<svg width="25" height="25" viewBox="0 0 25 25" fill="none" xmlns="http://www.w3.org/2000/svg">
<g id="Group 1992">
<path id="Vector" d="M6.98104 21.0544L7.35304 21.2763C8.91543 22.2098 10.7069 22.7036 12.5337 22.7045H12.5376C18.1478 22.7045 22.7137 18.1087 22.716 12.4602C22.717 9.72295 21.6593 7.14893 19.7375 5.21267C18.795 4.25777 17.6736 3.50056 16.4384 2.9849C15.2033 2.46923 13.8787 2.20534 12.5416 2.2085C6.92695 2.2085 2.36093 6.80374 2.35893 12.452C2.35617 14.3807 2.89565 16.2708 3.915 17.9038L4.15718 18.2912L3.12873 22.0712L6.98104 21.0544ZM0.188354 24.9997L1.92585 18.613C0.854291 16.7439 0.29055 14.6235 0.291216 12.4511C0.294046 5.65522 5.78731 0.126465 12.5377 0.126465C15.8135 0.128141 18.8882 1.41155 21.2006 3.74125C23.5129 6.07096 24.7852 9.16762 24.7841 12.461C24.7811 19.2564 19.287 24.7862 12.5376 24.7862H12.5322C10.4828 24.7853 8.46904 24.2677 6.68028 23.2858L0.188354 24.9997Z" fill="#B3B3B3"/>
<path id="Vector_2" d="M0.0626831 24.8732L1.80018 18.4865C0.726775 16.6129 0.162951 14.4876 0.165545 12.3247C0.168374 5.52876 5.66164 0 12.4121 0C15.6878 0.00167569 18.7625 1.28508 21.0749 3.61479C23.3873 5.94449 24.6596 9.04116 24.6584 12.3346C24.6554 19.13 19.1613 24.6597 12.4119 24.6597H12.4066C10.3572 24.6589 8.34337 24.1413 6.55461 23.1593L0.0626831 24.8732Z" fill="white"/>
<path id="Vector_3" d="M12.4157 2.08206C6.80112 2.08206 2.2351 6.67729 2.2331 12.3255C2.23034 14.2542 2.76982 16.1444 3.78918 17.7774L4.03135 18.165L3.0029 21.945L6.85538 20.928L7.22738 21.1499C8.78977 22.0834 10.5812 22.577 12.4081 22.578H12.4119C18.0222 22.578 22.5882 17.9823 22.5904 12.3337C22.5946 10.9874 22.3335 9.65363 21.8223 8.40959C21.311 7.16555 20.5597 6.03596 19.6119 5.08623C18.6693 4.1313 17.5479 3.37409 16.3127 2.85842C15.0775 2.34275 13.7529 2.07887 12.4157 2.08206Z" fill="#005CFF"/>
<path id="Vector_4" fill-rule="evenodd" clip-rule="evenodd" d="M9.35116 7.17197C9.1218 6.65904 8.88046 6.64865 8.66259 6.63977L8.07605 6.63257C7.87199 6.63257 7.54043 6.70965 7.26014 7.01798C6.97986 7.3263 6.18909 8.07148 6.18909 9.58714C6.18909 11.1028 7.28561 12.5673 7.4384 12.7731C7.5912 12.9789 9.55522 16.1883 12.6655 17.4231C15.2502 18.4493 15.7762 18.2452 16.3374 18.194C16.8987 18.1427 18.1478 17.4488 18.4026 16.7294C18.6575 16.01 18.6576 15.3937 18.5812 15.2649C18.5048 15.136 18.3008 15.0594 17.9945 14.9053C17.6883 14.7511 16.1841 14.0059 15.9037 13.903C15.6232 13.8001 15.4193 13.749 15.2151 14.0574C15.0109 14.3657 14.4252 15.0593 14.2466 15.2649C14.068 15.4705 13.8897 15.4963 13.5835 15.3423C13.2772 15.1883 12.2919 14.8629 11.1228 13.8134C10.2132 12.9968 9.59916 11.9884 9.4204 11.6802C9.24164 11.3721 9.40143 11.2052 9.55489 11.0517C9.6922 10.9136 9.86081 10.6919 10.0141 10.5121C10.1674 10.3323 10.2178 10.2038 10.3197 9.99852C10.4216 9.79325 10.3708 9.61294 10.2942 9.45895C10.2177 9.30495 9.62313 7.78125 9.35116 7.17197Z" fill="white"/>
</g>
</svg>
