<svg width="37" height="25" viewBox="0 0 37 25" fill="none" xmlns="http://www.w3.org/2000/svg">
<g id="Group 1993">
<path id="Vector" d="M35.5263 3.90376C35.1182 2.36718 33.9159 1.15705 32.389 0.746368C29.622 0 18.5259 0 18.5259 0C18.5259 0 7.42985 0 4.66272 0.746368C3.13581 1.15705 1.93325 2.36718 1.52544 3.90376C0.784058 6.68888 0.784058 12.5 0.784058 12.5C0.784058 12.5 0.784058 18.3108 1.52544 21.0962C1.93325 22.633 3.13581 23.8428 4.66257 24.2539C7.4297 25 18.5257 25 18.5257 25C18.5257 25 29.6219 25 32.3889 24.2539C33.9158 23.8429 35.118 22.633 35.5262 21.0964C36.2677 18.311 36.2677 12.5002 36.2677 12.5002C36.2677 12.5002 36.2677 6.68904 35.5262 3.90392" fill="white"/>
<path id="Vector_2" d="M14.8969 17.7761L24.171 12.5004L14.8969 7.22412V17.7761Z" fill="#005CFF"/>
</g>
</svg>
